<svg xmlns="http://www.w3.org/2000/svg" xmlns:xlink="http://www.w3.org/1999/xlink" width="83.069" height="83.165" viewBox="0 0 83.069 83.165"><defs><style>.a{stroke:#f7f9fc;fill:url(#a);}</style><linearGradient id="a" x1="0.5" x2="0.5" y2="1" gradientUnits="objectBoundingBox"><stop offset="0" stop-color="#1b4d70"/><stop offset="0.496" stop-color="#1b4d70"/><stop offset="1" stop-color="#1b8ebd"/></linearGradient></defs><g transform="translate(0.505 -8.905)"><g transform="translate(15.779 9.405)"><g transform="translate(0 0)"><path class="a" d="M153.052,22.132,152.6,14.5a2.278,2.278,0,1,0-4.549.258L148.181,17a38.431,38.431,0,0,0-50.1,3.646,2.288,2.288,0,0,0,0,3.226,2.334,2.334,0,0,0,3.226,0,33.843,33.843,0,0,1,43.682-3.565l-1.968.129a2.276,2.276,0,0,0,.129,4.549c.048,0,7.759-.452,7.759-.452A2.286,2.286,0,0,0,153.052,22.132Z" transform="translate(-97.414 -9.405)"/></g></g><g transform="translate(0 39.271)"><g transform="translate(0 0)"><path class="a" d="M34.768,219.662A33.88,33.88,0,0,1,9.862,183.626l1.081,1.629a2.4,2.4,0,0,0,3.145.645,2.247,2.247,0,0,0,.645-3.145l-4.194-6.388a2.268,2.268,0,0,0-3.145-.661L1.023,179.9a2.27,2.27,0,0,0,2.5,3.791l1.887-1.242a38.446,38.446,0,0,0,28.18,41.6,2.43,2.43,0,0,0,2.791-1.613A2.229,2.229,0,0,0,34.768,219.662Z" transform="translate(0 -175.341)"/></g></g><g transform="translate(50.672 39.269)"><path class="a" d="M343.752,177.02a2.279,2.279,0,1,0-4.4,1.178,33.9,33.9,0,0,1-18.76,39.6l.871-1.758a2.272,2.272,0,0,0-4.065-2.032l-3.42,6.823a2.263,2.263,0,0,0,1.016,3.049l6.823,3.42a2.5,2.5,0,0,0,3.049-1.016,2.219,2.219,0,0,0-1.016-3.049L321.8,222.2A38.415,38.415,0,0,0,343.752,177.02Z" transform="translate(-313.732 -175.33)"/></g><g transform="translate(25.631 38.864)"><path class="a" d="M166.159,201.068l4.1-4.275c1.6-1.661,4.178-4.017,4.178-7.452a7.077,7.077,0,0,0-7.372-6.936c-4.355,0-7.259,3.355-8.323,5l4.049,2.4c1.274-2.032,2.629-3.049,4.049-3.049,2.758,0,2.662,1.9,2.662,2.662,0,2-2.387,4.242-3.726,5.613l-6.646,6.807V205.6h15.985v-4.533Z" transform="translate(-158.739 -182.405)"/></g><g transform="translate(44.959 39.394)"><path class="a" d="M292.408,198.477v-3.952h-4.855v3.952h-3.21l7.678-12.872h-5.5l-8.081,13.388v3.855h9.114v5.42h4.855v-5.42h2.565v-4.371Z" transform="translate(-278.439 -185.605)"/></g><g transform="translate(62.89 33.258)"><path class="a" d="M393.668,153.583a2.828,2.828,0,0,0-2.081.936v-3.613h-2.049v10.13h2.049v-3.968c0-.581.145-1.742,1.532-1.742.823,0,1.242.565,1.242,1.694v4.016h2.049v-4.452A2.793,2.793,0,0,0,393.668,153.583Z" transform="translate(-389.539 -150.905)"/></g></g></svg>