<svg xmlns="http://www.w3.org/2000/svg" width="160" height="53" viewBox="0 0 160 53"><defs><style>.a{fill:#1b4d70;}.a,.b{fill-rule:evenodd;}.b{fill:#1b8ebd;}</style></defs><g transform="translate(0 0.02)"><g transform="translate(0 -0.02)"><path class="a" d="M9207.269,7.68V21.44c0,9.212,7.168,8,15.04,8,1.528,0,.96-2.142.96-6.08,0-1.449-1.642-.96-5.12-.96V6.72h7.36V34.88c0,.737.223.96.96.96h8.96c.737,0,.96-.223.96-.96V8.32c0-4.447-1.378-8.32-6.4-8.32h-16.32a7.2,7.2,0,0,0-4.9,2.143c-1.033,1.131-1.5,3.459-1.5,5.537Z" transform="translate(-9141.669 0)"/><path class="a" d="M0,5.44V23.68c0,6.76,9.387,5.76,14.72,5.76,1.528,0,.96-2.142.96-6.08,0-1.449-1.641-.96-5.12-.96V6.72h7.36V28.48c0,.737.223.96.96.96h8.96c.737,0,.96-.223.96-.96V0H6.08C2.977,0,0,2.279,0,5.44Z" transform="translate(0 0)"/><path class="a" d="M18514.92,6.73h7.359V22.41h-7.359V6.73Zm-10.561-1.28V23.69c0,4.349,4.2,5.76,8.641,5.76,5.309,0,19.52,1.387,19.52-4.48V4.17c0-2.388-3.291-4.16-5.76-4.16h-16.32c-3.1,0-6.08,2.278-6.08,5.44Z" transform="translate(-18372.52 -0.01)"/><path class="a" d="M4626.079,5.74V23.66c0,4.4,4.53,5.76,8.32,5.76h19.52c1.528,0,.96-2.142.96-6.08,0-.737-.223-.96-.96-.96h-17.28V6.7H4644V18.54c0,2.272,7.6.452,9.056-.864,2.407-2.18,1.824-7.152,1.824-10.976,0-4.081-2.726-6.72-6.4-6.72h-16.32a5.893,5.893,0,0,0-6.08,5.76Z" transform="translate(-4593.119 0.02)"/><path class="a" d="M13878.3,23.67c0,4.349,4.194,5.76,8.641,5.76,23.434,0,20.159,2.461,20.159-29.44h-10.88v22.4h-7.36V-.01h-10.56V23.67Z" transform="translate(-13779.419 0.01)"/><path class="b" d="M21157.16,5437.583c0-2.088-.4-3.626,1.4-4.045,1.111-.26,1.012.174,2.443.206,0,5.412.7,6.424-3.521,5.44A4.657,4.657,0,0,1,21157.16,5437.583Zm6.4-4.8v8.176c-.377,3.868-2.121,5.577-8.959,3.984a11.733,11.733,0,0,1,.639-2.24c3.984.928,4.688.746,5.762-1.28-2.105.175-6.721,1.893-6.721-4.8C21154.279,5428.889,21163.559,5431.136,21163.559,5432.783Z" transform="translate(-21003.559 -5392.536)"/><path class="b" d="M11098.8,4952.319h-2.561v-5.44c3.793-.883,3.841-.331,3.841,3.52C11100.08,4951.382,11099.783,4952.319,11098.8,4952.319Zm-5.12.96c0,1.671,6.74,1.979,8.249-.07,1.634-2.219,1.116-7.019-.5-8.323s-3.379-.669-5.193-.246v-4.16h-2.56Z" transform="translate(-11014.64 -4905.353)"/><path class="b" d="M15225.7,4954.56c2.594,0,2.567.212,2.595-1.884.015-1.044-.035-2.174-.035-3.236a27.493,27.493,0,0,1,3.84,5.12h2.88c-.476-2.043-2.768-4.16-3.84-5.76a12.852,12.852,0,0,0,3.52-4.48h-2.879a41.447,41.447,0,0,1-3.521,4.48v-8.32h-2.56Z" transform="translate(-15117.221 -4905.354)"/><path class="b" d="M19674.949,5455.93v-1.6h3.2v2.24C19677.168,5456.8,19674.949,5457.524,19674.949,5455.93Zm-2.559-7.04a11.456,11.456,0,0,0,.639,2.24c2.131-.5,1.6-.32,4.16-.32,1.064,0,.938.574.961,1.6-2.643-.059-6.08-1.479-6.08,3.84,0,3.964,6.328,2.458,8.641,1.92,0-2.588.617-7.074-.7-8.582C19678.158,5447.467,19675.15,5448.66,19672.391,5448.89Z" transform="translate(-19531.91 -5409.604)"/><path class="b" d="M13611.66,5441.56c0-2.621-.189-2.294.32-4.48,2.025-.472,1.174-.472,3.2,0a11.353,11.353,0,0,1,0,5.76C13613.568,5442.84,13611.66,5443.2,13611.66,5441.56Zm-2.88-2.24c0,6.217,2.769,5.76,6.08,5.76,4.164,0,5.885-10.56-1.28-10.56A4.443,4.443,0,0,0,13608.78,5439.32Z" transform="translate(-13511.82 -5395.874)"/><path class="b" d="M16577.891,5444.248h.32c1.139,0,1.254.759,1.279,1.92h-3.52C16576.084,5444.8,16576.436,5444.248,16577.891,5444.248Zm-4.8,2.56c0,7.27,4.309,5.774,8.32,5.44a18.005,18.005,0,0,0-.32-2.24c-3.482.29-5.119,1.321-5.119-1.92h6.08c0-1.646.158-4.1-1.2-5.2a6.916,6.916,0,0,0-3.525-.813C16574.711,5442.323,16573.09,5443.838,16573.09,5446.808Z" transform="translate(-16455.01 -5403.361)"/><path class="b" d="M18041.535,5441.932c-2.336,0-1.6.14-1.6,9.28,0,1.138.625.96,1.922.96,1.592,0,.959-4.585.959-7.68a17.133,17.133,0,0,1,3.52-.32v-2.24c-1.361-.317-.988-.37-2.309-.071C18041.918,5442.337,18043.246,5441.932,18041.535,5441.932Z" transform="translate(-17911.293 -5402.966)"/><path class="b" d="M12607.034,5439.228c-2.335,0-1.6.139-1.6,9.28,0,1.138.624.96,1.92.96,1.593,0,.96-4.585.96-7.68a15.079,15.079,0,0,1,3.2-.32c0-2.435.218-2.856-1.976-2.325C12607.407,5439.658,12608.763,5439.228,12607.034,5439.228Z" transform="translate(-12515.515 -5400.262)"/></g></g></svg>