<svg xmlns="http://www.w3.org/2000/svg" width="95.53" height="92.229" viewBox="0 0 95.53 92.229"><defs><style>.a{opacity:0.17;}.b{fill:#fff;}</style></defs><g class="a" transform="translate(-10 -18.503)"><path class="b" d="M269.816,317.25c.012-.021.023-.043.033-.065.73-1.534,2.33-4.11,4.84-4.128l19.583-.159c-.11-.01-.222-.016-.335-.016h-.028l-21.551.175c-2.511.019-4.11,2.594-4.84,4.128-.01.022-.021.044-.033.065l-3.825,6.9,2.34-.018Z" transform="translate(-204.409 -237.22)"/><path class="b" d="M262.2,468.046l-.021-3.18,1.345-.01v-.018l-3.675.028.021,3.18a.03.03,0,0,0,.027.026l2.307-.017S262.2,468.05,262.2,468.046Z" transform="translate(-201.333 -359.672)"/><path class="b" d="M242.726,395.107a1.223,1.223,0,0,1-.757-1.119,1.183,1.183,0,0,0-.016-.183l-1.465-8.765c0-.064,0-.128.007-.191a3.287,3.287,0,0,1,2.823-3.265,1.205,1.205,0,0,0,.136.009h.009l40.8-.316c-.09-.009-.182-.015-.277-.015h-.052l-42.8.332h-.009a1.206,1.206,0,0,1-.136-.009,3.287,3.287,0,0,0-2.823,3.265c0,.063-.006.127-.007.191l1.465,8.765a1.176,1.176,0,0,1,.016.183,1.223,1.223,0,0,0,.757,1.119,1.146,1.146,0,0,0,.471.092l2.122-.016A1.213,1.213,0,0,1,242.726,395.107Z" transform="translate(-183.857 -292.323)"/><path class="b" d="M23.063,93.285,46.19,109.058a1.165,1.165,0,0,0,1.313,0l7.988-5.448a1.165,1.165,0,0,0-1.313-1.925l-7.331,5L24.376,91.359C17.509,86.677,12.33,76.883,12.33,68.576v-30.7L46.85,20.965,81.364,37.917V68.576a23.719,23.719,0,0,1-.724,5.642,1.165,1.165,0,1,0,2.262.557,26.035,26.035,0,0,0,.792-6.2V37.191a1.165,1.165,0,0,0-.651-1.046L47.365,18.622a1.164,1.164,0,0,0-1.026,0L10.653,36.1A1.165,1.165,0,0,0,10,37.146v31.43c0,9.009,5.616,19.632,13.063,24.709Z" transform="translate(0 0)"/><path class="b" d="M107.783,116.165a1.165,1.165,0,1,0,2.184.812,20.131,20.131,0,0,0,1.352-6.87V84.926a1.165,1.165,0,0,0-.651-1.046L83.754,70.662a1.165,1.165,0,0,0-1.026,0L55.816,83.842a1.165,1.165,0,0,0-.653,1.046v25.217c0,6.322,4.252,14.365,9.48,17.928l17.941,12.237a1.165,1.165,0,0,0,1.313,0l6.329-4.316a1.165,1.165,0,1,0-1.313-1.925L83.241,137.9,65.955,126.109c-4.587-3.127-8.462-10.456-8.462-16V85.615l25.746-12.61,25.749,12.647v24.454a17.778,17.778,0,0,1-1.205,6.059Z" transform="translate(-36.394 -41.936)"/><path class="b" d="M165.381,216.739l-11.1,10.163-5.524-5.99a1.165,1.165,0,1,0-1.713,1.579l6.312,6.844a1.165,1.165,0,0,0,1.643.069l11.952-10.948a1.165,1.165,0,0,0-1.574-1.718Z" transform="translate(-110.189 -159.499)"/><g transform="translate(51.968 73.332)"><path class="b" d="M255.048,404.253h-.027a3.637,3.637,0,1,0,.026,7.273h.028a3.637,3.637,0,1,0-.026-7.273Zm.009,4.943h-.009a1.307,1.307,0,1,1-.01-2.613h.01a1.307,1.307,0,1,1,.01,2.613Z" transform="translate(-246.494 -384.182)"/><path class="b" d="M443.129,402.784H443.1a3.637,3.637,0,0,0,.026,7.273h.028a3.637,3.637,0,0,0-.026-7.273Zm.009,4.943h-.01a1.307,1.307,0,0,1-.009-2.613h.01a1.307,1.307,0,0,1,.009,2.613Z" transform="translate(-398.057 -382.998)"/><path class="b" d="M275,314.21l-4.427-8.017c-1.411-2.485-3.465-5.334-6.908-5.31l-21.551.175c-2.793.021-5.245,1.946-6.91,5.424l-4.463,8.047a5.608,5.608,0,0,0-4.578,5.409c-.009.146-.013.291-.011.434a1.209,1.209,0,0,0,.016.183l1.468,8.78a3.525,3.525,0,0,0,2.727,3.322l.022,3.285a2.358,2.358,0,0,0,2.358,2.341h.018l3.621-.027a2.357,2.357,0,0,0,2.34-2.374l-.021-3.182,28.686-.223.021,3.176a2.358,2.358,0,0,0,2.357,2.341h.018l3.621-.027a2.36,2.36,0,0,0,2.34-2.374l-.022-3.3a3.553,3.553,0,0,0,2.612-3.343l1.367-8.8a1.159,1.159,0,0,0,.014-.187,6.114,6.114,0,0,0-1.51-4.017A5.193,5.193,0,0,0,275,314.21Zm-37.741-6.63q.018-.031.033-.065c.73-1.534,2.33-4.11,4.84-4.128l21.551-.175h.028c1.746,0,3.194,1.238,4.829,4.119l3.778,6.843-3.5.027a6.108,6.108,0,0,0-6.017-5.065h-.046a6.108,6.108,0,0,0-5.989,5.158l-23.333.181Zm29.176,6.64-7.283.056a3.772,3.772,0,0,1,3.622-2.81h.028a3.782,3.782,0,0,1,3.633,2.752ZM236.386,335.9a.03.03,0,0,1-.027.027l-3.621.027a.03.03,0,0,1-.027-.026l-.021-3.18,3.675-.028Zm36.994-.261-3.621.027a.03.03,0,0,1-.027-.026l-.021-3.178,3.675-.029.021,3.178A.028.028,0,0,1,273.381,335.636Zm2.631-6.963a1.17,1.17,0,0,0-.014.188,1.227,1.227,0,0,1-1.211,1.229l-43.6.337a1.147,1.147,0,0,1-.471-.092,1.223,1.223,0,0,1-.757-1.119,1.186,1.186,0,0,0-.016-.184l-1.465-8.765c0-.064,0-.128.007-.191a3.286,3.286,0,0,1,2.823-3.265,1.176,1.176,0,0,0,.136.009h.009l42.8-.332h.052a2.827,2.827,0,0,1,2.149,1,3.827,3.827,0,0,1,.923,2.4Z" transform="translate(-226.147 -300.882)"/><path class="b" d="M321.964,405.839h-.009a1.165,1.165,0,0,0-1.156,1.174l.017,2.278a1.165,1.165,0,0,0,1.165,1.156h.009a1.165,1.165,0,0,0,1.156-1.174L323.129,407A1.165,1.165,0,0,0,321.964,405.839Z" transform="translate(-302.421 -385.46)"/><path class="b" d="M396.809,405.038H396.8a1.165,1.165,0,0,0-1.157,1.174l.017,2.278a1.165,1.165,0,0,0,1.165,1.156h.009a1.165,1.165,0,0,0,1.156-1.173l-.017-2.278A1.165,1.165,0,0,0,396.809,405.038Z" transform="translate(-362.733 -384.814)"/><path class="b" d="M346.915,405.519h-.009a1.165,1.165,0,0,0-1.156,1.174l.017,2.278a1.165,1.165,0,0,0,1.165,1.156h.009a1.165,1.165,0,0,0,1.156-1.174l-.017-2.278A1.165,1.165,0,0,0,346.915,405.519Z" transform="translate(-322.527 -385.202)"/><path class="b" d="M371.864,405.2h-.009a1.165,1.165,0,0,0-1.156,1.174l.017,2.278a1.165,1.165,0,0,0,1.165,1.156h.009a1.165,1.165,0,0,0,1.156-1.174l-.017-2.277A1.165,1.165,0,0,0,371.864,405.2Z" transform="translate(-342.632 -384.945)"/></g></g></svg>