<svg xmlns="http://www.w3.org/2000/svg" width="135" height="60" viewBox="0 0 135 60"><defs><style>.a,.c{fill:#fff;}.a,.b,.c{fill-rule:evenodd;}.b{fill:#1b8ebd;stroke:#fff;}.b,.c{stroke-miterlimit:2.613;stroke-width:0.077px;}.c{stroke:#0c89f3;}.d{fill:none;}</style></defs><g transform="translate(7.987 17.707)"><path class="a" d="M88.954,9.4V25.95a5.193,5.193,0,0,1-1.44,3.281,5.357,5.357,0,0,1-3.074,1.262H42.961a4.6,4.6,0,0,1-3.017-1.29,4.239,4.239,0,0,1-1.405-3.017V9.518A4.98,4.98,0,0,1,39.8,6.238a4.742,4.742,0,0,1,2.988-1.463H84.532a4.52,4.52,0,0,1,3.1,1.463A4.626,4.626,0,0,1,88.954,9.4Z" transform="translate(-38.492 -4.775)"/><path class="b" d="M43.394,6.312a10.015,10.015,0,0,1,3.694-.878A3.954,3.954,0,0,1,51.01,9.592v5.563a10.9,10.9,0,0,0,.556,3.487l-1.669.206-.465-1.612a3.946,3.946,0,0,1-3.195,1.554c-2.461,0-3.808-1.933-3.808-4.221,0-2.461,1.52-4.629,4.1-4.629a7.447,7.447,0,0,1,2.7.614V9.328A2.222,2.222,0,0,0,47.03,6.9a8.368,8.368,0,0,0-3.223.969l-.413-1.554Zm5.833,5.8a6.379,6.379,0,0,0-2.461-.614c-1.818,0-2.552,1.583-2.552,3.223,0,1.2.619,2.6,2.025,2.6s2.225-1.17,2.988-2.2Z" transform="translate(-20.061 -1.654)"/><path class="b" d="M52.236,5.48h1.789v6.206a29.409,29.409,0,0,0,.556,6.624h-1.7l-.413-2.461a5.517,5.517,0,0,1-4.216,2.724c-2.288,0-3.252-1.933-3.252-4.193V5.48h1.789v8.4c0,1.2,0,3.195,1.577,3.195,1.789,0,3.837-1.99,3.837-6.326V5.48Z" transform="translate(-7.871 -1.436)"/><path class="c" d="M57.644,5.48l-3.986,13H51.61l-3.986-13H49.5l3.132,9.957L55.768,5.48Z" transform="translate(4.535 -1.436)"/><path class="c" d="M51.915,12.6c.086,3.545,1.669,4.715,3.659,4.715a7.917,7.917,0,0,0,4.015-1.377l.763,1.612a11.553,11.553,0,0,1-4.921,1.262c-3.808,0-5.305-3.281-5.305-6.624,0-3.367,1.554-6.762,5.42-6.762,4.279,0,4.95,4.772,4.95,6.177v1Zm6.768-1.5c-.057-2.1-1.262-4.13-3.281-4.13s-3.017,1.526-3.487,4.13Z" transform="translate(16.384 -1.678)"/><path class="c" d="M60.775,8.394a5.953,5.953,0,0,0-3.424-1.44,2,2,0,0,0-2.082,1.933c0,1.262,1.5,1.876,2.461,2.231,2.025.728,4.13,1.577,4.13,4.13a3.76,3.76,0,0,1-3.923,3.545,8.241,8.241,0,0,1-5.271-2.231l.964-1.434a6.387,6.387,0,0,0,4.193,2.168,2,2,0,0,0,2.225-1.962c0-1.669-1.348-2.139-2.667-2.638-1.818-.7-3.923-1.549-3.923-3.866a3.678,3.678,0,0,1,3.952-3.4,6.933,6.933,0,0,1,4.158,1.491l-.792,1.468Z" transform="translate(28.407 -1.654)"/><path class="c" d="M64.245,10.244h-4.6v7.324c0,1.262.029,2.753,1.669,2.753,1.377,0,2.2-1.141,2.724-2.254l1.726.442c-.878,1.841-2.34,3.338-4.479,3.338-2.082,0-3.4-1-3.4-4.864V10.244H55.131V8.724H57.89V4.8H59.7V8.724h4.6v1.52h-.057Z" transform="translate(40.085 -4.68)"/><path class="c" d="M58.68,6.312a10.015,10.015,0,0,1,3.694-.878A3.954,3.954,0,0,1,66.3,9.592v5.563a10.9,10.9,0,0,0,.556,3.487l-1.669.206-.47-1.612a3.928,3.928,0,0,1-3.189,1.554c-2.461,0-3.808-1.933-3.808-4.221,0-2.461,1.52-4.629,4.1-4.629a7.447,7.447,0,0,1,2.7.614V9.328a2.225,2.225,0,0,0-2.2-2.432,8.309,8.309,0,0,0-3.223.969L58.68,6.312Zm5.833,5.8a6.379,6.379,0,0,0-2.461-.614c-1.818,0-2.552,1.583-2.552,3.223,0,1.2.614,2.6,2.025,2.6s2.225-1.17,2.988-2.2Z" transform="translate(52.326 -1.654)"/><path class="a" d="M53.651,8.949H52.1V10.3h1.141v.321H52.1v1.434h1.612v.321H51.689V8.57h1.962Z" transform="translate(23.785 13.196)"/><path class="a" d="M52.215,8.58h.969c.734,0,1.227.407,1.227,1.9,0,1.463-.436,1.9-1.285,1.9h-.912Zm.413,3.453h.5c.556,0,.906-.143.906-1.549,0-1.468-.413-1.554-.941-1.554h-.465Z" transform="translate(26.276 13.244)"/><path class="a" d="M54.788,8.949H53.2V10.3h1.141v.321H53.2v1.434h1.612v.321H52.792V8.57h1.967v.379Z" transform="translate(29.008 13.196)"/><path class="a" d="M53.772,12.056h1.64v.327H53.359V8.575h.384v3.481Z" transform="translate(31.693 13.22)"/><path class="a" d="M55.783,8.6h.379v3.808h-.379V9.51h0l-.792,1.875L54.228,9.51h0v2.873h-.384V8.575h.384l.792,1.9Z" transform="translate(33.99 13.22)"/><path class="a" d="M56.409,8.949H54.86V10.3H56v.321H54.86v1.434h1.612v.321H54.447V8.57h1.962Z" transform="translate(36.846 13.196)"/><path class="a" d="M57.474,8.9H56.4V12.36h-.384V8.9H54.927V8.58h2.547Z" transform="translate(39.119 13.244)"/><path class="a" d="M58.182,12.63h-.436l-.356-1.113H56.25L55.9,12.63h-.442l1.348-4.1ZM56.37,11.162h.964l-.5-1.52-.465,1.52Z" transform="translate(41.633 13.002)"/><path class="a" d="M56.53,12.056h1.64v.327H56.117V8.575H56.5v3.481Z" transform="translate(44.754 13.22)"/><path class="a" d="M57.076,12.056h1.64v.327H56.669V8.575h.379v3.481Z" transform="translate(47.368 13.22)"/><path class="a" d="M59.167,8.949H57.618V10.3h1.141v.321H57.618v1.434h1.606v.321H57.205V8.57h1.962Z" transform="translate(49.906 13.196)"/><path class="a" d="M60.94,12.63H60.5l-.356-1.113H59.008l-.35,1.113h-.442l1.348-4.1Zm-1.812-1.468h.964l-.5-1.52Z" transform="translate(54.694 13.002)"/><path class="a" d="M59.846,10.853v-.321H61.13v1.962h-.379v-.379a1.1,1.1,0,0,1-.792.379c-.292,0-1.141-.057-1.141-1.875,0-1.491.47-2.048,1.2-2.048.648,0,.941.436.969,1.05h-.413c.029-.35-.143-.7-.528-.7-.792,0-.82,1.113-.82,1.669,0,.528.029,1.612.763,1.612.384,0,.763-.293.763-1.055v-.264h-.906v-.029Z" transform="translate(57.549 13.196)"/><rect class="d" width="135" height="60" transform="translate(-7.987 -17.707)"/></g></svg>