<svg xmlns="http://www.w3.org/2000/svg" width="135" height="60" viewBox="0 0 135 60"><defs><style>.a{fill:none;}.b{fill:#fff;fill-rule:evenodd;}</style></defs><g transform="translate(2 23)"><path class="a" d="M0,0H135V60H0Z" transform="translate(-2 -23)"/><path class="b" d="M20.435,12.514l2.34-2.294h3.08l-3.177,2.937,3.378,3.418H22.9l-2.461-2.587v2.587H18.181V6.3h2.254Z" transform="translate(70.77 -6.297)"/><path class="b" d="M19.081,7.976H19.1a2.2,2.2,0,0,1,2.03-1.032c1.709,0,2.392,1.084,2.392,2.638v3.929H21.272v-3.1c0-.608.1-1.669-1.015-1.669-.918,0-1.176.683-1.176,1.474v3.292H16.827V7.156h2.254v.82Z" transform="translate(64.359 -3.233)"/><path class="b" d="M22.762,7.156H20.507v.619a2.6,2.6,0,0,0-1.967-.832,3.241,3.241,0,0,0-3.183,3.384,3.261,3.261,0,0,0,3.206,3.39,2.229,2.229,0,0,0,1.921-.912h.023v.705h2.254V7.156ZM19.137,8.906a1.378,1.378,0,0,1,1.445,1.434,1.448,1.448,0,0,1-2.9,0A1.38,1.38,0,0,1,19.137,8.906Z" transform="translate(57.398 -3.233)"/><path class="b" d="M17.761,15.8c1.7,0,3.378-.648,3.378-2.6a2.1,2.1,0,0,0-1.9-2.374V10.8a1.947,1.947,0,0,0,1.027-1.91c0-1.778-1.113-2.426-2.776-2.426H14.021V15.8ZM16.441,8.319h.178c.66,0,1.411.052,1.411.9,0,.8-.665.906-1.313.906h-.275Zm0,3.613h.252c.791,0,2-.109,2,1.015,0,1.032-1.216.992-1.933.992h-.315V11.933Z" transform="translate(51.071 -5.52)"/><path class="b" d="M19.165,10.476A3.213,3.213,0,0,0,15.7,6.96a3.221,3.221,0,0,0-3.5,3.367c0,2.191,1.566,3.367,3.665,3.367a3.079,3.079,0,0,0,3.218-2.162H16.922a1.137,1.137,0,0,1-1.073.579,1.26,1.26,0,0,1-1.405-1.405h4.72Zm-4.7-.969A1.263,1.263,0,0,1,15.8,8.52a1.278,1.278,0,0,1,1.273.987Z" transform="translate(42.457 -3.157)"/><path class="b" d="M16.462,7.355a4.958,4.958,0,0,0-2.076-.413c-1.388,0-2.793.694-2.793,2.248A1.594,1.594,0,0,0,13,10.854c.711.184,1.4.2,1.4.694,0,.35-.407.482-.688.482a3.658,3.658,0,0,1-1.784-.631l-.809,1.554a4.853,4.853,0,0,0,2.558.746c1.468,0,2.971-.694,2.971-2.363,0-1.176-.774-1.669-1.835-1.881-.31-.052-1-.115-1-.545,0-.333.447-.43.694-.43a2.822,2.822,0,0,1,1.222.3l.74-1.422h0Z" transform="translate(37.319 -3.243)"/><path class="b" d="M11.84,6.338a1.266,1.266,0,0,0-1.256,1.268h0A1.256,1.256,0,1,0,11.84,6.338Z" transform="translate(34.795 -6.103)"/><path class="b" d="M10.607,13.308H12.85V6.982H10.607Z" transform="translate(34.904 -3.053)"/><path class="b" d="M12.97,6.942c-2.03,0-3.814,1.222-3.814,3.384,0,2.145,1.784,3.372,3.814,3.372s3.814-1.227,3.814-3.372C16.784,8.164,15,6.942,12.97,6.942Zm0,1.95a1.38,1.38,0,0,1,1.44,1.434,1.349,1.349,0,0,1-1.44,1.405,1.358,1.358,0,0,1-1.451-1.405A1.39,1.39,0,0,1,12.97,8.892Z" transform="translate(28.033 -3.243)"/><path class="b" d="M8.638,16.538h2.248V6.3H8.638Z" transform="translate(25.58 -6.283)"/><path class="b" d="M14.552,7.157H12.3v.614a2.575,2.575,0,0,0-1.962-.826A3.22,3.22,0,0,0,7.17,10.312a3.243,3.243,0,0,0,3.189,3.372,2.225,2.225,0,0,0,1.916-.912H12.3v.711h2.248ZM10.938,8.9a1.366,1.366,0,0,1,1.434,1.434,1.344,1.344,0,0,1-1.434,1.405,1.348,1.348,0,0,1-1.457-1.405A1.372,1.372,0,0,1,10.938,8.9Z" transform="translate(18.628 -3.228)"/><path class="b" d="M9.56,15.778c1.7,0,3.372-.642,3.372-2.592a2.108,2.108,0,0,0-1.9-2.38v-.011a1.95,1.95,0,0,0,1.021-1.9c0-1.789-1.107-2.432-2.776-2.432H5.832v9.314Zm-1.3-7.462h.166c.66,0,1.4.052,1.4.906,0,.791-.66.889-1.3.889H8.258v-1.8Zm0,3.6H8.5c.774,0,1.979-.1,1.979,1.027,0,1.021-1.2.975-1.927.975h-.3Z" transform="translate(12.292 -5.506)"/><path class="b" d="M12.422,14.571l-2.357,2.363L7,13.86l3.068-3.086,5.2,5.219h4.554V13.057H16.7L10.065,6.415,2.672,13.8l7.393,7.4L14.556,16.7Z" transform="translate(-2.672 -5.738)"/><path class="b" d="M25.525,9.068a2.55,2.55,0,0,0-1.612-.619c-.442,0-1.038.258-1.038.78,0,.545.654.757,1.078.889l.619.189c1.3.384,2.3,1.038,2.3,2.552a3.175,3.175,0,0,1-.964,2.512,4.1,4.1,0,0,1-2.65.878,5.741,5.741,0,0,1-3.281-1.067l1.038-1.956a3.331,3.331,0,0,0,2.157.969c.568,0,1.176-.287,1.176-.946,0-.677-.952-.912-1.474-1.061-1.526-.436-2.529-.832-2.529-2.638a3.026,3.026,0,0,1,3.223-3.132,6.367,6.367,0,0,1,2.919.769l-.964,1.881h0ZM31.261,11.4a1.378,1.378,0,0,1,1.445,1.434,1.448,1.448,0,0,1-2.9,0A1.38,1.38,0,0,1,31.261,11.4Zm0-1.962c-2.042,0-3.826,1.227-3.826,3.4s1.8,3.378,3.826,3.378,3.826-1.222,3.826-3.378S33.3,9.435,31.261,9.435Zm7.169,2.7h.247c.791,0,2-.109,2,1.015,0,1.032-1.216.992-1.939.992h-.3V12.136ZM39.743,16c1.7,0,3.378-.648,3.378-2.6a2.1,2.1,0,0,0-1.91-2.374V11a1.942,1.942,0,0,0,1.032-1.91c0-1.778-1.113-2.426-2.776-2.426H36V16h3.745ZM38.43,8.523H38.6c.654,0,1.411.052,1.411.9,0,.8-.671.906-1.313.906h-.275V8.523ZM47.481,11.4a1.378,1.378,0,0,1,1.445,1.434,1.448,1.448,0,0,1-2.9,0A1.38,1.38,0,0,1,47.481,11.4Zm3.625-1.749H48.851v.619a2.6,2.6,0,0,0-1.967-.832,3.236,3.236,0,0,0-3.177,3.384,3.256,3.256,0,0,0,3.2,3.39,2.229,2.229,0,0,0,1.921-.912h.023V16h2.254V9.647Z" transform="translate(79.285 -5.724)"/></g></svg>