<svg xmlns="http://www.w3.org/2000/svg" width="135" height="60" viewBox="0 0 135 60"><defs><style>.a{fill:#fff;}.b{fill:none;}</style></defs><g transform="translate(5.908 21.286)"><path class="a" d="M78.458,13.107c0-1.141-.293-1.984-1.451-1.984a11.681,11.681,0,0,0-1.336.08v5.076a8.711,8.711,0,0,0,1.336.1c1.159,0,1.451-.843,1.451-2Zm-1.451,5.437a15.169,15.169,0,0,1-3.464-.424c-.442-.1-.5-.212-.5-.47V6.236a.341.341,0,0,1,.338-.327h1.973a.326.326,0,0,1,.321.327V9.052a11.889,11.889,0,0,1,1.336-.115c2.753,0,4.089,1.612,4.089,4.17v1.268c0,2.638-1.451,4.17-4.089,4.17Z" transform="translate(-73.038 -2.984)"/><path class="a" d="M80.1,8.7a8.863,8.863,0,0,0-1.331-.086c-1.159,0-1.468.832-1.468,1.99v1.268c0,1.159.31,2,1.468,2a8.628,8.628,0,0,0,1.331-.1Zm2.116,6.917a15.012,15.012,0,0,1-3.447.424c-2.638,0-4.089-1.531-4.089-4.17V10.607c0-2.638,1.451-4.17,4.089-4.17a15.011,15.011,0,0,1,3.447.424c.442.1.5.212.5.47v7.817C82.721,15.407,82.658,15.522,82.216,15.619Z" transform="translate(-65.262 -0.484)"/><path class="a" d="M84.106,15.895h-2a.341.341,0,0,1-.327-.338V9.827c0-.717-.115-1.222-.958-1.222h-.814c-.849,0-.964.5-.964,1.222v5.73a.336.336,0,0,1-.321.338h-2a.322.322,0,0,1-.31-.338V9.827c0-2.248,1.25-3.39,3.6-3.39h.814c2.346,0,3.6,1.141,3.6,3.39v5.73A.326.326,0,0,1,84.106,15.895Z" transform="translate(-57.075 -0.484)"/><path class="a" d="M86.173,9.413l-3.028,4.118,3.011,4.525a.181.181,0,0,1,.029.126.2.2,0,0,1-.206.212H83.518a.4.4,0,0,1-.407-.229l-2.346-3.82v3.711a.336.336,0,0,1-.321.338H78.47a.351.351,0,0,1-.338-.338V6.236a.341.341,0,0,1,.338-.327h1.973a.326.326,0,0,1,.321.327v6.8L83.242,9.31a.485.485,0,0,1,.424-.241H85.99c.149,0,.247.08.247.178a.288.288,0,0,1-.063.166Z" transform="translate(-48.916 -2.984)"/><path class="a" d="M87.149,15.786h-6.1a.556.556,0,0,1-.556-.533V14.209a.958.958,0,0,1,.229-.619l3.533-4.818a.249.249,0,0,0,.046-.115c0-.046-.046-.08-.115-.08H80.914a.253.253,0,0,1-.275-.264V6.787a.322.322,0,0,1,.321-.327H86.9a.556.556,0,0,1,.539.551v1.2a.987.987,0,0,1-.178.574l-3.372,4.606a.249.249,0,0,0-.046.115c0,.029.046.063.115.063h3.223a.267.267,0,0,1,.293.264v1.623a.327.327,0,0,1-.327.327Z" transform="translate(-37.749 -0.375)"/><path class="a" d="M90.79,15.935a4.834,4.834,0,0,1-2.524-.556,4.834,4.834,0,0,1-2.524.556c-2.03,0-3.774-1.078-3.774-4.1V6.787a.338.338,0,0,1,.344-.327h1.95a.327.327,0,0,1,.327.327v5.047c0,1.514.585,1.755,1.434,1.755a2.836,2.836,0,0,0,.923-.115V6.8a.342.342,0,0,1,.327-.344h2A.338.338,0,0,1,89.6,6.8l-.017,6.67a2.85,2.85,0,0,0,.929.115c.849,0,1.434-.241,1.434-1.755V6.787a.323.323,0,0,1,.327-.327h1.95a.342.342,0,0,1,.344.327v5.047c0,3.023-1.744,4.1-3.78,4.1Z" transform="translate(-30.746 -0.375)"/><path class="a" d="M90.011,10.36c0-1.2-.551-1.807-1.463-1.807-.895,0-1.5.619-1.5,1.807v.069h2.96Zm2.231,1.7H87.052v.029a1.552,1.552,0,0,0,1.675,1.772c1.027,0,2.472-.08,3.126-.143H91.9c.178,0,.3.08.3.258v1.239c0,.258-.063.373-.338.442a12.55,12.55,0,0,1-3.338.39,3.814,3.814,0,0,1-4.084-4.187V10.721c0-2.621,1.531-4.284,4.118-4.284,2.667,0,4.021,1.824,4.021,4.284v.941c0,.247-.132.4-.344.4Z" transform="translate(-19.006 -0.484)"/><path class="a" d="M88.521,18.447H86.536a.327.327,0,0,1-.327-.327V9.448a.327.327,0,0,1,.327-.327h1.984a.323.323,0,0,1,.327.327V18.12A.323.323,0,0,1,88.521,18.447ZM88.589,8.06H86.473a.322.322,0,0,1-.327-.321V6.225a.323.323,0,0,1,.327-.327h2.116a.322.322,0,0,1,.321.327V7.739A.321.321,0,0,1,88.589,8.06Z" transform="translate(-10.965 -3.036)"/><path class="a" d="M92.377,10.607c0-1.159-.293-1.984-1.445-1.984A9.017,9.017,0,0,0,89.6,8.7v5.076a11.541,11.541,0,0,0,1.336.1c1.153,0,1.445-.86,1.445-2Zm-1.445,5.437a11.779,11.779,0,0,1-1.336-.115v2.816a.331.331,0,0,1-.327.327H87.3a.346.346,0,0,1-.344-.327V7.332c0-.258.069-.373.5-.47a15.222,15.222,0,0,1,3.47-.424c2.638,0,4.084,1.531,4.084,4.17v1.268C95.015,14.432,93.685,16.044,90.932,16.044Z" transform="translate(-7.125 -0.484)"/><path class="a" d="M90.979,18.4h-1.99a.351.351,0,0,1-.338-.338V6.236a.341.341,0,0,1,.338-.327h1.99a.311.311,0,0,1,.3.327V18.057A.322.322,0,0,1,90.979,18.4Z" transform="translate(0.892 -2.984)"/><path class="a" d="M93.55,15.935h-.229c-1.027,0-3.889-.31-3.889-4.135v-5a.323.323,0,0,1,.3-.344h2a.338.338,0,0,1,.327.344v5c0,1.549.488,1.9,1.256,1.9h.229c.763,0,1.25-.356,1.25-1.9v-5a.338.338,0,0,1,.327-.344h2a.328.328,0,0,1,.31.344v5C97.439,15.625,94.571,15.935,93.55,15.935Z" transform="translate(4.595 -0.375)"/><path class="a" d="M94.424,16.044a12.68,12.68,0,0,1-2.965-.361.36.36,0,0,1-.3-.373V13.991a.3.3,0,0,1,.3-.31h.069c.878.115,2.243.229,2.765.229.78,0,.958-.212.958-.637,0-.241-.143-.419-.6-.683L92.537,11.37a2.687,2.687,0,0,1-1.451-2.409c0-1.646,1.09-2.524,3.338-2.524a10.746,10.746,0,0,1,2.9.373.375.375,0,0,1,.31.379V8.508a.275.275,0,0,1-.275.31h-.046A25.276,25.276,0,0,0,94.6,8.605c-.637,0-.86.1-.86.47,0,.247.178.373.5.568L96.265,10.8a2.7,2.7,0,0,1,1.64,2.506C97.905,14.839,96.8,16.044,94.424,16.044Z" transform="translate(12.428 -0.484)"/><path class="a" d="M93.113,7.1V12.2c0,.3.138.539.43.539h2.42c.3,0,.43-.241.43-.539V7.1H93.113Z" transform="translate(22.027 2.675)"/><path class="a" d="M93.764,9.746h5.093c.3,0,.539-.138.539-.43V6.9c0-.3-.241-.436-.539-.436H93.764Z" transform="translate(25.109 -0.375)"/><path class="a" d="M96.394,11.031V5.944c0-.293-.126-.533-.413-.545H93.526c-.281.011-.413.252-.413.545v5.087Z" transform="translate(22.027 -5.399)"/><rect class="b" width="135" height="60" transform="translate(-5.908 -21.286)"/></g></svg>