<svg xmlns="http://www.w3.org/2000/svg" xmlns:xlink="http://www.w3.org/1999/xlink" width="50.669" height="75.172" viewBox="0 0 50.669 75.172"><defs><style>.a{fill:url(#a);}</style><linearGradient id="a" x1="0.5" x2="0.5" y2="1" gradientUnits="objectBoundingBox"><stop offset="0" stop-color="#1b4d70"/><stop offset="0.496" stop-color="#1b4d70"/><stop offset="1" stop-color="#1b8ebd"/></linearGradient></defs><g transform="translate(-83.447)"><g transform="translate(83.447)"><path class="a" d="M133.015,60.908a1.1,1.1,0,0,0-1.1,1.1V72.362a.609.609,0,0,1-.608.608h-5.919V51.285a1.1,1.1,0,0,0-2.2,0V72.97h-11.92l3.457-3.8a1.974,1.974,0,0,0,.476-1.584c0-.011,0-.022-.005-.033L111.9,48.1l.887-1.335a2.5,2.5,0,0,0,1.577.684,1.928,1.928,0,0,0,1.726-1.067h0l3.472-6.959,7.91,3.063a7.63,7.63,0,0,1,4.442,6.936V56.87a1.1,1.1,0,0,0,2.2,0V49.422a9.828,9.828,0,0,0-5.812-8.975l-.021-.008-13.165-5.1V32.252a10.318,10.318,0,0,0,3.9-6.787,4.767,4.767,0,0,0,2.8-1.142,4.675,4.675,0,0,0,.488-6.6V13.647a13.647,13.647,0,1,0-27.295,0v4.186a4.421,4.421,0,0,0-1.135,2.947A4.666,4.666,0,0,0,95.5,24.323a4.764,4.764,0,0,0,2.8,1.142,10.209,10.209,0,0,0,4.128,6.95V35.34l-13.151,5.1-.021.008a9.827,9.827,0,0,0-5.812,8.975v22.94a2.814,2.814,0,0,0,2.81,2.81H96.749a1.1,1.1,0,0,0,0-2.2H94.38V51.285a1.1,1.1,0,0,0-2.2,0V72.97h-5.92a.609.609,0,0,1-.608-.608V49.422a7.63,7.63,0,0,1,4.44-6.935l7.9-3.064,3.473,6.96a1.928,1.928,0,0,0,1.726,1.067,2.5,2.5,0,0,0,1.577-.684l.887,1.335L102.364,67.55c0,.011,0,.022-.005.033a1.974,1.974,0,0,0,.476,1.584l3.457,3.8h-4.4a1.1,1.1,0,1,0,0,2.2h29.418a2.814,2.814,0,0,0,2.81-2.81V62.009A1.1,1.1,0,0,0,133.015,60.908ZM117.5,38.624l-3.237,6.488-3.893-2.765,4-4.936ZM110.99,45.49l-.84,1.264H107.4l-.84-1.264,2.213-1.571ZM104.633,35.7V33.634a11.173,11.173,0,0,0,4.164.789,10.338,10.338,0,0,0,4.119-.858V35.7l-4.138,5.107Zm16.611-14.914a2.467,2.467,0,0,1-.857,1.872,2.565,2.565,0,0,1-1.272.585V18.324A2.491,2.491,0,0,1,121.244,20.781ZM98.211,23.239a2.488,2.488,0,0,1-2.129-2.458,2.615,2.615,0,0,1,2.129-2.4Zm.059-7.1a5.445,5.445,0,0,0-1.052.237V13.647a11.445,11.445,0,1,1,22.89,0V16.3a4.9,4.9,0,0,0-.993-.192c0-1.063.009-.858-3.467-4.595a1.959,1.959,0,0,0-2.5-.3,21.23,21.23,0,0,1-12.834,3.455A1.958,1.958,0,0,0,98.27,16.135Zm2.143,7.971V16.874a23.532,23.532,0,0,0,13.763-3.712c1.594,1.712,2.458,2.609,2.736,2.951v7.993a8.25,8.25,0,0,1-16.5,0Zm2.88,21.006-3.237-6.488,3.126-1.211,4,4.937Zm1.263,22.675,3.187-18.832h2.066L113,67.788l-4.22,4.643Z" transform="translate(-83.447)"/></g></g></svg>