<svg xmlns="http://www.w3.org/2000/svg" xmlns:xlink="http://www.w3.org/1999/xlink" width="120.387" height="72.962" viewBox="0 0 120.387 72.962"><defs><style>.a{fill-rule:evenodd;fill:url(#a);}</style><linearGradient id="a" x1="0.5" x2="0.5" y2="1" gradientUnits="objectBoundingBox"><stop offset="0" stop-color="#1b4d70"/><stop offset="0.496" stop-color="#1b4d70"/><stop offset="1" stop-color="#1b8ebd"/></linearGradient></defs><g transform="translate(-18.75 -967.066)"><path class="a" d="M86.167,967.066a1.167,1.167,0,1,0,0,2.335,1.167,1.167,0,1,0,0-2.335Zm4.67,0a1.167,1.167,0,1,0,0,2.335,1.167,1.167,0,1,0,0-2.335Zm4.67,0a1.255,1.255,0,0,0-1.167,1.167,1.167,1.167,0,1,0,1.167-1.167Zm-32.979,4.67A1.074,1.074,0,0,0,61.36,972.9a1.151,1.151,0,0,0,1.167,1.167,1.167,1.167,0,1,0,0-2.335Zm14.155,0a1.167,1.167,0,1,0,0,2.335,1.167,1.167,0,1,0,0-2.335Zm4.815,0A1.074,1.074,0,0,0,80.33,972.9,1.151,1.151,0,0,0,81.5,974.07a1.074,1.074,0,0,0,1.167-1.167,1.151,1.151,0,0,0-1.167-1.167Zm4.67,0A1.074,1.074,0,0,0,85,972.9a1.167,1.167,0,1,0,1.167-1.167Zm4.67,0a1.074,1.074,0,0,0-1.167,1.167,1.167,1.167,0,1,0,1.167-1.167Zm4.67,0a1.167,1.167,0,1,0,0,2.335,1.167,1.167,0,1,0,0-2.335Zm4.815,0a1.167,1.167,0,1,0,1.167,1.167,1.151,1.151,0,0,0-1.167-1.167Zm4.67,0a1.074,1.074,0,0,0-1.167,1.167,1.167,1.167,0,1,0,1.167-1.167Zm4.67,0a1.167,1.167,0,1,0,0,2.335,1.175,1.175,0,1,0,0-2.335Zm-51.8,4.67a1.255,1.255,0,0,0-1.167,1.167,1.151,1.151,0,0,0,1.167,1.167,1.074,1.074,0,0,0,1.167-1.167,1.151,1.151,0,0,0-1.167-1.167Zm-9.485.146a1.167,1.167,0,1,0,0,2.335,1.167,1.167,0,1,0,0-2.335Zm4.67,0a1.151,1.151,0,0,0-1.167,1.167,1.255,1.255,0,0,0,1.167,1.167,1.151,1.151,0,0,0,1.167-1.167,1.074,1.074,0,0,0-1.167-1.167Zm61.288,0a1.167,1.167,0,1,0,1.167,1.167,1.074,1.074,0,0,0-1.167-1.167Zm-51.8,0a1.074,1.074,0,0,0-1.167,1.167,1.151,1.151,0,0,0,1.167,1.167,1.167,1.167,0,1,0,0-2.335Zm4.67,0a1.167,1.167,0,1,0,1.167,1.167,1.074,1.074,0,0,0-1.167-1.167Zm4.815,0a1.074,1.074,0,0,0-1.167,1.167,1.167,1.167,0,1,0,1.167-1.167Zm4.67,0a1.167,1.167,0,1,0,0,2.335,1.167,1.167,0,1,0,0-2.335Zm4.815,0a1.074,1.074,0,0,0-1.167,1.167,1.151,1.151,0,0,0,1.167,1.167,1.074,1.074,0,0,0,1.167-1.167,1.151,1.151,0,0,0-1.167-1.167Zm4.67,0A1.074,1.074,0,0,0,85,977.718a1.167,1.167,0,1,0,1.167-1.167Zm4.67,0a1.074,1.074,0,0,0-1.167,1.167,1.167,1.167,0,1,0,1.167-1.167Zm4.67,0a1.167,1.167,0,1,0,0,2.335,1.167,1.167,0,1,0,0-2.335Zm4.815,0a1.167,1.167,0,1,0,1.167,1.167,1.151,1.151,0,0,0-1.167-1.167Zm4.67,0a1.074,1.074,0,0,0-1.167,1.167,1.167,1.167,0,1,0,1.167-1.167Zm4.67,0a1.167,1.167,0,1,0,0,2.335,1.175,1.175,0,1,0,0-2.335Zm-51.8,4.524a1.167,1.167,0,1,0,1.167,1.167,1.255,1.255,0,0,0-1.167-1.167Zm56.472,0a1.167,1.167,0,0,0,0,2.335,1.167,1.167,0,0,0,0-2.335ZM43.7,981.22a1.167,1.167,0,0,0,0,2.335,1.151,1.151,0,0,0,1.167-1.167A1.255,1.255,0,0,0,43.7,981.22Zm4.67,0a1.167,1.167,0,0,0,0,2.335,1.167,1.167,0,0,0,0-2.335Zm4.67,0a1.074,1.074,0,0,0-1.167,1.167,1.151,1.151,0,0,0,1.167,1.167,1.255,1.255,0,0,0,1.167-1.167,1.151,1.151,0,0,0-1.167-1.167Zm9.485,0a1.074,1.074,0,0,0-1.167,1.167,1.167,1.167,0,1,0,1.167-1.167Zm4.67,0a1.167,1.167,0,0,0,0,2.335,1.167,1.167,0,0,0,0-2.335Zm4.815,0a1.074,1.074,0,0,0-1.167,1.167,1.151,1.151,0,0,0,1.167,1.167,1.167,1.167,0,0,0,0-2.335Zm4.67,0a1.167,1.167,0,1,0,1.167,1.167,1.151,1.151,0,0,0-1.167-1.167Zm4.815,0a1.074,1.074,0,0,0-1.167,1.167,1.167,1.167,0,0,0,2.335,0A1.255,1.255,0,0,0,81.5,981.22Zm4.67,0A1.074,1.074,0,0,0,85,982.388a1.151,1.151,0,0,0,1.167,1.167,1.167,1.167,0,0,0,0-2.335Zm4.67,0a1.074,1.074,0,0,0-1.167,1.167,1.151,1.151,0,0,0,1.167,1.167,1.167,1.167,0,0,0,0-2.335Zm4.67,0a1.167,1.167,0,1,0,1.167,1.167,1.151,1.151,0,0,0-1.167-1.167Zm4.815,0a1.167,1.167,0,0,0,0,2.335,1.151,1.151,0,0,0,1.167-1.167,1.255,1.255,0,0,0-1.167-1.167Zm4.67,0a1.074,1.074,0,0,0-1.167,1.167,1.151,1.151,0,0,0,1.167,1.167,1.167,1.167,0,0,0,0-2.335Zm4.67,0a1.167,1.167,0,0,0,0,2.335,1.176,1.176,0,1,0,0-2.335Zm-51.8,4.67a1.167,1.167,0,1,0,0,2.335,1.167,1.167,0,1,0,0-2.335Zm56.472,0a1.167,1.167,0,1,0,1.167,1.167c.146-.584-.438-1.167-1.167-1.167Zm-70.627,0a1.167,1.167,0,1,0,1.167,1.167A1.255,1.255,0,0,0,43.7,985.89Zm4.67,0a1.167,1.167,0,1,0,1.167,1.167,1.151,1.151,0,0,0-1.167-1.167Zm4.67,0a1.151,1.151,0,0,0-1.167,1.167,1.167,1.167,0,0,0,2.335,0,1.151,1.151,0,0,0-1.167-1.167Zm9.485,0a1.167,1.167,0,1,0,1.167,1.167,1.151,1.151,0,0,0-1.167-1.167Zm4.67,0a1.151,1.151,0,0,0-1.167,1.167,1.074,1.074,0,0,0,1.167,1.167,1.167,1.167,0,1,0,0-2.335Zm4.815,0a1.167,1.167,0,1,0,0,2.335,1.167,1.167,0,1,0,0-2.335Zm4.67,0a1.255,1.255,0,0,0-1.167,1.167,1.167,1.167,0,1,0,1.167-1.167Zm4.815,0a1.167,1.167,0,1,0,1.167,1.167A1.255,1.255,0,0,0,81.5,985.89Zm4.67,0a1.167,1.167,0,1,0,0,2.335,1.167,1.167,0,1,0,0-2.335Zm4.67,0a1.167,1.167,0,1,0,0,2.335,1.167,1.167,0,1,0,0-2.335Zm4.67,0a1.255,1.255,0,0,0-1.167,1.167,1.167,1.167,0,1,0,1.167-1.167Zm4.815,0a1.151,1.151,0,0,0-1.167,1.167,1.074,1.074,0,0,0,1.167,1.167,1.151,1.151,0,0,0,1.167-1.167,1.255,1.255,0,0,0-1.167-1.167Zm4.67,0a1.167,1.167,0,1,0,0,2.335,1.167,1.167,0,1,0,0-2.335Zm4.67,0a1.255,1.255,0,0,0-1.167,1.167,1.151,1.151,0,0,0,1.167,1.167,1.175,1.175,0,1,0,0-2.335Zm-51.8,4.67a1.255,1.255,0,0,0-1.167,1.167,1.287,1.287,0,0,0,1.167,1.313,1.192,1.192,0,0,0,1.167-1.313,1.255,1.255,0,0,0-1.167-1.167Zm-14.155,0a1.151,1.151,0,0,0-1.167,1.167,1.074,1.074,0,0,0,1.167,1.167,1.151,1.151,0,0,0,1.167-1.167A1.255,1.255,0,0,0,43.7,990.56Zm4.67,0a1.151,1.151,0,0,0-1.167,1.167,1.074,1.074,0,0,0,1.167,1.167,1.167,1.167,0,1,0,0-2.335Zm4.67,0a1.167,1.167,0,1,0,0,2.335,1.255,1.255,0,0,0,1.167-1.167,1.151,1.151,0,0,0-1.167-1.167Zm9.485,0a1.167,1.167,0,1,0,0,2.335,1.074,1.074,0,0,0,1.167-1.167,1.151,1.151,0,0,0-1.167-1.167Zm4.67,0a1.151,1.151,0,0,0-1.167,1.167,1.167,1.167,0,0,0,2.335,0A1.151,1.151,0,0,0,67.2,990.56Zm4.815,0a1.167,1.167,0,1,0,1.167,1.167,1.255,1.255,0,0,0-1.167-1.167Zm4.67,0a1.255,1.255,0,0,0-1.167,1.167,1.151,1.151,0,0,0,1.167,1.167,1.074,1.074,0,0,0,1.167-1.167,1.151,1.151,0,0,0-1.167-1.167Zm4.815,0a1.167,1.167,0,1,0,0,2.335,1.074,1.074,0,0,0,1.167-1.167A1.255,1.255,0,0,0,81.5,990.56Zm4.67,0a1.167,1.167,0,1,0,1.167,1.167,1.255,1.255,0,0,0-1.167-1.167Zm4.67,0A1.167,1.167,0,1,0,92,991.727a1.255,1.255,0,0,0-1.167-1.167Zm4.67,0a1.255,1.255,0,0,0-1.167,1.167,1.151,1.151,0,0,0,1.167,1.167,1.074,1.074,0,0,0,1.167-1.167,1.151,1.151,0,0,0-1.167-1.167Zm4.815,0a1.151,1.151,0,0,0-1.167,1.167,1.167,1.167,0,0,0,2.335,0,1.255,1.255,0,0,0-1.167-1.167Zm4.67,0a1.167,1.167,0,1,0,1.167,1.167,1.255,1.255,0,0,0-1.167-1.167Zm4.67,0a1.255,1.255,0,0,0-1.167,1.167,1.151,1.151,0,0,0,1.167,1.167,1.192,1.192,0,0,0,1.313-1.167,1.286,1.286,0,0,0-1.313-1.167Zm23.64,4.67a1.151,1.151,0,0,0-1.167,1.167,1.255,1.255,0,0,0,1.167,1.167,1.151,1.151,0,0,0,1.167-1.167,1.074,1.074,0,0,0-1.167-1.167Zm-75.442,0A1.151,1.151,0,0,0,56.69,996.4a1.192,1.192,0,0,0,1.167,1.313,1.151,1.151,0,0,0,1.167-1.167,1.4,1.4,0,0,0-1.167-1.313Zm-23.64.146a1.151,1.151,0,0,0-1.167,1.167,1.255,1.255,0,0,0,1.167,1.167,1.151,1.151,0,0,0,1.167-1.167,1.074,1.074,0,0,0-1.167-1.167Zm4.67,0a1.167,1.167,0,1,0,0,2.335,1.167,1.167,0,1,0,0-2.335Zm4.815,0a1.167,1.167,0,1,0,0,2.335,1.074,1.074,0,0,0,1.167-1.167,1.151,1.151,0,0,0-1.167-1.167Zm4.67,0a1.151,1.151,0,0,0-1.167,1.167,1.255,1.255,0,0,0,1.167,1.167,1.167,1.167,0,1,0,0-2.335Zm4.67,0a1.151,1.151,0,0,0-1.167,1.167,1.255,1.255,0,0,0,1.167,1.167,1.151,1.151,0,0,0,1.167-1.167,1.074,1.074,0,0,0-1.167-1.167Zm9.485,0a1.151,1.151,0,0,0-1.167,1.167,1.255,1.255,0,0,0,1.167,1.167,1.167,1.167,0,1,0,0-2.335Zm4.67,0a1.167,1.167,0,1,0,0,2.335,1.167,1.167,0,1,0,0-2.335Zm4.815,0a1.151,1.151,0,0,0-1.167,1.167,1.255,1.255,0,0,0,1.167,1.167,1.167,1.167,0,1,0,0-2.335Zm4.67,0a1.167,1.167,0,1,0,0,2.335,1.167,1.167,0,1,0,0-2.335Zm4.815,0a1.151,1.151,0,0,0-1.167,1.167A1.255,1.255,0,0,0,81.5,997.71a1.074,1.074,0,0,0,1.167-1.167,1.151,1.151,0,0,0-1.167-1.167Zm4.67,0A1.151,1.151,0,0,0,85,996.542a1.255,1.255,0,0,0,1.167,1.167,1.167,1.167,0,1,0,0-2.335Zm4.67,0a1.151,1.151,0,0,0-1.167,1.167,1.255,1.255,0,0,0,1.167,1.167,1.167,1.167,0,1,0,0-2.335Zm4.67,0a1.167,1.167,0,1,0,0,2.335,1.167,1.167,0,1,0,0-2.335Zm4.815,0a1.167,1.167,0,1,0,0,2.335,1.074,1.074,0,0,0,1.167-1.167,1.151,1.151,0,0,0-1.167-1.167Zm4.67,0a1.151,1.151,0,0,0-1.167,1.167,1.255,1.255,0,0,0,1.167,1.167,1.167,1.167,0,1,0,0-2.335Zm4.67,0a1.167,1.167,0,1,0,0,2.335,1.175,1.175,0,1,0,0-2.335Zm4.67,0a1.167,1.167,0,1,0,1.167,1.167,1.074,1.074,0,0,0-1.167-1.167Zm4.815,0a1.167,1.167,0,1,0,1.167,1.167,1.151,1.151,0,0,0-1.167-1.167ZM57.857,999.9a1.167,1.167,0,1,0,0,2.335,1.074,1.074,0,0,0,1.167-1.167,1.151,1.151,0,0,0-1.167-1.167Zm75.442,0a1.074,1.074,0,0,0-1.167,1.167,1.167,1.167,0,0,0,2.335,0A1.074,1.074,0,0,0,133.3,999.9Zm-18.97.146a1.167,1.167,0,1,0,0,2.335,1.167,1.167,0,1,0,0-2.335Zm4.815,0a1.167,1.167,0,1,0,0,2.335,1.151,1.151,0,0,0,1.167-1.167,1.255,1.255,0,0,0-1.167-1.167Zm4.67,0a1.074,1.074,0,0,0-1.167,1.167,1.151,1.151,0,0,0,1.167,1.167,1.255,1.255,0,0,0,1.167-1.167,1.151,1.151,0,0,0-1.167-1.167Zm4.67,0a1.167,1.167,0,1,0,1.167,1.167,1.151,1.151,0,0,0-1.167-1.167Zm9.485,0a1.167,1.167,0,1,0,0,2.335,1.167,1.167,0,1,0,0-2.335Zm-103.751,0a1.074,1.074,0,0,0-1.167,1.167,1.167,1.167,0,0,0,2.335,0,1.074,1.074,0,0,0-1.167-1.167Zm4.67,0a1.151,1.151,0,0,0-1.167,1.167,1.255,1.255,0,0,0,1.167,1.167,1.151,1.151,0,0,0,1.167-1.167c.146-.73-.438-1.167-1.167-1.167Zm4.815,0a1.074,1.074,0,0,0-1.167,1.167,1.167,1.167,0,1,0,1.167-1.167Zm4.67,0a1.074,1.074,0,0,0-1.167,1.167,1.167,1.167,0,0,0,2.335,0,1.074,1.074,0,0,0-1.167-1.167Zm4.67,0a1.074,1.074,0,0,0-1.167,1.167,1.167,1.167,0,0,0,2.335,0,1.074,1.074,0,0,0-1.167-1.167Zm9.485,0a1.074,1.074,0,0,0-1.167,1.167,1.255,1.255,0,0,0,1.167,1.167,1.151,1.151,0,0,0,1.167-1.167,1.074,1.074,0,0,0-1.167-1.167Zm4.67,0a1.074,1.074,0,0,0-1.167,1.167,1.167,1.167,0,0,0,2.335,0,1.074,1.074,0,0,0-1.167-1.167Zm4.815,0a1.074,1.074,0,0,0-1.167,1.167,1.167,1.167,0,0,0,2.335,0,1.151,1.151,0,0,0-1.167-1.167Zm4.67,0a1.151,1.151,0,0,0-1.167,1.167,1.255,1.255,0,0,0,1.167,1.167,1.151,1.151,0,0,0,1.167-1.167,1.074,1.074,0,0,0-1.167-1.167Zm4.815,0a1.074,1.074,0,0,0-1.167,1.167,1.255,1.255,0,0,0,1.167,1.167,1.167,1.167,0,1,0,0-2.335Zm4.67,0A1.074,1.074,0,0,0,85,1001.212a1.167,1.167,0,0,0,2.335,0,1.151,1.151,0,0,0-1.167-1.167Zm4.67,0a1.074,1.074,0,0,0-1.167,1.167,1.167,1.167,0,0,0,2.335,0,1.151,1.151,0,0,0-1.167-1.167Zm4.67,0a1.151,1.151,0,0,0-1.167,1.167,1.255,1.255,0,0,0,1.167,1.167,1.151,1.151,0,0,0,1.167-1.167,1.074,1.074,0,0,0-1.167-1.167Zm4.815,0a1.074,1.074,0,0,0-1.167,1.167,1.167,1.167,0,1,0,1.167-1.167Zm4.67,0a1.074,1.074,0,0,0-1.167,1.167,1.167,1.167,0,0,0,2.335,0,1.151,1.151,0,0,0-1.167-1.167Zm4.67,0a1.151,1.151,0,0,0-1.167,1.167,1.255,1.255,0,0,0,1.167,1.167,1.287,1.287,0,0,0,1.313-1.167,1.192,1.192,0,0,0-1.313-1.167Zm23.64,4.67a1.151,1.151,0,0,0-1.167,1.167,1.167,1.167,0,0,0,2.335,0,1.074,1.074,0,0,0-1.167-1.167Zm-75.442,0a1.167,1.167,0,1,0,0,2.335,1.151,1.151,0,0,0,1.167-1.167,1.255,1.255,0,0,0-1.167-1.167Zm56.472,0a1.167,1.167,0,1,0,1.167,1.167c.146-.584-.438-1.167-1.167-1.167Zm4.815,0a1.167,1.167,0,1,0,1.167,1.167,1.255,1.255,0,0,0-1.167-1.167Zm4.67,0a1.151,1.151,0,0,0-1.167,1.167,1.167,1.167,0,0,0,2.335,0,1.151,1.151,0,0,0-1.167-1.167Zm4.67,0a1.167,1.167,0,1,0,0,2.335,1.151,1.151,0,0,0,1.167-1.167c.146-.584-.438-1.167-1.167-1.167Zm-98.936,0a1.151,1.151,0,0,0-1.167,1.167,1.074,1.074,0,0,0,1.167,1.167,1.151,1.151,0,0,0,1.167-1.167,1.255,1.255,0,0,0-1.167-1.167Zm4.67,0a1.167,1.167,0,1,0,0,2.335,1.255,1.255,0,0,0,1.167-1.167,1.151,1.151,0,0,0-1.167-1.167Zm4.67,0a1.255,1.255,0,0,0-1.167,1.167,1.167,1.167,0,0,0,2.335,0c.146-.584-.438-1.167-1.167-1.167Zm4.815,0a1.151,1.151,0,0,0-1.167,1.167,1.074,1.074,0,0,0,1.167,1.167,1.151,1.151,0,0,0,1.167-1.167,1.255,1.255,0,0,0-1.167-1.167Zm4.67,0a1.151,1.151,0,0,0-1.167,1.167,1.074,1.074,0,0,0,1.167,1.167,1.167,1.167,0,1,0,0-2.335Zm4.67,0a1.167,1.167,0,1,0,0,2.335,1.255,1.255,0,0,0,1.167-1.167,1.151,1.151,0,0,0-1.167-1.167Zm9.485,0a1.167,1.167,0,1,0,1.167,1.167,1.151,1.151,0,0,0-1.167-1.167Zm4.67,0a1.151,1.151,0,0,0-1.167,1.167,1.074,1.074,0,0,0,1.167,1.167,1.167,1.167,0,1,0,0-2.335Zm4.815,0a1.167,1.167,0,1,0,0,2.335,1.167,1.167,0,1,0,0-2.335Zm4.67,0a1.255,1.255,0,0,0-1.167,1.167,1.167,1.167,0,1,0,1.167-1.167Zm4.815,0a1.167,1.167,0,1,0,1.167,1.167,1.255,1.255,0,0,0-1.167-1.167Zm4.67,0a1.167,1.167,0,1,0,0,2.335,1.167,1.167,0,1,0,0-2.335Zm4.67,0a1.167,1.167,0,1,0,0,2.335,1.167,1.167,0,1,0,0-2.335Zm4.67,0a1.255,1.255,0,0,0-1.167,1.167,1.167,1.167,0,1,0,1.167-1.167Zm4.815,0a1.151,1.151,0,0,0-1.167,1.167,1.074,1.074,0,0,0,1.167,1.167,1.151,1.151,0,0,0,1.167-1.167,1.255,1.255,0,0,0-1.167-1.167Zm4.67,0a1.167,1.167,0,1,0,0,2.335,1.167,1.167,0,1,0,0-2.335Zm4.67,0a1.255,1.255,0,0,0-1.167,1.167,1.151,1.151,0,0,0,1.167,1.167,1.175,1.175,0,1,0,0-2.335Zm23.64,4.67a1.167,1.167,0,1,0,0,2.335,1.255,1.255,0,0,0,1.167-1.167,1.151,1.151,0,0,0-1.167-1.167Zm-75.442,0a1.255,1.255,0,0,0-1.167,1.167,1.151,1.151,0,0,0,1.167,1.167,1.074,1.074,0,0,0,1.167-1.167,1.255,1.255,0,0,0-1.167-1.167Zm56.472,0a1.151,1.151,0,0,0-1.167,1.167,1.074,1.074,0,0,0,1.167,1.167,1.151,1.151,0,0,0,1.167-1.167c.146-.584-.438-1.167-1.167-1.167Zm4.815,0a1.151,1.151,0,0,0-1.167,1.167,1.074,1.074,0,0,0,1.167,1.167,1.151,1.151,0,0,0,1.167-1.167,1.255,1.255,0,0,0-1.167-1.167Zm4.67,0a1.167,1.167,0,1,0,0,2.335,1.255,1.255,0,0,0,1.167-1.167,1.151,1.151,0,0,0-1.167-1.167Zm4.67,0a1.255,1.255,0,0,0-1.167,1.167,1.167,1.167,0,0,0,2.335,0c.146-.584-.438-1.167-1.167-1.167Zm9.485,0a1.167,1.167,0,1,0,0,2.335,1.167,1.167,0,1,0,0-2.335Zm-113.09.146a1.074,1.074,0,0,0-1.167,1.167,1.151,1.151,0,0,0,1.167,1.167,1.074,1.074,0,0,0,1.167-1.167,1.151,1.151,0,0,0-1.167-1.167Zm4.67,0a1.167,1.167,0,1,0,1.167,1.167,1.151,1.151,0,0,0-1.167-1.167Zm4.67,0a1.074,1.074,0,0,0-1.167,1.167,1.167,1.167,0,0,0,2.335,0,1.074,1.074,0,0,0-1.167-1.167Zm4.67,0a1.167,1.167,0,1,0,0,2.335,1.167,1.167,0,1,0,0-2.335Zm4.815,0a1.167,1.167,0,1,0,1.167,1.167,1.151,1.151,0,0,0-1.167-1.167Zm4.67,0a1.167,1.167,0,1,0,1.167,1.167,1.074,1.074,0,0,0-1.167-1.167Zm4.67,0a1.074,1.074,0,0,0-1.167,1.167,1.167,1.167,0,0,0,2.335,0,1.074,1.074,0,0,0-1.167-1.167Zm9.485,0a1.074,1.074,0,0,0-1.167,1.167,1.167,1.167,0,1,0,1.167-1.167Zm4.67,0a1.167,1.167,0,1,0,0,2.335,1.167,1.167,0,1,0,0-2.335Zm4.815,0a1.074,1.074,0,0,0-1.167,1.167,1.151,1.151,0,0,0,1.167,1.167,1.167,1.167,0,1,0,0-2.335Zm4.67,0a1.167,1.167,0,1,0,1.167,1.167,1.151,1.151,0,0,0-1.167-1.167Zm4.815,0a1.074,1.074,0,0,0-1.167,1.167,1.167,1.167,0,0,0,2.335,0,1.255,1.255,0,0,0-1.167-1.167Zm4.67,0A1.074,1.074,0,0,0,85,1010.7a1.151,1.151,0,0,0,1.167,1.167,1.167,1.167,0,1,0,0-2.335Zm4.67,0a1.074,1.074,0,0,0-1.167,1.167,1.151,1.151,0,0,0,1.167,1.167,1.167,1.167,0,1,0,0-2.335Zm4.67,0a1.167,1.167,0,1,0,1.167,1.167,1.151,1.151,0,0,0-1.167-1.167Zm4.815,0a1.167,1.167,0,1,0,0,2.335,1.151,1.151,0,0,0,1.167-1.167,1.255,1.255,0,0,0-1.167-1.167Zm4.67,0a1.074,1.074,0,0,0-1.167,1.167,1.151,1.151,0,0,0,1.167,1.167,1.167,1.167,0,1,0,0-2.335Zm4.67,0a1.167,1.167,0,1,0,0,2.335,1.175,1.175,0,1,0,0-2.335Zm23.64,4.67a1.074,1.074,0,0,0-1.167,1.167,1.151,1.151,0,0,0,1.167,1.167,1.255,1.255,0,0,0,1.167-1.167,1.151,1.151,0,0,0-1.167-1.167Zm-75.442,0a1.167,1.167,0,1,0,0,2.335,1.074,1.074,0,0,0,1.167-1.167,1.151,1.151,0,0,0-1.167-1.167Zm56.472,0a1.167,1.167,0,1,0,0,2.335,1.167,1.167,0,1,0,0-2.335Zm4.815,0a1.167,1.167,0,1,0,0,2.335,1.151,1.151,0,0,0,1.167-1.167,1.255,1.255,0,0,0-1.167-1.167Zm4.67,0a1.074,1.074,0,0,0-1.167,1.167,1.151,1.151,0,0,0,1.167,1.167,1.255,1.255,0,0,0,1.167-1.167,1.151,1.151,0,0,0-1.167-1.167Zm14.155,0a1.151,1.151,0,0,0-1.167,1.167,1.167,1.167,0,0,0,2.335,0,1.151,1.151,0,0,0-1.167-1.167Zm-113.09,0a1.074,1.074,0,0,0-1.167,1.167,1.167,1.167,0,0,0,2.335,0c-.146-.584-.584-1.167-1.167-1.167Zm4.67,0a1.167,1.167,0,1,0,0,2.335,1.151,1.151,0,0,0,1.167-1.167,1.255,1.255,0,0,0-1.167-1.167Zm4.67,0a1.074,1.074,0,0,0-1.167,1.167,1.151,1.151,0,0,0,1.167,1.167,1.255,1.255,0,0,0,1.167-1.167,1.151,1.151,0,0,0-1.167-1.167Zm4.67,0a1.167,1.167,0,1,0,1.167,1.167c.146-.584-.438-1.167-1.167-1.167Zm4.815,0a1.167,1.167,0,1,0,0,2.335,1.151,1.151,0,0,0,1.167-1.167A1.255,1.255,0,0,0,43.7,1014.2Zm4.67,0a1.167,1.167,0,1,0,0,2.335,1.167,1.167,0,1,0,0-2.335Zm4.67,0a1.074,1.074,0,0,0-1.167,1.167,1.151,1.151,0,0,0,1.167,1.167,1.255,1.255,0,0,0,1.167-1.167,1.151,1.151,0,0,0-1.167-1.167Zm9.485,0a1.074,1.074,0,0,0-1.167,1.167,1.167,1.167,0,1,0,1.167-1.167Zm4.67,0a1.167,1.167,0,1,0,0,2.335,1.167,1.167,0,1,0,0-2.335Zm4.815,0a1.074,1.074,0,0,0-1.167,1.167,1.151,1.151,0,0,0,1.167,1.167,1.167,1.167,0,1,0,0-2.335Zm4.67,0a1.167,1.167,0,1,0,1.167,1.167,1.151,1.151,0,0,0-1.167-1.167Zm4.815,0a1.074,1.074,0,0,0-1.167,1.167,1.167,1.167,0,0,0,2.335,0A1.255,1.255,0,0,0,81.5,1014.2Zm4.67,0A1.074,1.074,0,0,0,85,1015.367a1.151,1.151,0,0,0,1.167,1.167,1.167,1.167,0,1,0,0-2.335Zm4.67,0a1.074,1.074,0,0,0-1.167,1.167,1.151,1.151,0,0,0,1.167,1.167,1.167,1.167,0,1,0,0-2.335Zm4.67,0a1.167,1.167,0,1,0,1.167,1.167,1.151,1.151,0,0,0-1.167-1.167Zm4.815,0a1.167,1.167,0,1,0,0,2.335,1.151,1.151,0,0,0,1.167-1.167,1.255,1.255,0,0,0-1.167-1.167Zm4.67,0a1.074,1.074,0,0,0-1.167,1.167,1.151,1.151,0,0,0,1.167,1.167,1.167,1.167,0,1,0,0-2.335Zm4.67,0a1.167,1.167,0,1,0,0,2.335,1.175,1.175,0,1,0,0-2.335Zm-51.8,4.67a1.167,1.167,0,1,0,0,2.335,1.074,1.074,0,0,0,1.167-1.167,1.151,1.151,0,0,0-1.167-1.167Zm56.472,0a1.167,1.167,0,1,0,1.167,1.167c.146-.584-.438-1.167-1.167-1.167Zm4.815,0a1.167,1.167,0,1,0,1.167,1.167,1.255,1.255,0,0,0-1.167-1.167Zm4.67,0a1.151,1.151,0,0,0-1.167,1.167,1.167,1.167,0,0,0,2.335,0,1.151,1.151,0,0,0-1.167-1.167Zm4.67,0a1.167,1.167,0,1,0,0,2.335,1.151,1.151,0,0,0,1.167-1.167c.146-.584-.438-1.167-1.167-1.167Zm-103.605,0a1.151,1.151,0,0,0-1.167,1.167,1.255,1.255,0,0,0,1.167,1.167,1.151,1.151,0,0,0,1.167-1.167c-.146-.584-.584-1.167-1.167-1.167Zm4.67,0a1.167,1.167,0,1,0,1.167,1.167,1.255,1.255,0,0,0-1.167-1.167Zm4.67,0a1.151,1.151,0,0,0-1.167,1.167,1.167,1.167,0,0,0,2.335,0,1.151,1.151,0,0,0-1.167-1.167Zm9.485,0a1.167,1.167,0,1,0,1.167,1.167,1.255,1.255,0,0,0-1.167-1.167Zm4.67,0a1.167,1.167,0,1,0,1.167,1.167,1.151,1.151,0,0,0-1.167-1.167Zm4.67,0a1.151,1.151,0,0,0-1.167,1.167,1.167,1.167,0,0,0,2.335,0,1.151,1.151,0,0,0-1.167-1.167Zm9.485,0a1.151,1.151,0,0,0-1.167,1.167,1.255,1.255,0,0,0,1.167,1.167,1.167,1.167,0,1,0,0-2.335Zm4.67,0a1.167,1.167,0,1,0,1.167,1.167,1.151,1.151,0,0,0-1.167-1.167Zm4.815,0a1.151,1.151,0,0,0-1.167,1.167,1.167,1.167,0,1,0,1.167-1.167Zm4.67,0a1.167,1.167,0,1,0,0,2.335,1.167,1.167,0,1,0,0-2.335Zm4.815,0a1.151,1.151,0,0,0-1.167,1.167A1.255,1.255,0,0,0,81.5,1021.2a1.151,1.151,0,0,0,1.167-1.167,1.255,1.255,0,0,0-1.167-1.167Zm4.67,0A1.151,1.151,0,0,0,85,1020.036a1.167,1.167,0,1,0,1.167-1.167Zm4.67,0a1.151,1.151,0,0,0-1.167,1.167,1.167,1.167,0,1,0,1.167-1.167Zm4.67,0a1.167,1.167,0,1,0,0,2.335,1.167,1.167,0,1,0,0-2.335Zm4.815,0a1.167,1.167,0,1,0,1.167,1.167,1.255,1.255,0,0,0-1.167-1.167Zm4.67,0a1.151,1.151,0,0,0-1.167,1.167,1.167,1.167,0,1,0,1.167-1.167Zm4.67,0a1.167,1.167,0,1,0,0,2.335,1.175,1.175,0,1,0,0-2.335Zm-51.8,4.67a1.255,1.255,0,0,0-1.167,1.167,1.167,1.167,0,0,0,2.335,0,1.255,1.255,0,0,0-1.167-1.167Zm56.472,0a1.151,1.151,0,0,0-1.167,1.167,1.074,1.074,0,0,0,1.167,1.167,1.151,1.151,0,0,0,1.167-1.167c.146-.584-.438-1.167-1.167-1.167Zm9.485,0a1.167,1.167,0,1,0,0,2.335,1.255,1.255,0,0,0,1.167-1.167,1.151,1.151,0,0,0-1.167-1.167Zm4.67,0a1.255,1.255,0,0,0-1.167,1.167,1.167,1.167,0,0,0,2.335,0c.146-.584-.438-1.167-1.167-1.167Zm-103.605.146a1.167,1.167,0,1,0,1.167,1.167c-.146-.73-.584-1.167-1.167-1.167Zm4.67,0a1.151,1.151,0,0,0-1.167,1.167,1.074,1.074,0,0,0,1.167,1.167,1.167,1.167,0,1,0,0-2.335Zm14.155,0a1.151,1.151,0,0,0-1.167,1.167,1.074,1.074,0,0,0,1.167,1.167,1.167,1.167,0,1,0,0-2.335Zm4.67,0a1.151,1.151,0,0,0-1.167,1.167,1.074,1.074,0,0,0,1.167,1.167,1.151,1.151,0,0,0,1.167-1.167,1.074,1.074,0,0,0-1.167-1.167Zm4.67,0a1.167,1.167,0,1,0,0,2.335,1.255,1.255,0,0,0,1.167-1.167,1.074,1.074,0,0,0-1.167-1.167Zm9.485,0a1.151,1.151,0,0,0-1.167,1.167,1.255,1.255,0,0,0,1.167,1.167,1.167,1.167,0,1,0,0-2.335Zm4.67,0a1.167,1.167,0,1,0,0,2.335,1.167,1.167,0,1,0,0-2.335Zm4.815,0a1.151,1.151,0,0,0-1.167,1.167,1.255,1.255,0,0,0,1.167,1.167,1.167,1.167,0,1,0,0-2.335Zm4.67,0a1.167,1.167,0,1,0,0,2.335,1.167,1.167,0,1,0,0-2.335Zm9.485,0A1.151,1.151,0,0,0,85,1024.852a1.255,1.255,0,0,0,1.167,1.167,1.167,1.167,0,1,0,0-2.335Zm4.67,0a1.151,1.151,0,0,0-1.167,1.167,1.255,1.255,0,0,0,1.167,1.167,1.167,1.167,0,1,0,0-2.335Zm4.67,0a1.167,1.167,0,1,0,0,2.335,1.167,1.167,0,1,0,0-2.335Zm4.815,0a1.167,1.167,0,1,0,0,2.335,1.074,1.074,0,0,0,1.167-1.167,1.151,1.151,0,0,0-1.167-1.167Zm4.67,0a1.151,1.151,0,0,0-1.167,1.167,1.255,1.255,0,0,0,1.167,1.167,1.167,1.167,0,1,0,0-2.335Zm-47.133,4.67a1.167,1.167,0,1,0,1.167,1.167,1.151,1.151,0,0,0-1.167-1.167Zm-37.794,0a1.175,1.175,0,1,0,0,2.335,1.167,1.167,0,1,0,0-2.335Zm4.815,0a1.074,1.074,0,0,0-1.167,1.167,1.167,1.167,0,0,0,2.335,0,1.255,1.255,0,0,0-1.167-1.167Zm18.824,0a1.167,1.167,0,1,0,0,2.335,1.151,1.151,0,0,0,1.167-1.167,1.255,1.255,0,0,0-1.167-1.167Zm4.67,0a1.167,1.167,0,1,0,0,2.335,1.167,1.167,0,1,0,0-2.335Zm4.67,0a1.074,1.074,0,0,0-1.167,1.167,1.151,1.151,0,0,0,1.167,1.167,1.255,1.255,0,0,0,1.167-1.167,1.151,1.151,0,0,0-1.167-1.167Zm9.485,0a1.151,1.151,0,0,0-1.167,1.167,1.255,1.255,0,0,0,1.167,1.167,1.167,1.167,0,1,0,0-2.335Zm4.67,0a1.167,1.167,0,1,0,0,2.335,1.167,1.167,0,1,0,0-2.335Zm4.815,0a1.151,1.151,0,0,0-1.167,1.167,1.255,1.255,0,0,0,1.167,1.167,1.167,1.167,0,1,0,0-2.335Zm4.67,0a1.167,1.167,0,1,0,0,2.335,1.167,1.167,0,1,0,0-2.335Zm14.155,0a1.151,1.151,0,0,0-1.167,1.167,1.255,1.255,0,0,0,1.167,1.167,1.167,1.167,0,1,0,0-2.335Zm4.67,0a1.167,1.167,0,1,0,0,2.335,1.167,1.167,0,1,0,0-2.335Zm4.815,0a1.167,1.167,0,1,0,0,2.335,1.074,1.074,0,0,0,1.167-1.167,1.151,1.151,0,0,0-1.167-1.167Zm-42.464,4.67a1.167,1.167,0,1,0,1.167,1.167,1.255,1.255,0,0,0-1.167-1.167Zm-14.155,0a1.167,1.167,0,1,0,1.167,1.167,1.255,1.255,0,0,0-1.167-1.167Zm4.67,0a1.167,1.167,0,1,0,1.167,1.167,1.151,1.151,0,0,0-1.167-1.167Zm4.67,0a1.151,1.151,0,0,0-1.167,1.167,1.167,1.167,0,0,0,2.335,0,1.151,1.151,0,0,0-1.167-1.167Zm9.485,0a1.151,1.151,0,0,0-1.167,1.167,1.255,1.255,0,0,0,1.167,1.167,1.167,1.167,0,1,0,0-2.335Zm4.67,0a1.167,1.167,0,1,0,1.167,1.167,1.151,1.151,0,0,0-1.167-1.167Zm4.815,0a1.151,1.151,0,0,0-1.167,1.167,1.167,1.167,0,1,0,1.167-1.167Zm23.494,0a1.167,1.167,0,1,0,0,2.335,1.167,1.167,0,1,0,0-2.335Zm4.815,0a1.167,1.167,0,1,0,1.167,1.167,1.255,1.255,0,0,0-1.167-1.167Zm-42.464,4.67a1.151,1.151,0,0,0-1.167,1.167,1.167,1.167,0,1,0,2.335,0,1.151,1.151,0,0,0-1.167-1.167Zm-9.485,0a1.167,1.167,0,1,0,1.167,1.167,1.151,1.151,0,0,0-1.167-1.167Zm4.67,0a1.151,1.151,0,0,0-1.167,1.167,1.167,1.167,0,1,0,2.335,0,1.151,1.151,0,0,0-1.167-1.167Zm14.155,0a1.167,1.167,0,1,0,1.167,1.167,1.151,1.151,0,0,0-1.167-1.167Zm28.309,0a1.167,1.167,0,0,0,0,2.335,1.167,1.167,0,0,0,0-2.335Zm4.815,0a1.167,1.167,0,1,0,1.167,1.167,1.255,1.255,0,0,0-1.167-1.167Z" transform="translate(0 0)"/></g></svg>