<svg xmlns="http://www.w3.org/2000/svg" width="40.5" height="40.456" viewBox="0 0 40.5 40.456"><defs><style>.a,.d{fill:none;}.a{stroke:#fff;}.b{fill:#1ae5be;}.c{stroke:none;}</style></defs><g class="a"><ellipse class="c" cx="20.25" cy="20.228" rx="20.25" ry="20.228"/><ellipse class="d" cx="20.25" cy="20.228" rx="19.75" ry="19.728"/></g><g transform="translate(12.375 14.609)"><g transform="translate(0 0)"><path class="b" d="M7.835,9.188l-1.948-1.7L.316,12.254a1.141,1.141,0,0,0,.777.3H14.578a1.133,1.133,0,0,0,.774-.3L9.784,7.484Z" transform="translate(0.039 -1.321)"/><path class="b" d="M15.355,2.3a1.134,1.134,0,0,0-.777-.3H1.093a1.129,1.129,0,0,0-.775.307L7.835,8.743Z" transform="translate(0.04 -2)"/><path class="b" d="M0,2.878v9.336L5.437,7.6Z" transform="translate(0 -1.891)"/><path class="b" d="M9.167,7.6,14.6,12.215V2.875Z" transform="translate(1.146 -1.892)"/></g></g></svg>