<svg xmlns="http://www.w3.org/2000/svg" width="135" height="60" viewBox="0 0 135 60"><defs><style>.a{fill:#fff;fill-rule:evenodd;}.b{fill:none;}</style></defs><g transform="translate(-933 -2257)"><g transform="translate(-2 1351)"><path class="a" d="M111.413,10.617c0-.272-.158-.3-.285-.3v-.279h3.35v.272c.013.355.032.671.044.982h-.19a.516.516,0,0,0-.494-.557H112.7v1.121h.64c.3,0,.342-.152.374-.494h.19c-.019.26-.032.513-.032.83,0,.272.013.576.032.861h-.19c-.032-.348-.076-.5-.374-.5h-.64v1.336h1.121c.367,0,.6-.152.621-.646h.209c-.025.462-.07.925-.089,1.387h-3.439v-.279c.127,0,.285-.025.285-.3V10.617Z" transform="translate(845.992 938.823)"/><path class="a" d="M112.579,14.435c.165,0,.291-.089.291-.38V10.667c0-.323-.171-.361-.291-.361v-.279c.317.025.621.044.937.044.279,0,.538-.019.8-.044.469.811.963,1.621,1.412,2.438l.013-.019V10.717c0-.329-.158-.412-.386-.412v-.279a6.665,6.665,0,0,0,.709.044,5.975,5.975,0,0,0,.671-.044v.279a.275.275,0,0,0-.285.291v4.11h-.9c-.652-1.077-1.286-2.191-1.963-3.274h-.013v2.6a.361.361,0,0,0,.412.4v.279c-.26-.025-.526-.044-.785-.044a5.311,5.311,0,0,0-.627.044v-.272Z" transform="translate(853.73 938.786)"/><path class="a" d="M114.13,14.435c.127,0,.285-.032.285-.31V10.61c0-.272-.158-.3-.285-.3v-.279c.285.025.6.044.918.044.355,0,.652-.019.95-.044v.279c-.146,0-.291.032-.291.3v3.515c0,.279.146.31.291.31v.272c-.3-.019-.6-.044-.95-.044-.317,0-.633.025-.918.044Z" transform="translate(862.002 938.786)"/><path class="a" d="M115.593,12.974a1.137,1.137,0,0,0,1.134,1.2c.272,0,.728-.076.728-.5,0-.241-.158-.374-.8-.589a1.669,1.669,0,0,1-1.33-1.628,1.491,1.491,0,0,1,1.685-1.45,2.668,2.668,0,0,1,1.349.323c-.019.456.019.906.044,1.362h-.209a1.013,1.013,0,0,0-1.108-.906c-.279,0-.614.044-.614.431,0,.222.127.291.785.557.95.393,1.349.608,1.349,1.571,0,1.146-.874,1.564-1.818,1.564a2.045,2.045,0,0,1-1.381-.5c0-.462-.013-.969-.038-1.438h.228Z" transform="translate(868.353 938.695)"/><path class="a" d="M118.854,10.01a2.279,2.279,0,0,1,2.084,2.508,2.259,2.259,0,0,1-2.128,2.394,2.283,2.283,0,0,1-2.084-2.47A2.3,2.3,0,0,1,118.854,10.01Zm.12,4.079c.538,0,.6-.7.6-1.2,0-.627-.184-2.052-.893-2.052-.481,0-.6.633-.6,1.089C118.088,12.562,118.265,14.089,118.974,14.089Z" transform="translate(875.846 938.696)"/><path class="a" d="M111.432,11.78c0-.177-.076-.228-.3-.266v-.095h1.735a1.084,1.084,0,0,1,1.165,1.21,1.257,1.257,0,0,1-1.355,1.292,1.056,1.056,0,0,1-.57-.171c-.019-.019-.038-.032-.038-.063s.032-.051.082-.051h.355a.9.9,0,0,0,.982-.944c0-.83-.526-.95-1.324-.95h-.152v3.445c0,.184.07.234.3.272v.095c-.127,0-.367-.044-.6-.044s-.469.044-.589.044v-.095c.228-.038.3-.089.3-.272V11.78Z" transform="translate(845.992 946.209)"/><path class="a" d="M111.812,15.492c.2-.006.253-.07.374-.424l1.051-3.148a.8.8,0,0,0,.032-.215c0-.146-.057-.171-.19-.2v-.095a3.691,3.691,0,0,0,.45.038,1.733,1.733,0,0,0,.31-.038,3.866,3.866,0,0,0,.2.709l.994,2.85c.158.431.184.475.4.519v.095c-.152,0-.3-.044-.456-.044-.228,0-.462.044-.69.044v-.095c.2-.019.272-.07.272-.19a1.9,1.9,0,0,0-.165-.583l-.241-.709h-1.267l-.291.893a1.673,1.673,0,0,0-.095.431c0,.095.057.152.31.158v.095c-.158,0-.317-.044-.469-.044-.177,0-.355.044-.532.044v-.095h0Zm2.242-1.8-.526-1.6h-.013l-.526,1.6Z" transform="translate(849.64 946.177)"/><path class="a" d="M113.017,11.78c0-.177-.07-.228-.3-.266v-.095h1.71c.785,0,1.064.443,1.064.982a1.109,1.109,0,0,1-1.07,1.1l1.083,1.533c.177.247.329.405.5.424v.1c-.108,0-.209-.044-.31-.044-.152,0-.3.044-.456.044-.063-.019-.12-.127-.6-.855l-.76-1.115a.728.728,0,0,1-.12-.19c0-.038.063-.063.114-.063.614,0,1.045-.279,1.045-.849,0-.608-.5-.7-1-.7H113.6v3.407c0,.184.07.234.3.272v.095c-.12,0-.367-.044-.589-.044s-.469.044-.589.044V15.46c.228-.038.3-.089.3-.272V11.78h0Z" transform="translate(854.477 946.209)"/><path class="a" d="M114.779,11.78h-.545c-.329,0-.494.114-.6.7h-.12c.044-.355.076-.7.095-1.058h2.92c.019.355.051.7.1,1.058h-.12c-.1-.583-.272-.7-.6-.7h-.545v3.306c0,.222.07.336.374.374v.095c-.228,0-.481-.044-.665-.044s-.424.044-.659.044V15.46c.3-.038.374-.152.374-.374Z" transform="translate(858.706 946.209)"/><path class="a" d="M114.64,11.78c0-.184-.07-.234-.3-.272v-.095c.165,0,.342.038.507.038s.291-.038.437-.038l2.008,3.015h.013V12.091c0-.431-.095-.526-.418-.583v-.095c.171,0,.336.038.5.038.2,0,.386-.038.583-.038v.095c-.228.038-.3.089-.3.272v3.806h-.348l-2.3-3.464h-.013v2.787c0,.431.095.526.412.589v.089c-.165,0-.329-.044-.494-.044-.2,0-.393.044-.589.044V15.5c.234-.044.3-.095.3-.279V11.78Z" transform="translate(863.1 946.177)"/><path class="a" d="M115.571,11.78c0-.177-.076-.228-.3-.266v-.095h2.85c0,.317.013.64.032.956h-.114c-.076-.519-.272-.6-.532-.6h-1.355v1.381h.842c.209,0,.329-.019.367-.374h.12a5.361,5.361,0,0,0-.032.551,5.505,5.505,0,0,0,.032.564h-.12c-.038-.355-.158-.374-.367-.374h-.842v1.621H117.4c.494,0,.709-.108.817-.7h.108c-.025.355-.051.7-.057,1.058h-3v-.089c.228-.038.3-.089.3-.272Z" transform="translate(868.065 946.209)"/><path class="a" d="M116.4,11.78c0-.177-.076-.228-.3-.266v-.095h1.716c.785,0,1.064.443,1.064.982a1.115,1.115,0,0,1-1.077,1.1l1.089,1.533c.177.247.323.405.494.424v.1c-.108,0-.209-.044-.31-.044-.152,0-.3.044-.456.044-.063-.019-.12-.127-.6-.855l-.76-1.115a1,1,0,0,1-.12-.19c0-.038.07-.063.114-.063.614,0,1.045-.279,1.045-.849,0-.608-.5-.7-1-.7h-.317v3.407c0,.184.07.234.3.272v.095c-.127,0-.367-.044-.6-.044s-.462.044-.589.044V15.46c.228-.038.3-.089.3-.272V11.78h0Z" transform="translate(872.492 946.209)"/><path class="a" d="M117.11,14.4a1.131,1.131,0,0,0,1.165.944.846.846,0,0,0,.918-.83c0-.513-.285-.621-.69-.709-1.02-.215-1.571-.418-1.571-1.2,0-.64.614-1.2,1.571-1.2a2.286,2.286,0,0,1,.982.215c-.006.291.006.6.019.893h-.114a.908.908,0,0,0-.982-.747c-.64,0-.963.329-.963.735,0,.462.228.538.956.7s1.3.323,1.3,1.184c0,.716-.494,1.324-1.6,1.324a1.885,1.885,0,0,1-1.077-.3c0-.336-.013-.665-.032-1Z" transform="translate(876.95 946.124)"/></g><g transform="translate(1 1359)"><path class="a" d="M118.917,9.3h0c-.006.006,1.3-1.12,1.258-1.057-.678,1.194-1.177.459-1.74.413a.727.727,0,0,0-.649.333,11.236,11.236,0,0,0,1.131.31h0Z" transform="translate(877.576 928.567)"/><path class="a" d="M118.27,11.207c2.13-2.613,3.767.2,5.7-.281.7-.172,1.436-.77,2.251-2.211.1-.172,1.4-1.3,1.252-1.051-2.929,5.174-5.1,1.993-7.54,1.78a3.128,3.128,0,0,0-2.8,1.459c-.138.167,1.039.425,1.131.3h0Z" transform="translate(874.456 925.642)"/><path class="a" d="M117.628,13.145c4.261-5.231,7.534.385,11.4-.569,1.4-.345,2.877-1.545,4.5-4.416.2-.362,1.5-1.493,1.258-1.057-5.185,9.159-9.033,3.532-13.351,3.153-1.556-.138-3.176.413-4.944,2.584-.23.287.942.54,1.131.3Z" transform="translate(871.325 922.688)"/><path class="a" d="M117,15.094c6.391-7.844,11.3.574,17.107-.856,2.1-.517,4.307-2.314,6.747-6.621.31-.551,1.608-1.677,1.258-1.057-7.442,13.133-12.949,5.065-19.146,4.525-2.24-.2-4.565.586-7.1,3.7-.327.413.844.666,1.137.31h0Z" transform="translate(868.187 919.722)"/><path class="a" d="M116.367,17.053c8.522-10.457,15.068.769,22.815-1.137,2.791-.689,5.742-3.089,9-8.832.408-.729,1.706-1.861,1.258-1.057-9.7,17.118-16.877,6.61-24.957,5.9-2.911-.258-5.938.764-9.245,4.824-.431.534.747.787,1.131.3Z" transform="translate(865.045 916.741)"/><path class="a" d="M115.742,19.019c10.652-13.07,18.841.97,28.517-1.418,3.5-.856,7.184-3.859,11.25-11.037.511-.919,1.815-2.05,1.258-1.057-11.956,21.1-20.805,8.137-30.757,7.264-3.589-.316-7.322.942-11.4,5.944-.523.655.649.913,1.131.3Z" transform="translate(861.898 913.752)"/><path class="a" d="M115.125,21c12.783-15.689,22.6,1.16,34.22-1.7,4.192-1.034,8.614-4.634,13.5-13.254.614-1.1,1.912-2.234,1.252-1.051-14.207,25.078-24.727,9.67-36.557,8.631-4.267-.373-8.706,1.126-13.547,7.069-.626.775.546,1.034,1.131.3Z" transform="translate(858.748 910.758)"/><path class="a" d="M114.506,22.978c14.913-18.3,26.375,1.349,39.928-1.987,4.887-1.206,10.049-5.4,15.746-15.459.718-1.292,2.016-2.418,1.258-1.057-16.464,29.063-28.655,11.209-42.363,10.009-4.944-.436-10.09,1.3-15.7,8.183-.718.9.454,1.16,1.131.31h0Z" transform="translate(855.594 907.76)"/><path class="a" d="M113.9,24.957c17.044-20.914,30.137,1.545,45.624-2.268,5.587-1.378,11.491-6.173,18-17.664.821-1.476,2.125-2.607,1.258-1.057C160.062,37.01,146.2,16.711,130.614,15.344c-5.622-.494-11.468,1.476-17.853,9.309-.815,1.022.356,1.281,1.137.3h0Z" transform="translate(852.436 904.76)"/><path class="a" d="M113.283,26.946c19.174-23.533,33.91,1.734,51.332-2.555,6.282-1.55,12.921-6.948,20.242-19.875.93-1.66,2.228-2.791,1.258-1.057-20.966,37.028-36.5,14.282-53.962,12.748-6.3-.551-12.852,1.66-20,10.428-.919,1.149.258,1.407,1.131.31Z" transform="translate(849.277 901.754)"/><path class="a" d="M112.671,28.933c21.311-26.151,37.677,1.929,57.035-2.843,6.989-1.723,14.362-7.718,22.5-22.08,1.034-1.849,2.331-2.975,1.258-1.057-23.229,41-40.427,15.815-59.768,14.121-6.977-.614-14.236,1.832-22.155,11.548-1.011,1.269.161,1.528,1.131.31h0Z" transform="translate(846.116 898.75)"/></g><rect class="b" width="135" height="60" transform="translate(933 2257)"/><path class="a" d="M120.717,11.891a1.009,1.009,0,0,1-1.653-.861.954.954,0,0,1,.912-.988c.469,0,.83.247.83.982h-1.488a.841.841,0,0,0,.76.906.756.756,0,0,0,.64-.291v.253h0Zm-.165-1.039a.57.57,0,0,0-.576-.64.674.674,0,0,0-.646.64Z" transform="translate(886.314 2289.866)"/><path class="a" d="M119.986,10.4c0-.114-.095-.133-.2-.133V10.2a1.6,1.6,0,0,0,.469-.165,3.741,3.741,0,0,0-.013.38h.006a.649.649,0,0,1,.545-.317c.374,0,.678.171.678.735v1.089c0,.139.1.146.177.146v.07a1.034,1.034,0,0,0-.228-.025.926.926,0,0,0-.222.025c.006-.12.019-.241.019-.342v-1.02a.428.428,0,0,0-.431-.488.5.5,0,0,0-.545.557v1.045c0,.146.114.177.2.177v.07a3,3,0,0,0-.342-.025,2.566,2.566,0,0,0-.317.025v-.07c.082,0,.2-.032.2-.177V10.4h0Z" transform="translate(890.149 2289.813)"/><path class="a" d="M122.348,10.245a.723.723,0,0,1-.209.032,1.232,1.232,0,0,1-.158-.013V10.3a.6.6,0,0,1,.177.437.74.74,0,0,1-.735.722.793.793,0,0,1-.45-.146c-.089.044-.209.152-.209.26,0,.177.253.241.45.241h.424c.361,0,.7.063.7.405,0,.462-.513.614-.849.614-.551,0-.728-.266-.728-.462a.937.937,0,0,1,.032-.2l.253-.127a.529.529,0,0,0-.057.241c0,.247.266.405.5.405s.621-.12.621-.418c0-.184-.1-.215-.424-.228l-.443-.013c-.456-.019-.728-.177-.728-.526,0-.057.158-.152.367-.272a.818.818,0,0,1-.171-.519.714.714,0,0,1,.728-.665,1.893,1.893,0,0,1,.26.025,1.53,1.53,0,0,0,.3.032,3.341,3.341,0,0,0,.386-.019l-.032.165Zm-.88,1.039a.463.463,0,0,0,.462-.475.592.592,0,0,0-.519-.621.466.466,0,0,0-.475.5.59.59,0,0,0,.532.6Z" transform="translate(894.032 2289.866)"/><path class="a" d="M121.694,12.5c0,.146.12.177.209.177v.07a2.993,2.993,0,0,0-.342-.025,2.668,2.668,0,0,0-.317.025v-.07c.082,0,.2-.032.2-.177V11.007c0-.114-.1-.133-.2-.133V10.8a1.474,1.474,0,0,0,.462-.165c-.006.051-.013.26-.013.431V12.5Zm-.139-2.578a.182.182,0,0,1,.177.184.178.178,0,1,1-.355,0A.182.182,0,0,1,121.554,9.918Z" transform="translate(897.941 2289.205)"/><path class="a" d="M122.013,10.4c0-.114-.095-.133-.209-.133V10.2a1.473,1.473,0,0,0,.462-.165c-.006.12-.006.253-.006.38h.006a.649.649,0,0,1,.545-.317c.374,0,.671.171.671.735v1.089c0,.139.108.146.19.146v.07a1.149,1.149,0,0,0-.234-.025.927.927,0,0,0-.222.025c.006-.12.019-.241.019-.342v-1.02a.428.428,0,0,0-.431-.488.5.5,0,0,0-.545.557v1.045c0,.146.114.177.2.177v.07a3,3,0,0,0-.342-.025,2.778,2.778,0,0,0-.317.025v-.07c.082,0,.209-.032.209-.177l-.006-1.488h.006Z" transform="translate(900.928 2289.813)"/><path class="a" d="M124.19,11.891a1,1,0,0,1-1.647-.861.949.949,0,0,1,.906-.988c.469,0,.83.247.83.982H122.79a.841.841,0,0,0,.76.906.756.756,0,0,0,.64-.291v.253Zm-.158-1.039a.574.574,0,0,0-.583-.64.669.669,0,0,0-.646.64Z" transform="translate(904.869 2289.866)"/><path class="a" d="M124.9,11.891a1,1,0,0,1-1.647-.861.945.945,0,0,1,.906-.988c.469,0,.83.247.83.982H123.5a.84.84,0,0,0,.754.906.752.752,0,0,0,.646-.291v.253h0Zm-.158-1.039a.574.574,0,0,0-.583-.64.674.674,0,0,0-.646.64Z" transform="translate(908.655 2289.866)"/><path class="a" d="M124.174,10.4c0-.114-.095-.133-.2-.133V10.2a1.6,1.6,0,0,0,.469-.165c-.013.146-.019.3-.025.456h.006a.574.574,0,0,1,.481-.393.751.751,0,0,1,.177.013l.032.285a.423.423,0,0,0-.222-.044c-.279,0-.462.3-.462.627v.912c0,.146.114.177.2.177v.07a3,3,0,0,0-.342-.025,2.775,2.775,0,0,0-.317.025v-.07c.082,0,.2-.032.2-.177V10.4h0Z" transform="translate(912.484 2289.813)"/><path class="a" d="M126.211,11.891a1,1,0,0,1-1.647-.861.949.949,0,0,1,.906-.988c.469,0,.83.247.83.982h-1.488a.841.841,0,0,0,.76.906.756.756,0,0,0,.64-.291v.253Zm-.158-1.039a.571.571,0,0,0-.583-.64.68.68,0,0,0-.652.64Z" transform="translate(915.646 2289.866)"/><path class="a" d="M127.06,12.722c0,.158.1.19.2.2v.07a1,1,0,0,0-.215-.025,1.824,1.824,0,0,0-.222.025v-.38h-.006a.7.7,0,0,1-.678.424c-.589,0-.868-.564-.868-1.083a.942.942,0,0,1,.887-1,.686.686,0,0,1,.64.4h.006V10.239c0-.114-.095-.133-.2-.133v-.063a1.679,1.679,0,0,0,.469-.171,3.717,3.717,0,0,0-.013.437v2.413h0Zm-.241-.7c0-.526-.241-.906-.652-.906s-.646.367-.646.83c0,.405.222.912.678.912.291,0,.621-.2.621-.836Z" transform="translate(919.434 2288.959)"/><path class="a" d="M119.533,13.359a.178.178,0,0,0,.2.177V13.6a3.01,3.01,0,0,0-.342-.019,2.738,2.738,0,0,0-.317.019v-.063a.182.182,0,0,0,.2-.184V11.864c0-.108-.095-.133-.2-.133v-.063a1.308,1.308,0,0,0,.462-.171c-.006.051-.006.266-.006.437v1.425Zm-.146-2.584a.19.19,0,1,1-.177.19A.184.184,0,0,1,119.387,10.775Z" transform="translate(886.385 2293.775)"/><path class="a" d="M119.84,11.256c0-.108-.1-.133-.2-.133V11.06a1.407,1.407,0,0,0,.469-.171,3.8,3.8,0,0,0-.013.38h.006a.649.649,0,0,1,.545-.317c.374,0,.678.171.678.741v1.089c0,.133.1.146.177.146v.063a1.538,1.538,0,0,0-.228-.025,1.342,1.342,0,0,0-.222.025c.006-.114.019-.234.019-.336v-1.02a.43.43,0,0,0-.431-.494.5.5,0,0,0-.545.564v1.045a.178.178,0,0,0,.2.177v.063a2.893,2.893,0,0,0-.342-.025,2.668,2.668,0,0,0-.317.025v-.063a.182.182,0,0,0,.2-.184V11.256h0Z" transform="translate(889.371 2294.383)"/><path class="a" d="M120.585,11.223c-.057-.152-.095-.253-.234-.253v-.063a3.472,3.472,0,0,0,.348.025,2.359,2.359,0,0,0,.3-.025v.063c-.108,0-.19.044-.19.12a.77.77,0,0,0,.051.215l.431,1.241h.006l.424-1.2a.852.852,0,0,0,.051-.26c0-.07-.1-.114-.158-.114v-.063a1.544,1.544,0,0,0,.557,0v.063c-.108,0-.171.095-.247.3l-.57,1.628h-.177l-.589-1.678Z" transform="translate(893.179 2294.474)"/><path class="a" d="M122.7,12.748a1.009,1.009,0,0,1-1.653-.861.954.954,0,0,1,.912-.988c.469,0,.83.253.83.982H121.3a.847.847,0,0,0,.76.912.764.764,0,0,0,.64-.291v.247Zm-.158-1.039a.574.574,0,0,0-.583-.64.674.674,0,0,0-.646.64Z" transform="translate(896.896 2294.436)"/><path class="a" d="M123.114,11.406h-.076a.414.414,0,0,0-.475-.355c-.234,0-.564.089-.564.386,0,.234.171.279.513.374.545.146.684.241.684.545,0,.469-.45.627-.83.627a1.1,1.1,0,0,1-.564-.165l-.038-.45h.063a.567.567,0,0,0,.57.469c.241,0,.576-.133.576-.424,0-.241-.177-.279-.507-.361-.38-.095-.7-.19-.7-.576,0-.443.5-.576.76-.576a1.334,1.334,0,0,1,.564.108l.019.4Z" transform="translate(900.72 2294.436)"/><path class="a" d="M122.42,11.384h.285v-.418a.347.347,0,0,0,.215-.158h.032v.576h.589v.171h-.589v1.438c0,.152.051.31.26.31a.761.761,0,0,0,.348-.12l-.019.19a.878.878,0,0,1-.367.095c-.342-.006-.469-.171-.469-.45V11.555h-.285Z" transform="translate(904.213 2293.951)"/><path class="a" d="M123.245,11.256c0-.127-.089-.133-.2-.133V11.06a2.1,2.1,0,0,0,.456-.171l-.019.38h.006a.636.636,0,0,1,.57-.317.56.56,0,0,1,.576.393h.006a.591.591,0,0,1,.614-.393c.323,0,.627.171.627.741v1.089c0,.133.1.146.184.146v.063a1.76,1.76,0,0,0-.234-.025,1.542,1.542,0,0,0-.222.025c.006-.114.019-.234.019-.336v-1.02a.43.43,0,0,0-.431-.494.52.52,0,0,0-.507.564v1.045a.178.178,0,0,0,.2.177v.063a2.89,2.89,0,0,0-.342-.025,2.564,2.564,0,0,0-.317.025v-.063a.182.182,0,0,0,.2-.184V11.636a.445.445,0,0,0-.45-.494.5.5,0,0,0-.494.564v1.045c0,.139.12.177.209.177v.063a2.893,2.893,0,0,0-.342-.025,2.668,2.668,0,0,0-.317.025v-.063a.182.182,0,0,0,.2-.184V11.256h0Z" transform="translate(907.529 2294.383)"/><path class="a" d="M125.61,12.748a1,1,0,0,1-1.647-.861.949.949,0,0,1,.906-.988c.469,0,.83.253.83.982H124.21a.847.847,0,0,0,.76.912.764.764,0,0,0,.64-.291v.247h0Zm-.158-1.039a.574.574,0,0,0-.583-.64.674.674,0,0,0-.646.64Z" transform="translate(912.441 2294.436)"/><path class="a" d="M124.89,11.256c0-.108-.1-.133-.209-.133V11.06a1.352,1.352,0,0,0,.469-.171c-.013.127-.013.253-.013.38h.006a.649.649,0,0,1,.545-.317c.374,0,.671.171.671.741v1.089c0,.133.108.146.19.146v.063a1.761,1.761,0,0,0-.234-.025,1.438,1.438,0,0,0-.222.025c.006-.114.019-.234.019-.336v-1.02a.43.43,0,0,0-.431-.494.5.5,0,0,0-.545.564v1.045a.178.178,0,0,0,.2.177v.063a3,3,0,0,0-.342-.025,2.78,2.78,0,0,0-.317.025v-.063a.182.182,0,0,0,.2-.184V11.256h.006Z" transform="translate(916.271 2294.383)"/><path class="a" d="M125.407,11.384h.285v-.418a.346.346,0,0,0,.215-.158h.032v.576h.589v.171h-.589v1.438c0,.152.051.31.26.31a.761.761,0,0,0,.348-.12l-.019.19a.855.855,0,0,1-.367.095c-.342-.006-.469-.171-.469-.45V11.555h-.285Z" transform="translate(920.143 2293.951)"/><path class="a" d="M120.42,12.259h-.076a.414.414,0,0,0-.475-.361c-.234,0-.564.089-.564.386,0,.234.171.285.513.374.545.152.684.241.684.545,0,.469-.45.627-.836.627a1.024,1.024,0,0,1-.557-.165l-.038-.45h.063a.56.56,0,0,0,.564.469c.247,0,.576-.133.576-.418,0-.247-.171-.285-.5-.374-.38-.095-.7-.184-.7-.57,0-.437.494-.576.754-.576a1.386,1.386,0,0,1,.57.108l.019.405Z" transform="translate(886.353 2298.954)"/><path class="a" d="M120.789,11.746a1.025,1.025,0,0,1,1,1.064.979.979,0,0,1-.975,1.02,1,1,0,0,1-1-1.1.987.987,0,0,1,.975-.982Zm.063,1.938c.367,0,.684-.253.684-.8,0-.475-.279-.982-.747-.982a.743.743,0,0,0-.722.842.86.86,0,0,0,.785.944Z" transform="translate(890.314 2298.954)"/><path class="a" d="M120.885,11.944c0-.108-.095-.133-.209-.133v-.07a1.462,1.462,0,0,0,.469-.165c-.006.051-.013.26-.013.431v2.438c0,.139.12.177.209.177v.063a3.1,3.1,0,0,0-.342-.025,2.772,2.772,0,0,0-.323.025v-.063a.184.184,0,0,0,.209-.184v-2.5Z" transform="translate(894.912 2298.052)"/><path class="a" d="M123.02,13.6c0,.127.07.177.184.177v.063c-.07-.006-.146-.025-.215-.025s-.146.019-.215.025v-.31h-.013a.617.617,0,0,1-.6.355.569.569,0,0,1-.621-.633V12.1c0-.108-.095-.127-.2-.127v-.07a1.407,1.407,0,0,0,.469-.171,3.782,3.782,0,0,0-.013.437V13.18c0,.3.089.513.4.513.374,0,.576-.3.576-.709V12.1c0-.108-.1-.127-.209-.127v-.07a1.4,1.4,0,0,0,.475-.171,3.8,3.8,0,0,0-.013.437V13.6Z" transform="translate(898.427 2298.9)"/><path class="a" d="M122.225,12.226h.279v-.418a.327.327,0,0,0,.215-.152h.038v.57h.589V12.4h-.589v1.438c0,.146.051.3.26.3a.809.809,0,0,0,.348-.114l-.019.19a.791.791,0,0,1-.367.1c-.348-.006-.475-.171-.475-.45V12.4h-.279v-.171Z" transform="translate(903.173 2298.474)"/><path class="a" d="M123.519,14.206a.178.178,0,0,0,.2.177v.063c-.108-.006-.228-.025-.342-.025s-.209.019-.317.025v-.063a.182.182,0,0,0,.2-.184V12.711c0-.108-.095-.127-.2-.127v-.07a1.407,1.407,0,0,0,.469-.171,3.777,3.777,0,0,0-.013.437v1.425h0Zm-.146-2.584a.19.19,0,1,1-.177.19A.184.184,0,0,1,123.373,11.622Z" transform="translate(907.642 2298.292)"/><path class="a" d="M124.72,11.746a1.021,1.021,0,0,1,1,1.064.978.978,0,0,1-.969,1.02,1.007,1.007,0,0,1-1.007-1.1.991.991,0,0,1,.975-.982Zm.063,1.938c.367,0,.69-.253.69-.8,0-.475-.285-.982-.754-.982a.743.743,0,0,0-.722.842.86.86,0,0,0,.785.944Z" transform="translate(911.279 2298.954)"/><path class="a" d="M124.743,12.1c0-.108-.095-.127-.2-.127v-.07a1.306,1.306,0,0,0,.462-.171c-.006.133-.006.26-.006.38H125a.649.649,0,0,1,.545-.317c.367,0,.678.177.678.735v1.1c0,.133.1.146.177.146v.063a1.65,1.65,0,0,0-.228-.025,1.438,1.438,0,0,0-.222.025c.006-.114.019-.234.019-.336v-1.02a.424.424,0,0,0-.431-.488.5.5,0,0,0-.545.564V13.6a.178.178,0,0,0,.2.177v.063a3,3,0,0,0-.342-.025,2.668,2.668,0,0,0-.317.025v-.063a.182.182,0,0,0,.2-.184V12.1h0Z" transform="translate(915.52 2298.9)"/><path class="a" d="M126.715,12.259h-.076a.414.414,0,0,0-.475-.361c-.234,0-.57.089-.57.386,0,.234.171.285.513.374.551.152.69.241.69.545,0,.469-.45.627-.836.627a1.024,1.024,0,0,1-.557-.165l-.044-.45h.07a.56.56,0,0,0,.564.469c.241,0,.576-.133.576-.418,0-.247-.177-.285-.5-.374-.38-.095-.7-.184-.7-.57,0-.437.5-.576.76-.576a1.386,1.386,0,0,1,.57.108l.019.405Z" transform="translate(919.893 2298.954)"/></g></svg>