<svg xmlns="http://www.w3.org/2000/svg" width="135" height="60" viewBox="0 0 135 60"><defs><style>.a{fill:#fff;fill-rule:evenodd;}.b{fill:none;}</style></defs><g transform="translate(1.636 16.571)"><path class="a" d="M159.259,16.1c-.155.964-.562,2.868-.751,3.527H147.679v-.751c1.812-.155,2.03-.281,2.03-2.093V8.637c0-1.841-.218-1.967-1.721-2.093V5.8h9.991c.029.373.126,1.87.218,3.183l-.78.092a4.1,4.1,0,0,0-.843-1.807c-.378-.379-.935-.533-2.122-.533H153.42c-.78,0-.872.034-.872.751v4.491h1.434c1.784,0,2.093-.092,2.374-1.589h.746v4.279h-.746c-.281-1.531-.562-1.623-2.374-1.623h-1.434v3.682c0,1.027.092,1.531.5,1.749a5.878,5.878,0,0,0,1.612.224c.1,0,.195-.006.293-.006a3.007,3.007,0,0,0,2.34-.688,6.822,6.822,0,0,0,1.187-2.093l.78.189Z" transform="translate(-113.306 1.205)"/><path class="a" d="M167.314,6.544c-1.652.155-1.778.281-1.778,2.093v8.179c0,1.778.155,1.9,1.778,2.059v.746h-6.493v-.746c1.686-.155,1.841-.281,1.841-2.093V12.853h-5.8v3.963c0,1.812.155,1.939,1.749,2.093v.746H152.27V18.9c1.56-.155,1.749-.281,1.749-2.088V8.637c0-1.812-.189-1.939-1.812-2.093V5.8h6.366v.746c-1.526.155-1.686.281-1.686,2.093v3.12h5.81V8.637c0-1.812-.155-1.939-1.749-2.093V5.8h6.4v.746h-.034Z" transform="translate(-91.864 1.205)"/><path class="a" d="M166.8,16.1c-.155.964-.562,2.868-.751,3.527H155.222v-.751c1.807-.155,2.025-.281,2.025-2.093V8.637c0-1.841-.218-1.967-1.715-2.093V5.8h9.991c.029.373.12,1.87.218,3.183l-.78.092a4.1,4.1,0,0,0-.843-1.807c-.378-.379-.941-.533-2.122-.533h-1.032c-.78,0-.872.034-.872.751v4.491h1.434c1.784,0,2.094-.092,2.374-1.589h.746v4.279H163.9c-.281-1.531-.562-1.623-2.374-1.623h-1.434v3.682c0,1.027.092,1.531.5,1.749a5.878,5.878,0,0,0,1.612.224c.1,0,.195-.006.292-.006a3.007,3.007,0,0,0,2.34-.688,6.69,6.69,0,0,0,1.182-2.093l.786.189Z" transform="translate(-77.586 1.205)"/><path class="a" d="M172.488,6.52c-1.153.063-1.589.379-1.686,1.313a31.986,31.986,0,0,0-.189,3.4v8.592h-1.027L160.753,9.239h-.063V14.28c0,1.055.052,2.116.155,3.166.092.935.47,1.342,2.03,1.405V19.6h-5.214v-.751c1.187-.092,1.686-.436,1.749-1.342a24.054,24.054,0,0,0,.218-3.212V9.583c0-1.405-.034-1.784-.436-2.311a2.183,2.183,0,0,0-1.646-.751h-.138V5.8h3.935l8.144,9.332h.063V11.08c0-1.061-.052-2.128-.155-3.183-.092-.9-.533-1.279-2.093-1.371V5.8h5.185V6.52Z" transform="translate(-67.23 1.229)"/><path class="a" d="M171.847,16.1c-.161.964-.562,2.868-.751,3.527H160.267v-.751c1.807-.155,2.025-.281,2.025-2.093V8.637c0-1.841-.218-1.967-1.715-2.093V5.8h9.991c.029.373.12,1.87.218,3.183L170,9.073a4.086,4.086,0,0,0-.837-1.807c-.378-.379-.941-.533-2.128-.533h-1.027c-.78,0-.872.034-.872.751v4.491h1.434c1.784,0,2.088-.092,2.369-1.589h.751v4.279h-.751c-.281-1.531-.556-1.623-2.369-1.623h-1.434v3.682c0,1.027.092,1.531.5,1.749a5.878,5.878,0,0,0,1.612.224c.1,0,.195-.006.287-.006A3.013,3.013,0,0,0,169.88,18a6.822,6.822,0,0,0,1.187-2.093l.78.189Z" transform="translate(-53.696 1.205)"/><path class="a" d="M160.37,5.8H150.035c-.063,1.032-.155,2.34-.218,3.653h.78A5.032,5.032,0,0,1,151.5,7.3c.31-.373.683-.562,2.432-.562h.717V16.792c0,1.807-.218,1.933-2,2.088v.751h6.934V18.88c-1.875-.155-2.093-.281-2.093-2.088V6.744h.969c1.245,0,1.778.092,2.151.5a4.629,4.629,0,0,1,.941,2.214l.746-.034c-.092-1.124-.184-2.621-.218-3.585H160.37V5.8Z" transform="translate(-103.182 1.229)"/><path class="a" d="M174.185,16.54c-1.342-3.556-2.621-7.146-3.935-10.737h-1.216l-4.342,10.863c-.683,1.784-.964,2.03-2.369,2.185V19.6h4.743v-.751c-1.56-.189-1.623-.5-1.285-1.5.252-.843.533-1.623.751-2.283h4.089c.31.843.625,1.749.843,2.4.344.941.218,1.187-1.032,1.377V19.6h6.085v-.746C175.154,18.662,174.9,18.415,174.185,16.54Zm-7.273-2.587c.562-1.5,1.1-3.063,1.686-4.623h.063l1.56,4.623h-3.309Z" transform="translate(-43.955 1.229)"/><path class="a" d="M144.444,6.113,144.1,7.4h.31v7.9l-.344.625V16.6l.407-.373.407.373v-.654l-.344-.654V7.363h.31Z" transform="translate(-130.42 2.697)"/><path class="a" d="M143.265,6.745l1.1.717.092-.281,7.49,2.432.47.533.654.218-.218-.5.47-.281-.625-.218-.717.126-7.491-2.438V7.026l.092-.252Z" transform="translate(-134.209 5.69)"/><path class="a" d="M143.6,14.95l1.032-.809-.252-.189,4.652-6.4.654-.281.407-.528-.591.029-.126-.528-.407.528-.092.723-4.588,6.4-.034-.029-.218-.155Z" transform="translate(-132.636 3.317)"/><path class="a" d="M150.025,14.922l-.465-1.25-.252.189-4.652-6.366-.092-.723-.407-.528-.12.528-.5-.063.373.533.654.31,4.623,6.372-.034.029-.218.155,1.1.814Z" transform="translate(-132.916 3.317)"/><path class="a" d="M153.321,6.739l-1.313.063.1.281L144.58,9.521l-.688-.155-.654.218.47.281-.218.5.619-.189.533-.528,7.491-2.438v.029l.092.252Z" transform="translate(-134.336 5.661)"/><path class="a" d="M141.692,18.1A14.069,14.069,0,0,1,155.744,4.577c.155,0,.31.006.464.011h0a14.012,14.012,0,0,1,13.519,14.006c0,.155,0,.315-.006.476h0a14.017,14.017,0,0,1-14.006,13.524c-.161,0-.321-.006-.476-.011h0a14.02,14.02,0,0,1-13.553-14.012c0-.155,0-.315.006-.47h0Zm13.547,14.109c.149.006.3.006.459.006a13.629,13.629,0,0,0,13.616-13.146h0c.006-.149.011-.31.011-.459A13.635,13.635,0,0,0,156.174,4.99h0c-.143,0-.292-.006-.436-.006A13.643,13.643,0,0,0,142.1,18.136h0c-.006.149-.011.3-.011.453a13.631,13.631,0,0,0,13.151,13.622h0Z" transform="translate(-141.686 -4.577)"/><path class="a" d="M142.187,15.85A11.163,11.163,0,0,1,153.342,5.079c.132,0,.264,0,.39.006h0A11.165,11.165,0,0,1,164.515,16.24c0,.126-.006.264-.011.39h0a11.161,11.161,0,0,1-11.156,10.777c-.126,0-.258-.006-.39-.006h0a11.189,11.189,0,0,1-10.777-11.178c0-.12.006-.252.006-.373h0Zm10.8,11.144c.115,0,.235.006.356.006a10.8,10.8,0,0,0,10.788-10.4V16.6c.006-.115.006-.235.006-.35a10.793,10.793,0,0,0-10.4-10.788h0c-.132-.006-.264-.011-.4-.011a10.754,10.754,0,0,0-10.748,10.4h0c-.006.132-.006.264-.006.39a10.755,10.755,0,0,0,10.4,10.754h0Z" transform="translate(-139.342 -2.2)"/><path class="a" d="M144.033,6.117a4.437,4.437,0,0,1,.482-.029c.161,0,.321.011.482.023l.161.006a12.033,12.033,0,0,0-.562-1.342h-.006a6.9,6.9,0,0,0-.556,1.342h0Z" transform="translate(-130.572 -3.639)"/><path class="a" d="M144.713,5.994a6.942,6.942,0,0,1,.757-1.187h0c-.379-.034-.717-.063-1.1-.092h-.189a13.814,13.814,0,0,1,.528,1.279h0Z" transform="translate(-129.852 -3.924)"/><path class="a" d="M143.739,6.317Zm.063-.092c.31-.063.654-.092.964-.155h.034a.313.313,0,0,0,.126-.029h0a9.5,9.5,0,0,0-.751-1.25h0a12.583,12.583,0,0,0-.379,1.434h.006Z" transform="translate(-131.964 -3.564)"/><path class="a" d="M144.576,5.994a6.864,6.864,0,0,1,.562-1.279h0c-.373,0-.717.029-1.09.063h0a.072.072,0,0,0-.034-.006.378.378,0,0,0-.155.034h0a6.406,6.406,0,0,1,.717,1.187h0Z" transform="translate(-131.396 -3.924)"/><path class="a" d="M143.477,6.238V6.3h0l.941-.281h0c.063,0,.092-.029.155-.029h0a8.932,8.932,0,0,0-.906-1.124h0c-.063.31-.155.969-.189,1.371h0Z" transform="translate(-133.205 -3.204)"/><path class="a" d="M144.439,6.084a10.839,10.839,0,0,1,.378-1.342h0c-.373.063-.717.126-1.09.218h0c-.063,0-.126.029-.189.029h0a6.91,6.91,0,0,1,.906,1.1h-.006Z" transform="translate(-132.916 -3.796)"/><path class="a" d="M143.216,5.309c0,.373,0,.843.034,1.124h0a7.886,7.886,0,0,1,.9-.407h0c.063-.029.1-.029.161-.063h0a10.922,10.922,0,0,0-1.061-1h0a1.26,1.26,0,0,0-.034.287v.057h0Z" transform="translate(-134.441 -2.74)"/><path class="a" d="M144.27,6.189a8.547,8.547,0,0,1,.184-1.371h0c-.344.092-.683.252-1.027.373h0c-.063.034-.126.034-.189.063h0a9.429,9.429,0,0,1,1.032.941V6.189Z" transform="translate(-134.336 -3.436)"/><path class="a" d="M143.157,6.557c.281-.189.528-.379.809-.533h0c.063-.029.1-.063.161-.092h0a6.405,6.405,0,0,0-1.187-.814h0a11.209,11.209,0,0,0,.218,1.44Z" transform="translate(-135.752 -2.02)"/><path class="a" d="M144.079,6.337c-.034-.31-.034-.746-.034-1.09h0V5.184a.955.955,0,0,1,.034-.252h0c-.344.161-.654.344-.969.5h0c-.063.034-.092.063-.155.1h0c.384.247.763.522,1.124.809h0Z" transform="translate(-135.677 -2.896)"/><path class="a" d="M143.1,6.679c.247-.218.5-.436.751-.619h0c.029-.034.092-.063.12-.1h0a8.4,8.4,0,0,0-1.279-.654h0a8.151,8.151,0,0,0,.4,1.371Z" transform="translate(-136.941 -1.115)"/><path class="a" d="M143.062,6.833a4.321,4.321,0,0,1,.654-.717h0l.126-.126h0a9.735,9.735,0,0,0-1.377-.47h0a5.887,5.887,0,0,0,.6,1.313h0Z" transform="translate(-137.997 -0.111)"/><path class="a" d="M143.785,6.623a9.256,9.256,0,0,1-.4-1.342h0c-.281.247-.533.5-.814.78h0l-.126.126h0a8.941,8.941,0,0,1,1.342.436h0Z" transform="translate(-138.101 -1.243)"/><path class="a" d="M143.049,6.981a7.579,7.579,0,0,1,.533-.809h0c.029-.034.063-.1.092-.126h0a8.964,8.964,0,0,0-1.405-.281h0a6.271,6.271,0,0,0,.78,1.216h0Z" transform="translate(-138.925 1.049)"/><path class="a" d="M143.619,6.794a6.245,6.245,0,0,1-.562-1.285h0c-.252.281-.47.6-.688.878h0a.651.651,0,0,1-.126.155h0a9.358,9.358,0,0,1,1.377.247Z" transform="translate(-139.053 -0.164)"/><path class="a" d="M143.052,7.132a7.832,7.832,0,0,1,.436-.878h0c.034-.063.063-.092.063-.155h0a7.558,7.558,0,0,0-.809-.063h-.625a5.172,5.172,0,0,0,.935,1.1Z" transform="translate(-139.645 2.337)"/><path class="a" d="M143.474,6.957a9.387,9.387,0,0,1-.746-1.187h0c-.189.315-.378.625-.562.969h0a.685.685,0,0,1-.092.155h.654a6.748,6.748,0,0,1,.751.063h-.006Z" transform="translate(-139.849 1.072)"/><path class="a" d="M143.093,7.394l.281-.935h0c.029-.063.029-.092.063-.155h0a10.087,10.087,0,0,0-1.44.12V6.43a5.482,5.482,0,0,0,1.1.964h0Z" transform="translate(-140.213 3.601)"/><path class="a" d="M142.011,7.057c-.029.063-.029.126-.063.189h0a7.878,7.878,0,0,1,1.377-.126h0a7.99,7.99,0,0,1-.906-1.061h0C142.292,6.34,142.137,6.684,142.011,7.057Z" transform="translate(-140.445 2.441)"/><path class="a" d="M143.137,7.7c.034-.31.1-.654.161-.969h0c0-.063.029-.092.029-.155h0a13.085,13.085,0,0,0-1.405.315V6.886a7.137,7.137,0,0,0,1.216.814h0Z" transform="translate(-140.573 4.889)"/><path class="a" d="M141.9,7.419c0,.063-.029.126-.029.189h0a10.612,10.612,0,0,1,1.342-.315V7.3a7.639,7.639,0,0,1-1.032-.941h0a5.267,5.267,0,0,0-.281,1.061Z" transform="translate(-140.829 3.857)"/><path class="a" d="M143.264,8.1Zm-.063-.126V7.421h0V7.352a2.179,2.179,0,0,1,.029-.338h0V6.853h0a9.613,9.613,0,0,0-1.342.533h0a8.431,8.431,0,0,0,1.314.591h0Z" transform="translate(-140.729 6.201)"/><path class="a" d="M141.828,7.763v.189h0a7.926,7.926,0,0,1,1.313-.5h0a6.5,6.5,0,0,1-1.153-.786h0a6.479,6.479,0,0,0-.161,1.1Z" transform="translate(-141.013 5.325)"/><path class="a" d="M143.276,8.26a9.245,9.245,0,0,1-.126-.964h0V7.136h0a12.591,12.591,0,0,0-1.25.688h0a6.406,6.406,0,0,0,1.377.436Z" transform="translate(-140.677 7.541)"/><path class="a" d="M141.867,8.108V8.3h0a8.178,8.178,0,0,1,1.216-.688h0a7.711,7.711,0,0,1-1.25-.625h0c-.006.126-.011.252-.011.379a6.509,6.509,0,0,0,.046.746Z" transform="translate(-141.047 6.821)"/><path class="a" d="M143.388,8.509c-.092-.315-.189-.625-.253-.941h0c0-.063-.029-.092-.029-.155h0a7.158,7.158,0,0,0-1.153.872h0a6.326,6.326,0,0,0,1.434.218v.006Z" transform="translate(-140.417 8.858)"/><path class="a" d="M142.052,8.4c0,.063.034.126.034.189h0a6.743,6.743,0,0,1,1.09-.843h0a7.8,7.8,0,0,1-1.342-.436h0c.063.373.126.717.218,1.09Z" transform="translate(-140.985 8.37)"/><path class="a" d="M142.671,8.747h.843c-.126-.281-.252-.591-.373-.906h0c-.034-.063-.034-.092-.063-.155h0a10.967,10.967,0,0,0-1.032,1.032h0C142.235,8.718,142.425,8.747,142.671,8.747Z" transform="translate(-139.981 10.146)"/><path class="a" d="M142.243,8.687c.034.063.034.126.063.189h0a9.364,9.364,0,0,1,.969-1h0a8.072,8.072,0,0,1-1.377-.252h0C141.991,7.97,142.117,8.343,142.243,8.687Z" transform="translate(-140.677 9.861)"/><path class="a" d="M142.188,9.095a10.957,10.957,0,0,0,1.434-.155h0c-.189-.281-.344-.562-.5-.843h0c-.034-.063-.063-.092-.063-.155h0a8.946,8.946,0,0,0-.872,1.153Z" transform="translate(-139.309 11.358)"/><path class="a" d="M142.478,8.929a.526.526,0,0,0,.092.155h0a7.788,7.788,0,0,1,.814-1.124H142.6c-.247,0-.465-.029-.591-.029h0c.126.344.31.654.47,1h0Z" transform="translate(-140.161 11.306)"/><path class="a" d="M142.362,9.461a9.229,9.229,0,0,0,1.405-.373h0c-.218-.252-.407-.5-.625-.78h0c-.034-.034-.063-.1-.092-.126h0a9.8,9.8,0,0,0-.688,1.279Z" transform="translate(-138.485 12.494)"/><path class="a" d="M142.746,9.253a.484.484,0,0,0,.126.155h0a8.272,8.272,0,0,1,.654-1.216h0a6.877,6.877,0,0,1-1.371.155h0c.189.315.407.625.591.906Z" transform="translate(-139.465 12.542)"/><path class="a" d="M142.574,9.77a8.072,8.072,0,0,0,1.342-.556h0c-.247-.224-.47-.442-.717-.688h0a.524.524,0,0,0-.126-.126h0a7.315,7.315,0,0,0-.5,1.377V9.77Z" transform="translate(-137.481 13.522)"/><path class="a" d="M143.068,9.608l.12.12h0a8.19,8.19,0,0,1,.5-1.308h0a6.682,6.682,0,0,1-1.342.344h0a5.61,5.61,0,0,0,.723.843h0Z" transform="translate(-138.565 13.626)"/><path class="a" d="M142.814,10a7.252,7.252,0,0,0,1.245-.751h0c-.281-.184-.528-.373-.78-.562h0c-.029-.029-.092-.063-.126-.092h0A4.752,4.752,0,0,0,142.814,10h0Z" transform="translate(-136.344 14.45)"/><path class="a" d="M143.43,9.872a.471.471,0,0,1,.155.126h0a7.043,7.043,0,0,1,.315-1.377h0a5.748,5.748,0,0,1-1.342.533h0a10.546,10.546,0,0,0,.872.717h0Z" transform="translate(-137.557 14.578)"/><path class="a" d="M143.08,9.906v.281h0a7.4,7.4,0,0,0,1.124-.906h0c-.281-.12-.591-.281-.872-.436h0c-.063-.029-.092-.063-.155-.092h0a7.054,7.054,0,0,0-.1,1.153h0Z" transform="translate(-135.085 15.198)"/><path class="a" d="M143.777,10.1c.063.034.092.063.155.1h0V9.852h0a6.567,6.567,0,0,1,.092-1.061h0a10.257,10.257,0,0,1-1.216.717h0a10.388,10.388,0,0,0,.969.591h0Z" transform="translate(-136.373 15.378)"/><path class="a" d="M143.352,8.97c-.006.086-.006.178-.006.264a6.179,6.179,0,0,0,.1,1.078h0a7.945,7.945,0,0,0,1-1.061h0c-.31-.092-.625-.218-.906-.31h0c-.063-.034-.092-.034-.155-.063h0a.113.113,0,0,0-.034.08c0,.006,0,.006.006.011h0Z" transform="translate(-133.825 15.79)"/><path class="a" d="M144.089,10.71c.063.029.126.029.189.063h0a8.835,8.835,0,0,1-.1-1.29V9.4h0a8.482,8.482,0,0,1-1.09.878h0a10.3,10.3,0,0,0,1,.436h0ZM143.309,8.834Z" transform="translate(-135.033 15.582)"/><path class="a" d="M143.894,10.37a7.769,7.769,0,0,0,.843-1.182h0c-.31-.063-.625-.126-.964-.189h0c-.063,0-.1-.029-.161-.029h0c.069.47.166.941.281,1.4Z" transform="translate(-132.561 16.231)"/><path class="a" d="M144.446,10.372a.379.379,0,0,0,.155.034h.034a10.269,10.269,0,0,1-.281-1.377h0a5.7,5.7,0,0,1-.969,1h0a6.941,6.941,0,0,0,1.061.344h0Z" transform="translate(-133.64 16.51)"/><path class="a" d="M144.361,10.4a8.2,8.2,0,0,0,.654-1.285h-.155a6.491,6.491,0,0,1-.814-.063h0a.176.176,0,0,1-.155-.029h0a8.856,8.856,0,0,0,.47,1.377h0Z" transform="translate(-131.244 16.458)"/><path class="a" d="M144.79,10.375h.029a.359.359,0,0,1,.155.034h0a7.77,7.77,0,0,1-.464-1.313h0a9.662,9.662,0,0,1-.814,1.124h0c.373.063.717.12,1.1.155Z" transform="translate(-132.172 16.823)"/><path class="a" d="M144.828,10.4a6.4,6.4,0,0,0,.47-1.377h0a9.068,9.068,0,0,1-.969.063h-.155a6.381,6.381,0,0,0,.654,1.313Z" transform="translate(-129.904 16.458)"/><path class="a" d="M144.166,10.362h1.153a9.6,9.6,0,0,1-.654-1.25h0a7.862,7.862,0,0,1-.654,1.25Z" transform="translate(-130.676 16.898)"/><path class="a" d="M145.294,10.375a6.492,6.492,0,0,0,.281-1.405v.006c-.315.086-.642.161-.964.218h0c-.063,0-.1.029-.161.029h0a7,7,0,0,0,.843,1.153h0Z" transform="translate(-128.592 16.226)"/><path class="a" d="M144.337,10.4c.379-.029.723-.092,1.1-.155h0c.063,0,.126-.029.189-.029h0a12.705,12.705,0,0,1-.814-1.124h0a7.118,7.118,0,0,1-.47,1.308h0Z" transform="translate(-129.132 16.823)"/><path class="a" d="M145.7,11.274c.029-.218.063-.6.092-.935h0v-.5h0c-.31.12-.591.247-.906.338h0c-.063.034-.092.034-.155.063h0a10.316,10.316,0,0,0,.969,1.032h0ZM144.884,8.682Z" transform="translate(-127.276 14.862)"/><path class="a" d="M144.658,10.407c.344-.092.723-.189,1.067-.315h0c.057-.029.12-.029.184-.063h0a9.389,9.389,0,0,1-.969-1h0a11.217,11.217,0,0,1-.275,1.377h-.006Z" transform="translate(-127.612 16.51)"/><path class="a" d="M146.138,10.187h0v-.075a7.182,7.182,0,0,0-.126-1.359h.006c-.281.155-.562.31-.878.47h0c-.063.029-.092.063-.155.063h0a9.732,9.732,0,0,0,1.153.9h0Z" transform="translate(-126.063 15.198)"/><path class="a" d="M145.055,9.4a.349.349,0,0,1,.006.08,3.908,3.908,0,0,1-.1.855h0a10.3,10.3,0,0,0,1-.436h0a.544.544,0,0,0,.155-.1h0a8.348,8.348,0,0,1-1.09-.872h0a2.19,2.19,0,0,1,.034.39V9.4h-.006Z" transform="translate(-126.168 16.022)"/><path class="a" d="M146.457,10a7.432,7.432,0,0,0-.315-1.405h0a6.246,6.246,0,0,1-.78.562h0c-.029.029-.092.063-.126.092h0a7.845,7.845,0,0,0,1.222.751h0Z" transform="translate(-124.88 14.45)"/><path class="a" d="M145.333,10.173h0c.31-.155.625-.379.935-.562h0c.063-.034.1-.063.155-.092h0a8.92,8.92,0,0,1-1.181-.723h0a11.1,11.1,0,0,1,.092,1.377Z" transform="translate(-124.851 15.402)"/><path class="a" d="M146.772,9.746a12.538,12.538,0,0,0-.493-1.342h-.006c-.218.252-.465.47-.682.688h0c-.034.034-.1.063-.126.092h0a8.475,8.475,0,0,0,1.308.562h0Z" transform="translate(-123.795 13.546)"/><path class="a" d="M145.784,10c.281-.218.562-.47.843-.717h0l.12-.126h0a6.932,6.932,0,0,1-1.279-.533h0a5.383,5.383,0,0,1,.31,1.377h.006Z" transform="translate(-123.772 14.578)"/><path class="a" d="M147.031,9.559a8.557,8.557,0,0,0-.683-1.279h0c-.189.247-.378.528-.6.78h0c-.029.029-.063.092-.092.126h0a9.5,9.5,0,0,0,1.371.373h0ZM146.343,8.16Z" transform="translate(-122.867 12.39)"/><path class="a" d="M146.157,9.729c.247-.247.5-.528.746-.809h0c.034-.063.092-.1.126-.155h0a10.7,10.7,0,0,1-1.342-.344h0a7.572,7.572,0,0,1,.47,1.308h0Z" transform="translate(-122.739 13.626)"/><path class="a" d="M147.228,9.095h.029a7.708,7.708,0,0,0-.872-1.153h0l-.47.843h0c-.029.029-.063.092-.092.126h0a5.83,5.83,0,0,0,1.405.184Z" transform="translate(-122.095 11.358)"/><path class="a" d="M146.549,9.408a9.692,9.692,0,0,0,.625-.9h0c.029-.063.063-.1.092-.161H147.2a7.58,7.58,0,0,1-1.342-.155h0a8.477,8.477,0,0,1,.688,1.216Z" transform="translate(-121.915 12.542)"/><path class="a" d="M146.268,8.747c.407,0,.872,0,1.153-.029h0a7.935,7.935,0,0,0-1.027-1.032h0a5.411,5.411,0,0,1-.378.906h0c-.029.063-.029.092-.063.155Z" transform="translate(-121.48 10.146)"/><path class="a" d="M146.851,9.118a10.775,10.775,0,0,0,.5-1h0a.436.436,0,0,0,.063-.189h0a12.111,12.111,0,0,1-1.216.063h-.189a5.386,5.386,0,0,1,.843,1.124Z" transform="translate(-121.219 11.306)"/><path class="a" d="M146.1,8.349c0,.063-.034.1-.034.161h0a8.644,8.644,0,0,0,1.44-.224h0a6.383,6.383,0,0,0-1.159-.872h0c-.092.31-.155.625-.247.935Z" transform="translate(-120.963 8.858)"/><path class="a" d="M147.091,8.876c.132-.344.247-.705.344-1.061h0c.034-.063.034-.126.063-.189h0a7.4,7.4,0,0,1-1.377.218h0a13.759,13.759,0,0,1,.969,1.032Z" transform="translate(-120.679 9.861)"/><path class="a" d="M146.156,8.129c0,.063-.034.092-.034.155h0a7.246,7.246,0,0,0,1.377-.436h0a8.2,8.2,0,0,0-1.25-.717h0c-.029.344-.063.654-.092,1Z" transform="translate(-120.679 7.517)"/><path class="a" d="M147.312,8.59A6.359,6.359,0,0,0,147.5,7.5h0c0-.063.034-.126.034-.189h0a8.6,8.6,0,0,1-1.342.407h0a9.653,9.653,0,0,1,1.124.872Z" transform="translate(-120.367 8.37)"/><path class="a" d="M146.248,7.9v.155h0a8.577,8.577,0,0,0,1.314-.619h0A8.178,8.178,0,0,0,146.22,6.9h0c.029.344.029.654.029,1h0ZM146.122,6.837Z" transform="translate(-120.679 6.125)"/><path class="a" d="M147.442,8.28a4.3,4.3,0,0,0,.029-.47V7.718h0V7.184h0V7h0a7.119,7.119,0,0,1-1.25.591h0a5.817,5.817,0,0,1,1.222.688Z" transform="translate(-120.215 6.873)"/><path class="a" d="M146.36,7.587V7.61a.339.339,0,0,0,.029.132h0a7.357,7.357,0,0,0,1.222-.78h0a10.041,10.041,0,0,0-1.405-.344h0a9.246,9.246,0,0,0,.155.969ZM146.079,6.56Z" transform="translate(-120.883 4.813)"/><path class="a" d="M147.522,7.948c-.029-.373-.063-.717-.126-1.09h0V6.824a.37.37,0,0,0-.029-.155h0c-.281.218-.751.528-1.159.78h0a10.327,10.327,0,0,1,1.313.5Z" transform="translate(-120.267 5.33)"/><path class="a" d="M146.352,7.215a.267.267,0,0,1,.034.132c0,.011,0,.017-.006.023h0a8.067,8.067,0,0,0,1.1-.935h0a6.678,6.678,0,0,0-1.216-.126h-.252a4.453,4.453,0,0,1,.344.906h0Z" transform="translate(-121.219 3.625)"/><path class="a" d="M147.5,7.632c-.063-.338-.155-.717-.247-1.09h0c-.034-.063-.034-.126-.063-.189h0a9.99,9.99,0,0,1-1.032.935h0a6.68,6.68,0,0,1,1.342.344Z" transform="translate(-120.499 3.833)"/><path class="a" d="M146.358,6.972c.029.063.029.1.063.161h0a6.79,6.79,0,0,0,.935-1.1h-.126c-.373,0-.964.034-1.342.063h0a5.809,5.809,0,0,1,.47.872Z" transform="translate(-121.787 2.337)"/><path class="a" d="M147.45,7.275c-.126-.344-.252-.688-.407-1.032h0a.437.437,0,0,1-.063-.189h0a7.632,7.632,0,0,1-.906,1.061h.161a6.729,6.729,0,0,1,1.216.161Z" transform="translate(-120.911 2.413)"/><path class="a" d="M146.3,6.855c.034.034.063.1.1.126h0a8.13,8.13,0,0,0,.78-1.216h0a8.191,8.191,0,0,0-1.44.281h0c.189.247.378.528.562.809h0Z" transform="translate(-122.484 1.049)"/><path class="a" d="M145.943,6.957a9.426,9.426,0,0,1,1.067-.063h.338a7.45,7.45,0,0,0-.562-.969v.006c-.029-.063-.063-.1-.092-.161h0a8.818,8.818,0,0,1-.751,1.187h0Z" transform="translate(-121.527 1.072)"/><path class="a" d="M146.216,6.707a1.017,1.017,0,0,1,.092.126h0a6.893,6.893,0,0,0,.625-1.313h0a8.992,8.992,0,0,0-1.371.47h0c.218.218.436.465.654.717Z" transform="translate(-123.331 -0.111)"/><path class="a" d="M145.78,6.789a8.49,8.49,0,0,1,1.371-.252h0a9.98,9.98,0,0,0-.688-.872h0c-.029-.063-.092-.092-.12-.155h0a5.56,5.56,0,0,1-.562,1.285Z" transform="translate(-122.299 -0.159)"/><path class="a" d="M146.072,6.558a.489.489,0,0,1,.126.12h0a10.313,10.313,0,0,0,.442-1.371h0a7.123,7.123,0,0,0-1.285.654h0c.218.155.47.379.717.6Z" transform="translate(-124.311 -1.115)"/><path class="a" d="M145.584,6.628a6.8,6.8,0,0,1,1.342-.436h0c-.252-.281-.533-.528-.786-.78h0a.555.555,0,0,0-.155-.126h0a13.381,13.381,0,0,1-.4,1.342Z" transform="translate(-123.227 -1.22)"/><path class="a" d="M145.953,6.459c.029.034.092.063.126.1h0a8.077,8.077,0,0,0,.218-1.44h0a7.37,7.37,0,0,0-1.187.814h0c.281.189.562.344.843.528Z" transform="translate(-125.472 -2.02)"/><path class="a" d="M145.36,6.467a7.486,7.486,0,0,1,1.25-.625h0c-.281-.218-.591-.436-.906-.66h0c-.063-.029-.092-.057-.155-.092h0a5.566,5.566,0,0,1-.189,1.377Z" transform="translate(-124.288 -2.148)"/><path class="a" d="M145.732,6.37c.063.029.092.063.155.063h0A2.741,2.741,0,0,0,145.921,6V5.9h0V4.965h0a9.462,9.462,0,0,0-1.061.969h0c.281.155.591.31.872.436h0Z" transform="translate(-126.656 -2.74)"/><path class="a" d="M145.144,5.9v.075a1.925,1.925,0,0,1-.034.361h0a7.824,7.824,0,0,1,1.153-.78h0c-.31-.184-.654-.344-.964-.528h0a.669.669,0,0,1-.161-.1h0a9.021,9.021,0,0,1,0,.969h.006Z" transform="translate(-125.472 -2.896)"/><path class="a" d="M145.523,6.238c.063,0,.092.034.155.063h0a6.07,6.07,0,0,0-.189-1.434h0a8.885,8.885,0,0,0-.9,1.124h0c.31.063.625.155.935.247Z" transform="translate(-127.944 -3.204)"/><path class="a" d="M145,6.189a7.226,7.226,0,0,1,1.027-.935h0A7.323,7.323,0,0,0,145,4.881h0c-.063-.034-.126-.034-.189-.063h0a5.3,5.3,0,0,1,.184,1.371H145Z" transform="translate(-126.888 -3.436)"/><path class="a" d="M145.279,6.173c.063,0,.092.029.155.029h0a8.057,8.057,0,0,0-.373-1.405h0a7.09,7.09,0,0,0-.751,1.25h0C144.625,6.075,144.964,6.138,145.279,6.173Z" transform="translate(-129.26 -3.54)"/><path class="a" d="M144.874,6.084a7.983,7.983,0,0,1,.906-1.061h0c-.344-.092-.717-.155-1.09-.252h0c-.063,0-.126-.029-.189-.029h0a10.855,10.855,0,0,1,.378,1.342h-.006Z" transform="translate(-128.356 -3.796)"/><path class="a" d="M143.933,6.467a7.942,7.942,0,0,1-.189-1.377h0a8.509,8.509,0,0,0-.906.66h0a.515.515,0,0,0-.155.12h0a6.408,6.408,0,0,1,1.25.6Z" transform="translate(-136.965 -2.148)"/><path class="a" d="M142.905,7.531l-.315-.31c.034-.063.1-.315.161-.47a.869.869,0,0,1,.814-.568.9.9,0,0,1,.4.1.951.951,0,0,1,.493.832.932.932,0,0,1-.149.51,4.249,4.249,0,0,1-.281.407,3.49,3.49,0,0,1-.407-.155l.034-.092a.623.623,0,0,0,.149.023.5.5,0,0,0,.442-.275c.189-.344-.063-.688-.407-.872-.436-.218-.843-.126-1,.184a.66.66,0,0,0-.046.235.614.614,0,0,0,.172.424l-.063.029Z" transform="translate(-137.405 3.028)"/><path class="a" d="M144.077,8.739c0-.155-.029-.189-.155-.218-.092,0-.218-.034-.436-.034h-1.032V8.361l1.313-1.09h-.6c-.218,0-.338.029-.436.029-.12,0-.155.063-.183.252h-.1v-.66h.1c0,.161.063.224.155.224s.184.029.436.029h.562c.155,0,.218,0,.281-.063a.242.242,0,0,0,.092-.189V6.864h.1v.5l-1.159,1h.47c.218,0,.344-.029.436-.029.126,0,.155-.063.155-.252h.1v.66h-.1Z" transform="translate(-138.049 6.253)"/><path class="a" d="M143.915,8.109c.161-.092.315-.218.281-.436a.236.236,0,0,0-.235-.2.336.336,0,0,0-.075.011c-.155.034-.218.155-.281.407-.063.31-.189.5-.436.562a.493.493,0,0,1-.092.006.575.575,0,0,1-.568-.5,1.056,1.056,0,0,1-.029-.235V7.673c0-.011-.006-.023-.006-.034a.27.27,0,0,1,.034-.12,2.7,2.7,0,0,1,.407-.155l.063.092c-.155.092-.407.31-.344.562a.24.24,0,0,0,.235.2.2.2,0,0,0,.08-.017c.155-.029.218-.155.281-.373a.662.662,0,0,1,.4-.562.638.638,0,0,1,.1-.011.534.534,0,0,1,.528.482.642.642,0,0,1,.023.184.717.717,0,0,1-.023.189c-.092.034-.189.063-.344.126V8.109Z" transform="translate(-137.95 8.1)"/><path class="a" d="M144.158,8.983c.126-.092.189-.155.189-.218.029-.063,0-.126-.063-.281l-.063-.126-1.1.528c-.218.1-.218.126-.12.344l-.1.034-.338-.78.092-.034c.092.189.126.218.344.126l1.124-.5-.063-.092c-.092-.189-.126-.218-.189-.252a.386.386,0,0,0-.138-.023.4.4,0,0,0-.143.023l-.029-.092a4.045,4.045,0,0,0,.5-.189l.029.063a.186.186,0,0,0-.023.08.163.163,0,0,0,.023.075l.436.969a.246.246,0,0,0,.126.126l.034.063a3.154,3.154,0,0,1-.47.218l-.063-.063Z" transform="translate(-137.504 9.037)"/><path class="a" d="M143.223,8.9l.063-.063c.1.126.161.1.224,0a1.531,1.531,0,0,0,.184-.247l-.281-.407-.281.092c-.12.034-.155.063-.063.252l-.092.029-.31-.465.057-.063c.126.126.161.126.379.092l1.405-.31.092.092c-.281.407-.562.78-.843,1.187-.126.218-.155.247-.063.407l-.063.057-.407-.654Zm1.187-.964h0a2.984,2.984,0,0,0-.591.155l.218.344Z" transform="translate(-137.04 10.714)"/><path class="a" d="M145.322,9.273c-.126-.092-.189-.092-.252-.029a2.258,2.258,0,0,0-.31.31l-.688.78-.126-.092.063-1.721h0l-.4.442a1.957,1.957,0,0,0-.281.338c-.063.1-.063.161.063.315l-.063.063-.442-.465.063-.063c.126.092.189.092.281.029a2.677,2.677,0,0,0,.315-.31l.373-.407c.126-.126.155-.155.155-.247s-.029-.126-.092-.224l.063-.063.373.315-.034,1.526h0l.315-.344c.155-.155.218-.281.281-.344.063-.092.063-.155-.1-.31l.063-.063.47.436-.092.126Z" transform="translate(-136.013 11.306)"/><path class="a" d="M144.807,9.289a1.318,1.318,0,0,0,.029-.258V9.008c-.029-.063-.063-.092-.218-.189l-.092-.063-.6,1.1c-.092.189-.092.218.126.344l-.029.092-.751-.407.034-.092c.218.092.218.092.338-.126l.6-1.09-.092-.034a.628.628,0,0,0-.315-.092.975.975,0,0,0-.218.189l-.092-.034c.092-.155.218-.31.281-.436l.063.034c0,.063.029.092.092.12l.935.5a.132.132,0,0,0,.08.023.115.115,0,0,0,.075-.023l.063.034a4.289,4.289,0,0,0-.218.465l-.092-.029Z" transform="translate(-134.156 12.414)"/><path class="a" d="M143.559,9.964l.034-.092c.184.034.218.034.275-.189l.315-.964c.063-.218.063-.252-.126-.315l.034-.092.746.252-.029.092c-.189-.034-.218-.034-.281.184l-.315.969c-.063.218-.063.247.126.31l-.029.1-.751-.252Z" transform="translate(-132.816 13.11)"/><path class="a" d="M144.753,10.109v-.1c.155,0,.184-.029.155-.155a1.417,1.417,0,0,0-.063-.31l-.5-.063a1.238,1.238,0,0,0-.126.281c-.063.12-.063.155.126.218v.092l-.6-.092v-.1c.189,0,.224-.029.315-.218l.717-1.279h.126c.092.47.218.969.31,1.434.063.252.1.281.252.315v.092l-.717-.12Zm.029-1.382h0c-.092.189-.183.344-.281.533l.407.057-.126-.591Z" transform="translate(-131.917 13.47)"/><path class="a" d="M145.026,8.416a1.007,1.007,0,0,1,.78.092.638.638,0,0,1,.31.5.71.71,0,0,1,.023.189.857.857,0,0,1-.212.562,1.114,1.114,0,0,1-.746.338l-.654.126-.034-.092c.189-.063.218-.063.189-.31l-.189-1c-.029-.224-.063-.224-.247-.224l-.034-.092.814-.092Zm-.017,1.354c.029.189.092.252.247.218.344-.063.533-.373.442-.843a.791.791,0,0,0-.281-.528.556.556,0,0,0-.321-.109.37.37,0,0,0-.115.017.78.78,0,0,0-.161.063c-.029.029-.029.057,0,.155Z" transform="translate(-129.724 13.413)"/><path class="a" d="M145.117,10.166l-.034-.092c.189-.1.189-.126.126-.315l-.344-.935c-.063-.218-.092-.218-.281-.155l-.029-.1.746-.281.034.1c-.189.092-.189.12-.126.31l.344.935c.063.224.092.224.281.161l.034.092-.751.281Z" transform="translate(-128.1 13.006)"/><path class="a" d="M146.313,8.179c-.126.092-.155.155-.126.436.034.218.161.843.252,1.405l-.092.063c-.407-.31-.941-.717-1.187-.906-.189-.126-.252-.126-.373-.063l-.063-.063.654-.4.063.092c-.155.126-.126.155-.034.218.189.126.625.47.843.654h0a9.56,9.56,0,0,1-.184-.964c-.063-.189-.063-.224-.252-.126l-.092-.092.528-.315.063.063Z" transform="translate(-127.299 12.182)"/><path class="a" d="M146.171,9.775l-.063-.063c.126-.161.126-.189,0-.344l-.688-.751c-.155-.155-.184-.155-.344-.029l-.057-.063.591-.533.063.063c-.126.155-.126.189.029.344l.688.751c.155.155.189.155.344.029l.063.063-.625.533Z" transform="translate(-125.907 11.59)"/><path class="a" d="M146.422,8.114c-.12-.063-.218-.1-.281-.063-.057,0-.12.063-.218.184l-.063.1,1,.746c.189.126.224.126.378-.063l.063.063-.5.688-.063-.063c.12-.189.12-.218-.063-.344l-1-.751-.092.063c-.126.189-.126.218-.126.281a.449.449,0,0,0,.155.252l-.063.092c-.155-.126-.281-.247-.407-.344l.034-.063c.063,0,.092-.029.155-.092l.625-.843c.029-.063.063-.092.029-.155l.029-.063c.092.063.281.189.436.281l-.029.1Z" transform="translate(-125.315 10.378)"/><path class="a" d="M146.864,9.069l-.092-.034c.063-.184.063-.218-.126-.31l-.906-.436c-.189-.092-.218-.092-.344.092l-.063-.092.344-.717.092.029c-.057.189-.057.218.126.315l.906.436c.189.092.218.092.31-.092l.1.029-.344.78Z" transform="translate(-124.416 9.606)"/><path class="a" d="M147.157,8.043l-.092-.029c.034-.155,0-.189-.126-.155-.011,0-.023-.006-.04-.006a1.052,1.052,0,0,0-.27.034l-.155.5a1.793,1.793,0,0,0,.247.155c.126.063.155.063.218-.092l.1.029-.161.562-.092-.029c.034-.189,0-.218-.189-.344l-1.153-.906v-.12l1.468-.1c.247-.029.281-.029.344-.184l.092.029-.189.654Zm-1.342-.235h0l.47.373.12-.407Z" transform="translate(-123.9 8.602)"/><path class="a" d="M147.343,7.024v.1c-.034.344-.126.436-.281.528-.126.063-.252.126-.407.189a.159.159,0,0,0-.126.155h0v.063l.373.034c.224.029.252,0,.281-.224h.1l-.063.78h-.092c0-.184-.034-.218-.252-.247l-1-.063c-.218-.029-.247,0-.281.189h-.1l.063-.751a1.364,1.364,0,0,1,.126-.47.437.437,0,0,1,.333-.155h.04a.5.5,0,0,1,.407.379q.189-.086.379-.189a1.722,1.722,0,0,0,.31-.189A.552.552,0,0,0,147.28,7l.063.029Zm-.941.941a.158.158,0,0,0,.006-.052.328.328,0,0,0-.069-.2c-.063-.092-.155-.12-.31-.155-.281-.029-.407.126-.407.281,0,.063,0,.092.034.126,0,.029.029.029.092.029l.625.063.029-.092Z" transform="translate(-123.644 6.873)"/><path class="a" d="M145.538,6.658c.029.155.092.184.183.184h.029a1.8,1.8,0,0,0,.35-.029l.281-.034a1.334,1.334,0,0,1,.218-.023.951.951,0,0,1,.464.12.624.624,0,0,1,.252.436,1.107,1.107,0,0,1,.011.138.7.7,0,0,1-.075.327.835.835,0,0,1-.6.315l-.619.092c-.252.034-.252.063-.252.252h-.092l-.092-.751h.092c.029.189.063.218.31.189l.562-.1c.379-.057.6-.218.562-.5-.029-.31-.31-.4-.717-.338l-.281.029a1.174,1.174,0,0,0-.344.092c-.092.034-.126.1-.126.281h-.092l-.092-.654.063-.029Z" transform="translate(-123.743 5.278)"/><path class="a" d="M147.2,6.874l-.092.029c-.092-.155-.126-.189-.344-.063l-.9.436h0l1.463-.029.034.063-1,1.027h0l.625-.247a2.53,2.53,0,0,0,.373-.189c.092-.063.092-.126.029-.281l.1-.029.247.562-.092.029c-.063-.126-.126-.155-.218-.126s-.218.063-.47.161l-.5.184c-.281.1-.31.126-.218.344l-.092.034-.218-.5.837-.941h-1.245l-.218-.465.092-.034c.092.189.126.189.31.1l.877-.442c.218-.092.218-.12.155-.31l.092-.034.373.723Z" transform="translate(-124.567 2.877)"/><path class="a" d="M143.3,6.078a.237.237,0,0,1,.086.189.264.264,0,0,1-.052.155.256.256,0,0,1-.189.086.226.226,0,0,1-.155-.057.237.237,0,0,1-.086-.189.264.264,0,0,1,.052-.155.248.248,0,0,1,.189-.1.2.2,0,0,1,.155.069h0Z" transform="translate(-135.928 2.204)"/><path class="a" d="M144.864,6.561a2.816,2.816,0,0,1,.224.407l-1.032.872-.063-.092c.155-.155.155-.189.029-.344l-.654-.78c-.155-.189-.189-.155-.344-.063L142.96,6.5l.941-.809.281.281-.063.063a.444.444,0,0,0-.218-.1c-.063,0-.126.034-.252.126l-.092.092c-.063.063-.092.063-.034.126l.379.436.12-.12c.161-.161.189-.189.1-.344l.063-.063.344.4-.063.063c-.161-.12-.189-.092-.344.034l-.126.126.281.344c.092.092.126.12.189.12s.12-.063.183-.12c.1-.1.161-.161.161-.252a2.226,2.226,0,0,0-.063-.281l.12-.063Z" transform="translate(-135.653 0.689)"/><path class="a" d="M144.719,5.981a.976.976,0,0,0-.218-.189c-.057-.029-.12,0-.247.063l-.126.063.6,1.1c.092.189.12.189.344.092l.029.092-.751.407-.029-.092c.189-.126.189-.155.092-.344l-.591-1.1-.092.034c-.189.092-.224.155-.224.218-.029.063,0,.155.034.281l-.092.029c-.1-.184-.161-.338-.224-.465l.063-.034a.152.152,0,0,0,.161,0l.935-.5c.063-.029.092-.063.092-.12l.063-.034c.063.092.189.281.281.436l-.1.063Z" transform="translate(-134.412 -0.291)"/><path class="a" d="M145.36,5.408c-.189.063-.218.092-.155.315l.247.964c.063.218.092.218.281.189l.034.092-.78.218-.034-.092c.189-.063.218-.092.155-.31l-.12-.47L144.3,6.5l.126.465c.063.224.092.224.281.189l.029.092-.751.189-.029-.092c.189-.063.189-.1.155-.315l-.247-.935c-.063-.218-.1-.218-.281-.189l-.034-.092.751-.189.029.1c-.184.063-.184.092-.12.31l.092.373.688-.184-.1-.379c-.063-.218-.092-.218-.281-.184l-.029-.1.751-.184.029.029Z" transform="translate(-132.868 -0.779)"/><path class="a" d="M145.429,6.607a1.9,1.9,0,0,1-.092.436H144v-.1c.218-.029.247-.029.247-.247v-1c0-.218-.029-.247-.218-.247v-.1h1.25c0,.063.034.218.034.407h-.1a.4.4,0,0,0-.12-.224.434.434,0,0,0-.218-.063h-.161c-.092,0-.092,0-.092.1v.562h.189c.218,0,.247-.034.281-.189h.092v.533h-.092c-.034-.189-.063-.189-.281-.189h-.189v.465c0,.126,0,.189.063.224a.551.551,0,0,0,.189.034c.023,0,.04-.006.063-.006h.029a.413.413,0,0,0,.252-.092,1.853,1.853,0,0,0,.155-.252l.057-.057Z" transform="translate(-130.752 -0.883)"/><path class="a" d="M146.421,5.943c-.12-.034-.184,0-.247.126a3.25,3.25,0,0,0-.126.4l-.247,1-.126-.029-.751-1.531h0l-.12.562a1.232,1.232,0,0,0-.063.407c0,.12.029.184.218.218l-.034.092-.625-.155.034-.092c.155.029.218,0,.247-.126.034-.092.063-.184.126-.4l.126-.533a.443.443,0,0,0,0-.281c-.034-.063-.092-.092-.189-.155l.034-.092.465.12.717,1.342h0l.1-.436c.063-.218.063-.344.092-.436,0-.126-.034-.155-.218-.218l.029-.092.625.155Z" transform="translate(-129.312 -0.907)"/><path class="a" d="M146.1,7.255a3.157,3.157,0,0,1-.275.344L144.637,7l.029-.092c.218.092.252.092.344-.126l.436-.906c.1-.218.1-.218-.063-.31l.034-.092,1.09.562a3,3,0,0,0-.155.373l-.092-.029a.326.326,0,0,0,.023-.126.309.309,0,0,0-.023-.126.342.342,0,0,0-.218-.189l-.126-.063c-.092-.029-.092-.029-.12.034l-.252.5.155.092c.189.092.224.092.344-.029l.1.029-.252.47L145.8,6.94c.063-.189.029-.218-.155-.31l-.126-.063-.218.4c-.063.126-.063.189-.034.224a1.062,1.062,0,0,0,.189.12.42.42,0,0,0,.229.075.339.339,0,0,0,.08-.011,2.293,2.293,0,0,0,.252-.155l.086.034Z" transform="translate(-127.711 -0.315)"/><path class="a" d="M145.667,7.143l.063-.063c.126.092.155.063.218-.063a2.691,2.691,0,0,0,.092-.281l-.373-.315c-.086.052-.166.1-.247.161-.1.063-.126.092,0,.247l-.1.063-.436-.373.063-.063c.155.092.189.092.407-.034l1.279-.683.126.063c-.155.465-.344.9-.5,1.371-.092.252-.063.281.034.407l-.063.063-.568-.5Zm.814-1.159h0a4.379,4.379,0,0,0-.528.31l.31.252Z" transform="translate(-126.528 0.921)"/><path class="a" d="M145.67,6.436a.271.271,0,0,1-.155.057.244.244,0,1,1,0-.488.234.234,0,0,1,.184.086.245.245,0,0,1-.029.344Z" transform="translate(-124.719 2.19)"/><path class="a" d="M143.363,6.512a.895.895,0,1,1-.889.895A.9.9,0,0,1,143.363,6.512Zm0,.212a.683.683,0,1,1-.683.683A.681.681,0,0,1,143.363,6.724Z" transform="translate(-137.954 4.586)"/><rect class="b" width="135" height="60" transform="translate(-1.636 -16.571)"/></g></svg>