<svg xmlns="http://www.w3.org/2000/svg" width="135" height="60" viewBox="0 0 135 60"><defs><style>.a{fill:#fff;}.b{fill:none;}</style></defs><g transform="translate(15.861 20.909)"><path class="a" d="M216.114,5.466h-6.693l-5.248,6.143V5.466H199.1L199.068,15l-5.139-9.538h-5.552V23.3h5.133l.046-9.739L198.97,23.3h5.2V18.027l1.864-1.675,4.348,6.946h6.768l-7.433-10.863Z" transform="translate(-135.766 -5.024)"/><path class="a" d="M189.161,17.663h2.426a2.282,2.282,0,0,1-1.055,1.485,3.412,3.412,0,0,1-1.8.493,3.811,3.811,0,0,1-2.535-.82A3.951,3.951,0,0,1,185,16.975a6.172,6.172,0,0,1-.3-1.939,11.648,11.648,0,0,1,.1-1.893,4.523,4.523,0,0,1,.923-2.237,3.245,3.245,0,0,1,2.627-1.073,2.615,2.615,0,0,1,2.6,2.225h5.277a8.175,8.175,0,0,0-2.707-4.915A8.214,8.214,0,0,0,188.5,5.389h-1a9.317,9.317,0,0,0-3.556.952,8.115,8.115,0,0,0-3.344,3.074A10.39,10.39,0,0,0,179.2,14.91a10.408,10.408,0,0,0,1.032,4.64,8.1,8.1,0,0,0,2.937,3.286,8.443,8.443,0,0,0,4.56,1.256,7.251,7.251,0,0,0,2.81-.533,5.568,5.568,0,0,0,2.271-1.721l.172,1.83h3.476V13.837h-7.3v3.826Z" transform="translate(-179.204 -5.389)"/><path class="a" d="M192.5,12.975a3.673,3.673,0,0,1-1.6.293h-2.879V9.712h2.581a3.66,3.66,0,0,1,2.151.465,1.486,1.486,0,0,1,.579,1.313,1.52,1.52,0,0,1-.832,1.485Zm6.361,7.714c-.034-.488-.057-.889-.08-1.2a6.89,6.89,0,0,0-.826-2.845,3.56,3.56,0,0,0-1.8-1.606,3.8,3.8,0,0,0,2.025-1.8,5.713,5.713,0,0,0,.654-2.684,4.91,4.91,0,0,0-.814-2.822,4.934,4.934,0,0,0-2.116-1.709,7.21,7.21,0,0,0-2.9-.568H182.525v17.86h5.5V17.094h2.931a2.181,2.181,0,0,1,1.577.522,2.543,2.543,0,0,1,.677,1.3,11.545,11.545,0,0,1,.224,1.658c.034.465.086.923.149,1.382a9.456,9.456,0,0,0,.3,1.371h5.5a3.443,3.443,0,0,1-.361-1.164,14.032,14.032,0,0,1-.161-1.468Z" transform="translate(-163.478 -5.043)"/><path class="a" d="M191.06,16.514h8.431v-4.25H191.06V10.033h9.286V5.462H185.56v17.86h15.061V18.745H191.06Z" transform="translate(-149.105 -5.043)"/><path class="a" d="M198.985,18.745V16.514h8.431v-4.25h-8.431V10.033h9.286V5.462H193.485v17.86h15.061V18.745Z" transform="translate(-111.577 -5.043)"/><path class="a" d="M201.154,9.471a2.381,2.381,0,0,1-.849.872,2.463,2.463,0,0,1-2.472,0,2.294,2.294,0,0,1-.849-.872,2.579,2.579,0,0,1,0-2.472,2.44,2.44,0,0,1,3.321-.872,2.426,2.426,0,0,1,.849.872,2.579,2.579,0,0,1,0,2.472Zm.379-2.684a2.87,2.87,0,0,0-1.015-1.015,2.96,2.96,0,0,0-2.9,0,2.781,2.781,0,0,0-1.015,1.015,2.96,2.96,0,0,0,0,2.9,2.781,2.781,0,0,0,1.015,1.015,2.834,2.834,0,0,0,4.29-2.466A2.919,2.919,0,0,0,201.532,6.787Z" transform="translate(-98.592 -5.37)"/><path class="a" d="M197.478,7.087h-.533V5.946h.74a1.133,1.133,0,0,1,.539.109.479.479,0,0,1,.241.459.467.467,0,0,1-.3.493A2.085,2.085,0,0,1,197.478,7.087Zm1.147.069a.858.858,0,0,0,.247-.642.861.861,0,0,0-.258-.677A1.191,1.191,0,0,0,197.8,5.6h-1.256V8.888h.4V7.426h.683l.923,1.463h.476l-.981-1.463A1.029,1.029,0,0,0,198.625,7.156Z" transform="translate(-97.096 -4.38)"/><rect class="b" width="135" height="60" transform="translate(-15.861 -20.909)"/></g></svg>