<svg xmlns="http://www.w3.org/2000/svg" width="109.389" height="129.89" viewBox="0 0 109.389 129.89"><defs><style>.a{opacity:0.15;}.b{fill:#fff;}</style></defs><g class="a" transform="translate(-70.348 36.213) rotate(-20)"><path class="b" d="M180.613,29.117l-7.471-4.754V17.269a1.362,1.362,0,0,0-2.723,0V22.63L150.907,10.213a1.362,1.362,0,0,0-1.462,0l-29.705,18.9a1.362,1.362,0,0,0,.731,2.51h6.74V69.963a1.362,1.362,0,0,0,1.362,1.362H171.78a1.362,1.362,0,0,0,1.362-1.362V31.628h6.74a1.362,1.362,0,0,0,.731-2.51ZM137.151,58.136a1.362,1.362,0,0,0-1.36-1.286H134.4l0-5.178a3.805,3.805,0,0,1,3.792-3.788l5.114,0h0a3.8,3.8,0,0,1,3.144,1.674l.008.013a4.178,4.178,0,0,0-.25,1.418,4.221,4.221,0,0,0,4.218,4.21h0a4.218,4.218,0,0,0,4.2-3.925c.014-.011.026-.024.04-.035a3.745,3.745,0,0,1,2.367-.837l5.113,0h0a3.794,3.794,0,0,1,3.794,3.782l0,3.922h-1.388a1.362,1.362,0,0,0-1.359,1.285l-.517,9.217H154.5l.169-1.86h1.472a1.362,1.362,0,0,0,1.362-1.363l0-3.635a6.456,6.456,0,0,0-6.456-6.439h-.006l-1.237,0a6.463,6.463,0,0,0-6.448,6.448l0,3.635a1.362,1.362,0,0,0,1.362,1.362H146.2l.18,1.851h-8.647Zm13.276-8.643a1.49,1.49,0,1,1-1.49,1.49,1.49,1.49,0,0,1,1.49-1.49Zm-1.639,15.764a1.362,1.362,0,0,0-1.355-1.23H146.08l0-2.274a3.74,3.74,0,0,1,3.73-3.722l1.237,0h0a3.729,3.729,0,0,1,3.728,3.716l0,2.274h-1.353a1.362,1.362,0,0,0-1.355,1.239l-.3,3.345h-2.652ZM171.78,28.905a1.362,1.362,0,0,0-1.362,1.362V68.6h-5l.436-7.78h1.463a1.362,1.362,0,0,0,1.362-1.362l0-5.284a6.521,6.521,0,0,0-6.519-6.5h0l-5.114,0a6.521,6.521,0,0,0-3.195.846,4.213,4.213,0,0,0-3.415-1.75h0a4.189,4.189,0,0,0-2.2.63,6.513,6.513,0,0,0-4.913-2.242h0l-5.113,0a6.529,6.529,0,0,0-6.513,6.513l0,6.54a1.362,1.362,0,0,0,1.362,1.362H134.5L135,68.6h-5.067V30.267a1.362,1.362,0,0,0-1.362-1.362h-3.425l25.029-15.929L170.87,26.145a1.362,1.362,0,0,0,.389.248l3.947,2.513Z" transform="translate(-47.887 0)"/><path class="b" d="M237.563,54.027a5.412,5.412,0,1,0,5.412,5.412A5.412,5.412,0,0,0,237.563,54.027Zm0,8.1a2.689,2.689,0,1,1,2.689-2.689,2.689,2.689,0,0,1-2.689,2.689Z" transform="translate(-135.274 -34.035)"/><path class="b" d="M196.542,116.346h0a5.222,5.222,0,1,0,0,10.444h0a5.222,5.222,0,1,0,0-10.444Zm1.774,6.987a2.492,2.492,0,0,1-1.772.734h0a2.5,2.5,0,1,1,0-5v-1.362l0,1.362a2.505,2.505,0,0,1,2.505,2.5A2.479,2.479,0,0,1,198.315,123.332Z" transform="translate(-103.708 -82.21)"/><path class="b" d="M284.292,128.573h-1.43a5.208,5.208,0,0,0-3.274-1.154h0a5.222,5.222,0,1,0,0,10.444h0a5.2,5.2,0,0,0,4.481-2.545h.218a3.372,3.372,0,1,0,0-6.744Zm-2.929,5.833a2.5,2.5,0,1,1-1.775-4.263h0a2.505,2.505,0,0,1,2.505,2.5,2.48,2.48,0,0,1-.733,1.766Zm3.445-2.071a5.175,5.175,0,0,0-.136-.912.64.64,0,0,1,.136.912Z" transform="translate(-167.907 -90.771)"/><path class="b" d="M99.007,242.838a1.386,1.386,0,0,0-1.445.14l-1.793,1.367a6.386,6.386,0,0,1-.084-.695l-.154-2.628c0-.037-.007-.074-.012-.111a14.446,14.446,0,0,0-9.593-11.669l-.855-.3a8.07,8.07,0,0,1-3.037-1.9l-4.1-4.1-1.4-4.735a6.748,6.748,0,0,0-5.631-4.927l-.18-.6c0-.011-.007-.023-.01-.033a5.279,5.279,0,0,0-5.17-3.385l-.006-.021A6.112,6.112,0,0,0,58.2,205.05a1.362,1.362,0,0,0-1.011,1.57l4.55,24.488a1.4,1.4,0,0,0,.049.187,15.849,15.849,0,0,0,5.948,7.9l9.937,6.847c.024.017.049.032.074.047a3.041,3.041,0,0,1,1.36,1.757l1.663,7.38a1.355,1.355,0,0,0,.19.446l-1.773,1.384a1.329,1.329,0,0,0-.5,1.082v11.636a1.329,1.329,0,0,0,.681,1.2,1.29,1.29,0,0,0,.627.163,1.333,1.333,0,0,0,.741-.226l18.423-12.157a1.384,1.384,0,0,0,.634-1.135V244.059A1.388,1.388,0,0,0,99.007,242.838Zm-25.1-23.915c0,.012.006.023.01.036l.286.969a7.15,7.15,0,0,0-1.443-.451l-.93-3.106A4.019,4.019,0,0,1,73.907,218.922Zm-5.787-5.447,1.8,6a7.172,7.172,0,0,0-1.213.355l-2.323-7.764a2.371,2.371,0,0,1,1.738,1.411Zm13.634,33.733c-.006-.023-.012-.047-.018-.071a5.754,5.754,0,0,0-2.552-3.361l-9.9-6.822a13.1,13.1,0,0,1-4.885-6.443l-4.254-22.889a3.393,3.393,0,0,1,2.784,2.393l3.181,10.634.218.7c-.035.034-.071.066-.105.1a1.362,1.362,0,0,0,.045,1.968l4.978,4.547a31.992,31.992,0,0,1,3.926,4.305,1.362,1.362,0,1,0,2.171-1.644,34.738,34.738,0,0,0-4.26-4.673l-3.756-3.43a4.519,4.519,0,0,1,5.2.851l5.584,5.585a10.812,10.812,0,0,0,4.068,2.551l.854.3a11.733,11.733,0,0,1,7.784,9.424l.149,2.571a9.027,9.027,0,0,0,.45,2.335l-10.15,7.768Zm15.316,9.677L81.41,267.244v-8.432l15.659-12Z" transform="translate(0 -150.642)"/><path class="b" d="M308.6,205.049a6.111,6.111,0,0,0-7.338,4.186l-.006.021a5.276,5.276,0,0,0-5.17,3.385l-.01.033-.18.6a6.748,6.748,0,0,0-5.632,4.927l-1.4,4.735-4.1,4.1a8.074,8.074,0,0,1-3.037,1.9l-.854.3a14.447,14.447,0,0,0-9.593,11.669c-.005.037-.009.074-.011.111l-.153,2.628a6.316,6.316,0,0,1-.08.7l-1.786-1.367a1.41,1.41,0,0,0-1.458-.14,1.388,1.388,0,0,0-.786,1.221v13.559a1.389,1.389,0,0,0,.639,1.136l18.414,12.157a1.384,1.384,0,0,0,.758.226,1.236,1.236,0,0,0,.613-.163,1.332,1.332,0,0,0,.683-1.2V258.138a1.329,1.329,0,0,0-.5-1.081l-1.791-1.384a1.369,1.369,0,0,0,.2-.446l1.667-7.38a3.044,3.044,0,0,1,1.362-1.757c.025-.015.051-.031.075-.047l9.941-6.849a15.843,15.843,0,0,0,5.945-7.9,1.4,1.4,0,0,0,.049-.187l4.55-24.488A1.362,1.362,0,0,0,308.6,205.049Zm-9.922,8.426a2.37,2.37,0,0,1,1.738-1.411l-2.323,7.766a7.173,7.173,0,0,0-1.213-.355Zm-5.787,5.447a4.019,4.019,0,0,1,2.078-2.553l-.93,3.106a7.169,7.169,0,0,0-1.443.451l.286-.969c0-.013.005-.024.008-.036Zm-7.5,48.321-15.659-10.358v-10.07l15.659,12ZM302.4,230.512a13.1,13.1,0,0,1-4.882,6.441l-9.9,6.824a5.754,5.754,0,0,0-2.552,3.361c-.007.023-.012.047-.018.071l-1.51,6.7-10.15-7.768a9.03,9.03,0,0,0,.45-2.335l.149-2.571a11.733,11.733,0,0,1,7.784-9.424l.854-.3a10.815,10.815,0,0,0,4.068-2.551l5.584-5.584a4.519,4.519,0,0,1,5.2-.851l-3.755,3.431a34.721,34.721,0,0,0-4.26,4.673,1.362,1.362,0,0,0,2.172,1.644,32,32,0,0,1,3.926-4.305l4.979-4.548a1.362,1.362,0,0,0,.045-1.968c-.035-.034-.07-.067-.105-.1l.221-.715,3.177-10.621a3.392,3.392,0,0,1,2.783-2.393Z" transform="translate(-162.214 -150.641)"/></g></svg>