<svg xmlns="http://www.w3.org/2000/svg" width="96.335" height="112.425" viewBox="0 0 96.335 112.425"><defs><style>.a{opacity:0.2;}.b{fill:#fff;}</style></defs><g class="a" transform="matrix(0.966, 0.259, -0.259, 0.966, -34.318, -31.945)"><g transform="translate(60.355 13.597)"><path class="b" d="M83.579,91.794a1.272,1.272,0,0,0-.958-.7l-5.258-.763,3.8-3.708a1.272,1.272,0,0,0,.366-1.126l-.568-3.312L78.515,80.9l.9,5.237a1.272,1.272,0,0,1-.366,1.126l-3.8,3.708,5.258.763a1.272,1.272,0,0,1,.958.7l2.351,4.764,1.217-2.466Z" transform="translate(-75.243 -69.466)"/><path class="b" d="M138.312,127.464a1.272,1.272,0,0,0-.793.443l3.93-.571-.293-.285Z" transform="translate(-124.317 -105.833)"/><path class="b" d="M223.928,38.075a1.272,1.272,0,0,0-.958-.7l-5.258-.763,3.8-3.708a1.272,1.272,0,0,0,.366-1.126l-.607-3.546-2.41-1.267.9,5.237a1.272,1.272,0,0,1-.366,1.126l-3.806,3.708,5.258.763a1.272,1.272,0,0,1,.958.7l2.351,4.765,1.165-2.359Z" transform="translate(-185.838 -26.968)"/><path class="b" d="M279.748,74.435a1.266,1.266,0,0,0-.5.189l3.638-.529-.1-.1Z" transform="translate(-235.997 -64.024)"/><path class="b" d="M364.49,91.794a1.272,1.272,0,0,0-.958-.7l-5.258-.763,3.8-3.708a1.272,1.272,0,0,0,.366-1.126l-.547-3.19-2.683-1.41.9,5.237a1.272,1.272,0,0,1-.366,1.126l-3.8,3.708,5.258.763a1.272,1.272,0,0,1,.958.7l2.351,4.764,1.323-2.681Z" transform="translate(-296.431 -69.466)"/><path class="b" d="M420.134,127.563a1.271,1.271,0,0,0-.76.408l3.685-.536-.265-.259Z" transform="translate(-346.415 -105.932)"/></g><path class="b" d="M102.992,271.545a1.272,1.272,0,0,0,.9.372l3.809,0,1.593,28.775a1.272,1.272,0,0,0,1.271,1.2h14.885a1.272,1.272,0,0,0,1.27-1.207L127.527,285h1.449l1.526,15.741a1.272,1.272,0,0,0,1.267,1.148h7.754a1.272,1.272,0,0,0,1.267-1.157l1.428-15.747h.464l.977,15.712a1.272,1.272,0,0,0,1.269,1.193h14.885a1.272,1.272,0,0,0,1.27-1.2l1.485-26.5,3.812,0a1.272,1.272,0,0,0,1.272-1.272l-.005-9.634a10.677,10.677,0,0,0-10.673-10.65h-.008l-9.323.007a10.693,10.693,0,0,0-6.215,2.014,6.488,6.488,0,0,0-5.837-3.662h0a6.435,6.435,0,0,0-4.256,1.6,10.678,10.678,0,0,0-8.721-4.537H122.6l-9.323.007a10.692,10.692,0,0,0-10.666,10.664l.005,11.925a1.272,1.272,0,0,0,.374.9Zm38.064,10.9a1.272,1.272,0,0,0-1.266,1.157l-1.429,15.747h-5.437L131.4,283.605a1.272,1.272,0,0,0-1.266-1.149l-3.679,0,0-5.356a8.03,8.03,0,0,1,8.008-8l2.259-.007h.006a8.011,8.011,0,0,1,8.01,7.987l0,5.357Zm-5.468-28.908h0a3.927,3.927,0,1,1,0,7.853h0a3.927,3.927,0,1,1,0-7.853Zm-28.047-.544a8.079,8.079,0,0,1,5.739-2.389l9.323-.007h.006a8.141,8.141,0,0,1,6.733,3.583c.127.188.245.384.357.582a6.473,6.473,0,0,0,5.891,9.171h0a6.475,6.475,0,0,0,6.475-6.475v-.039c.161-.152.326-.3.5-.439a8.032,8.032,0,0,1,5.077-1.8l9.323-.007h.006a8.13,8.13,0,0,1,8.128,8.108l0,8.362-3.742,0a1.272,1.272,0,0,0-1.269,1.2l-1.485,26.5H146.123l-.893-14.362h.777a1.272,1.272,0,0,0,1.272-1.272l-.005-6.628a10.558,10.558,0,0,0-10.558-10.531h-.008l-2.259.007A10.574,10.574,0,0,0,123.9,277.106l.005,6.628a1.272,1.272,0,0,0,1.073,1.254l-.74,14.359H111.767l-1.593-28.775a1.272,1.272,0,0,0-1.27-1.2l-3.742,0,0-10.652a8.045,8.045,0,0,1,2.383-5.729Z" transform="translate(-36.456 -187.583)"/><path class="b" d="M143.782,169.882h.006a8.311,8.311,0,1,0-.006-16.621h-.006a8.311,8.311,0,1,0,.006,16.621Zm-4.09-12.384a5.745,5.745,0,0,1,4.086-1.693h0a5.766,5.766,0,1,1,0,11.533h0A5.779,5.779,0,0,1,138,161.577,5.721,5.721,0,0,1,139.692,157.5Z" transform="translate(-62.345 -112.888)"/><path class="b" d="M305.872,191.5h.006a8.332,8.332,0,0,0,7.463-4.641h1.106a4.938,4.938,0,1,0,0-9.875H311.4a8.3,8.3,0,0,0-5.528-2.105h-.006a8.311,8.311,0,0,0,.006,16.621Zm10.969-9.577a2.4,2.4,0,0,1-2.393,2.393h-.33a8.431,8.431,0,0,0,.077-1.132,8.25,8.25,0,0,0-.855-3.657h1.106A2.4,2.4,0,0,1,316.841,181.92Zm-15.059-2.806a5.747,5.747,0,0,1,4.086-1.693h0a5.775,5.775,0,0,1,4.452,2.094v.011h.009a5.765,5.765,0,0,1-4.457,9.428h0a5.764,5.764,0,0,1-4.09-9.84Z" transform="translate(-190.071 -129.921)"/><path class="b" d="M197.786,25.816l7.146,1.039,3.2,6.476a1.272,1.272,0,0,0,2.281,0l3.2-6.476,7.146-1.039a1.272,1.272,0,0,0,.7-2.17L216.287,18.6l1.221-7.118a1.272,1.272,0,0,0-1.846-1.341l-6.393,3.361-6.392-3.361a1.272,1.272,0,0,0-1.844,1.341l1.219,7.118-5.171,5.041a1.272,1.272,0,0,0,.7,2.17Zm6.721-5.855a1.272,1.272,0,0,0,.366-1.126l-.9-5.237,4.7,2.472a1.272,1.272,0,0,0,1.184,0l4.7-2.472-.9,5.237a1.272,1.272,0,0,0,.366,1.126l3.8,3.708-5.258.763a1.272,1.272,0,0,0-.958.7l-2.351,4.765-2.351-4.764a1.272,1.272,0,0,0-.958-.7l-5.258-.763Z" transform="translate(-110.592 0)"/><path class="b" d="M67.781,87.255a1.272,1.272,0,0,0,2.281,0l3.195-6.476L80.4,79.74a1.272,1.272,0,0,0,.7-2.17l-5.171-5.041,1.221-7.118a1.272,1.272,0,0,0-1.846-1.341l-6.391,3.361-6.392-3.361a1.272,1.272,0,0,0-1.846,1.341L61.9,72.53l-5.171,5.041a1.272,1.272,0,0,0,.7,2.17l7.147,1.039Zm-3.622-13.37a1.272,1.272,0,0,0,.366-1.126l-.9-5.235L68.329,70a1.272,1.272,0,0,0,1.184,0l4.7-2.472-.9,5.237a1.272,1.272,0,0,0,.366,1.126l3.8,3.708-5.258.763a1.272,1.272,0,0,0-.958.7l-2.351,4.764L66.57,79.053a1.272,1.272,0,0,0-.958-.7l-5.258-.763Z" transform="translate(0 -42.492)"/><path class="b" d="M356.638,72.531l1.221-7.118a1.272,1.272,0,0,0-1.846-1.341l-6.392,3.361-6.392-3.361a1.272,1.272,0,0,0-1.846,1.341l1.221,7.118-5.171,5.041a1.272,1.272,0,0,0,.7,2.17l7.147,1.039,3.2,6.476a1.272,1.272,0,0,0,2.281,0l3.2-6.476,7.147-1.039a1.272,1.272,0,0,0,.7-2.17Zm-3.708,5.827a1.272,1.272,0,0,0-.958.7l-2.351,4.764-2.351-4.764a1.272,1.272,0,0,0-.958-.7l-5.258-.763,3.8-3.708a1.272,1.272,0,0,0,.366-1.126l-.9-5.237,4.7,2.472a1.272,1.272,0,0,0,1.184,0l4.7-2.472-.9,5.237a1.272,1.272,0,0,0,.366,1.126l3.8,3.708Z" transform="translate(-221.189 -42.494)"/></g></svg>