<svg xmlns="http://www.w3.org/2000/svg" xmlns:xlink="http://www.w3.org/1999/xlink" width="40.5" height="40.456" viewBox="0 0 40.5 40.456"><defs><style>.a{fill:#fff;}.b,.e{fill:none;}.b{stroke:#fff;}.c{clip-path:url(#a);}.d{stroke:none;}</style><clipPath id="a"><path class="a" d="M0-64H13.292v21.244H0Z" transform="translate(0 64)"/></clipPath></defs><g class="b"><ellipse class="d" cx="20.25" cy="20.228" rx="20.25" ry="20.228"/><ellipse class="e" cx="20.25" cy="20.228" rx="19.75" ry="19.728"/></g><g transform="translate(13.5 10.114)"><g class="c"><g transform="translate(0 0)"><path class="a" d="M-13.354-20.736a3.587,3.587,0,0,1-3.589-3.585,3.586,3.586,0,0,1,3.589-3.584,3.586,3.586,0,0,1,3.589,3.584,3.587,3.587,0,0,1-3.589,3.585m0-10.3A6.643,6.643,0,0,0-20-24.4c0,6.339,6.646,14.606,6.646,14.606S-6.708-18.061-6.708-24.4a6.643,6.643,0,0,0-6.646-6.639" transform="translate(20 31.039)"/></g></g></g></svg>