<svg xmlns="http://www.w3.org/2000/svg" width="132.014" height="43.791" viewBox="0 0 132.014 43.791"><defs><style>.a{fill:#fff;fill-rule:evenodd;}</style></defs><g transform="translate(0 0.02)"><g transform="translate(0 -0.02)"><path class="a" d="M9207.269,6.337V17.69c0,7.6,5.913,6.6,12.409,6.6,1.262,0,.792-1.768.792-5.017,0-1.2-1.354-.792-4.225-.792V5.545h6.073V28.779c0,.608.184.792.792.792h7.393c.609,0,.792-.184.792-.792V6.865c0-3.669-1.137-6.865-5.28-6.865h-13.466a5.938,5.938,0,0,0-4.04,1.768c-.853.933-1.24,2.854-1.24,4.569Z" transform="translate(-9153.144 0)"/><path class="a" d="M0,4.489V19.538c0,5.577,7.745,4.752,12.145,4.752,1.261,0,.792-1.768.792-5.016,0-1.2-1.354-.792-4.224-.792V5.545h6.073V23.5c0,.608.184.792.792.792H22.97c.608,0,.792-.184.792-.792V0H5.017C2.456,0,0,1.88,0,4.489Z" transform="translate(0 0)"/><path class="a" d="M18513.074,5.554h6.07V18.492h-6.07Zm-8.715-1.056V19.548c0,3.588,3.463,4.752,7.129,4.752,4.383,0,16.105,1.144,16.105-3.7V3.442c0-1.97-2.715-3.432-4.75-3.432h-13.467c-2.561,0-5.018,1.88-5.018,4.488Z" transform="translate(-18395.58 -0.01)"/><path class="a" d="M4626.079,4.732V19.518c0,3.631,3.737,4.752,6.865,4.752h16.105c1.261,0,.792-1.768.792-5.016,0-.608-.184-.792-.792-.792h-14.257V5.524h6.072v9.769c0,1.874,6.272.373,7.472-.713,1.985-1.8,1.5-5.9,1.5-9.056a5.17,5.17,0,0,0-5.28-5.545H4631.1a4.862,4.862,0,0,0-5.017,4.752Z" transform="translate(-4598.884 0.02)"/><path class="a" d="M13878.3,19.528c0,3.588,3.462,4.752,7.128,4.752,19.336,0,16.636,2.03,16.636-24.29h-8.979V18.472h-6.072V-.01h-8.713V19.528Z" transform="translate(-13796.718 0.01)"/><path class="a" d="M21156.656,5436.459c0-1.723-.328-2.992,1.154-3.338.916-.214.834.144,2.014.17,0,4.466.582,5.3-2.9,4.488A3.756,3.756,0,0,1,21156.656,5436.459Zm5.281-3.96v6.746c-.312,3.191-1.752,4.6-7.395,3.288a9.524,9.524,0,0,1,.531-1.849c3.285.766,3.865.616,4.75-1.056-1.734.145-5.543,1.562-5.543-3.961C21154.281,5429.286,21161.938,5431.14,21161.938,5432.5Z" transform="translate(-21029.926 -5399.231)"/><path class="a" d="M11097.9,4950.249h-2.111v-4.488c3.129-.729,3.168-.273,3.168,2.9C11098.961,4949.475,11098.717,4950.249,11097.9,4950.249Zm-4.225.792c0,1.378,5.563,1.632,6.807-.058,1.348-1.831.922-5.791-.41-6.867s-2.787-.552-4.283-.2v-3.433h-2.113Z" transform="translate(-11028.465 -4911.437)"/><path class="a" d="M15225.7,4952.1c2.141,0,2.119.175,2.141-1.555.012-.862-.027-1.793-.027-2.669a22.836,22.836,0,0,1,3.168,4.224h2.375c-.393-1.686-2.283-3.432-3.168-4.752a10.618,10.618,0,0,0,2.9-3.7h-2.377a34.048,34.048,0,0,1-2.9,3.7v-6.865h-2.113Z" transform="translate(-15136.196 -4911.438)"/><path class="a" d="M19674.449,5454.6v-1.32h2.639v1.848C19676.275,5455.321,19674.449,5455.919,19674.449,5454.6Zm-2.113-5.809a9.409,9.409,0,0,0,.525,1.849,9.128,9.128,0,0,1,3.436-.264c.877,0,.771.474.791,1.32-2.18-.049-5.018-1.221-5.018,3.168,0,3.271,5.225,2.028,7.129,1.584,0-2.135.51-5.836-.576-7.08C19677.1,5447.621,19674.611,5448.605,19672.336,5448.795Z" transform="translate(-19556.428 -5416.32)"/><path class="a" d="M13611.156,5440.329a10.339,10.339,0,0,1,.264-3.7c1.672-.389.969-.389,2.641,0a9.375,9.375,0,0,1,0,4.752C13612.73,5441.385,13611.156,5441.684,13611.156,5440.329Zm-2.377-1.848c0,5.129,2.285,4.752,5.018,4.752,3.436,0,4.855-8.713-1.057-8.713A3.666,3.666,0,0,0,13608.779,5438.481Z" transform="translate(-13528.779 -5402.573)"/><path class="a" d="M16577.051,5443.866h.266c.939,0,1.033.626,1.057,1.583h-2.9C16575.561,5444.325,16575.852,5443.866,16577.051,5443.866Zm-3.961,2.112c0,6,3.555,4.764,6.865,4.489a14.7,14.7,0,0,0-.264-1.849c-2.875.24-4.225,1.09-4.225-1.584h5.018c0-1.358.131-3.385-.992-4.29a5.694,5.694,0,0,0-2.908-.671A3.529,3.529,0,0,0,16573.09,5445.978Z" transform="translate(-16475.664 -5410.07)"/><path class="a" d="M18041.236,5441.885c-1.928,0-1.32.115-1.32,7.657,0,.938.514.792,1.586.792,1.313,0,.791-3.783.791-6.337a14.138,14.138,0,0,1,2.9-.264v-1.848c-1.123-.262-.816-.306-1.9-.059C18041.553,5442.219,18042.648,5441.885,18041.236,5441.885Z" transform="translate(-17933.779 -5409.674)"/><path class="a" d="M12606.736,5439.178c-1.927,0-1.32.115-1.32,7.656,0,.939.516.792,1.584.792,1.314,0,.792-3.783.792-6.337a12.488,12.488,0,0,1,2.642-.264c0-2.009.178-2.357-1.633-1.918C12607.044,5439.533,12608.162,5439.178,12606.736,5439.178Z" transform="translate(-12531.225 -5406.967)"/></g></g></svg>