<svg xmlns="http://www.w3.org/2000/svg" xmlns:xlink="http://www.w3.org/1999/xlink" width="40.5" height="40.456" viewBox="0 0 40.5 40.456"><defs><style>.a{fill:#fff;}.b,.f{fill:none;}.b{stroke:#fff;}.b,.c{opacity:0.95;}.d{clip-path:url(#a);}.e{stroke:none;}</style><clipPath id="a"><path class="a" d="M0-446.4H16.622V-463H0Z" transform="translate(-0.001 463)"/></clipPath></defs><g class="b"><ellipse class="e" cx="20.25" cy="20.228" rx="20.25" ry="20.228"/><ellipse class="f" cx="20.25" cy="20.228" rx="19.75" ry="19.728"/></g><g class="c" transform="translate(12.375 12.361)"><g class="d"><g transform="translate(0 0)"><path class="a" d="M-445.67-351.673a.8.8,0,0,1-.246.7l-2.338,2.318a1.317,1.317,0,0,1-.413.3,1.71,1.71,0,0,1-.5.158l-.106.009q-.088.009-.228.009a8.122,8.122,0,0,1-1.081-.114,8.209,8.209,0,0,1-1.828-.562,15.354,15.354,0,0,1-2.452-1.343,18.278,18.278,0,0,1-2.918-2.458,19.248,19.248,0,0,1-2.039-2.318,16.5,16.5,0,0,1-1.3-2.046,10.992,10.992,0,0,1-.738-1.7,9.026,9.026,0,0,1-.334-1.317,4.335,4.335,0,0,1-.07-.869q.017-.316.018-.351a1.7,1.7,0,0,1,.158-.5,1.314,1.314,0,0,1,.3-.413l2.338-2.335a.775.775,0,0,1,.563-.246.656.656,0,0,1,.4.132,1.223,1.223,0,0,1,.3.325l1.881,3.564a.854.854,0,0,1,.088.615,1.093,1.093,0,0,1-.3.562l-.861.86a.293.293,0,0,0-.062.114.433.433,0,0,0-.026.132,3.16,3.16,0,0,0,.316.843,7.743,7.743,0,0,0,.65,1.027,11.419,11.419,0,0,0,1.248,1.4,11.628,11.628,0,0,0,1.406,1.255,8.118,8.118,0,0,0,1.028.658,2.744,2.744,0,0,0,.633.255l.22.044a.422.422,0,0,0,.114-.026.291.291,0,0,0,.114-.062l1-1.018a1.077,1.077,0,0,1,.738-.281.92.92,0,0,1,.475.105h.018l3.392,2a.883.883,0,0,1,.439.58" transform="translate(462.266 364.754)"/></g></g></g></svg>