<svg xmlns="http://www.w3.org/2000/svg" width="71.503" height="75.702" viewBox="0 0 71.503 75.702"><defs><style>.a{opacity:0.15;}.b{fill:#fff;}</style></defs><g class="a" transform="translate(-23.641 -9.998)"><path class="b" d="M48.479,262.534c-5.456-3.993-8.222-9.04-8.222-15V235.46a85.917,85.917,0,0,0,15.392-8.714q-1.742-1.158-3.427-2.4a85.909,85.909,0,0,1-16.581,9.574V246c0,5.96,2.766,11.006,8.222,15a30.764,30.764,0,0,0,8.059,4.183c.137-.044.327-.106.561-.188A29.9,29.9,0,0,1,48.479,262.534Z" transform="translate(-10.154 -181.369)"/><g transform="translate(37.577 9.998)"><path class="b" d="M167.959,13.481H148.539a6.146,6.146,0,0,0-11.078,0H118.042a3.829,3.829,0,0,0-3.825,3.826V44.623h1.846V17.307a1.981,1.981,0,0,1,1.979-1.979h18.867a6.157,6.157,0,0,0-.056.818v1.688H128.2a.923.923,0,0,0-.923.923v2.716h-3.954a2.377,2.377,0,0,0-2.374,2.374V44.3h1.846V23.848a.528.528,0,0,1,.528-.528h3.954v2.4a.923.923,0,0,0,.923.923h29.6a.923.923,0,0,0,.923-.923v-2.4h3.954a.529.529,0,0,1,.528.528v39.47H158.57a3.829,3.829,0,0,0-3.825,3.825v4.513H134.076V73.5h21.03a2.689,2.689,0,0,0,.35-.025.916.916,0,0,0,.9-.285,2.675,2.675,0,0,0,.633-.47l7.282-7.282a2.648,2.648,0,0,0,.78-1.884V23.848a2.377,2.377,0,0,0-2.374-2.374h-3.954V18.757a.923.923,0,0,0-.923-.923h-8.654V16.145a6.159,6.159,0,0,0-.056-.818h18.868a1.981,1.981,0,0,1,1.978,1.98V77.67a1.981,1.981,0,0,1-1.978,1.979H126.923V81.5h41.035a3.829,3.829,0,0,0,3.825-3.825V17.307a3.829,3.829,0,0,0-3.825-3.826ZM156.591,70.51V67.143a1.981,1.981,0,0,1,1.979-1.979h3.367Zm.287-50.83V24.8H129.123V19.68h8.654a.923.923,0,0,0,.923-.923V16.145a4.3,4.3,0,1,1,8.6,0v2.612a.923.923,0,0,0,.923.923Z" transform="translate(-114.217 -9.998)"/><path class="b" d="M386.406,167.623a.923.923,0,1,0,0-1.846h-1.091a.923.923,0,0,0,0,1.846Z" transform="translate(-342.822 -141.808)"/><path class="b" d="M283.744,165.777H269.29a.923.923,0,0,0,0,1.846h14.454a.923.923,0,1,0,0-1.846Z" transform="translate(-244.649 -141.808)"/><path class="b" d="M200.017,167.623h5.654a.923.923,0,0,0,0-1.846h-5.654a.923.923,0,0,0,0,1.846Z" transform="translate(-186.035 -141.808)"/><path class="b" d="M371.613,217.551a.923.923,0,0,0,.923.923h3.057a.923.923,0,0,0,0-1.846h-3.057A.923.923,0,0,0,371.613,217.551Z" transform="translate(-332.009 -184.835)"/><path class="b" d="M328.111,218.474a.923.923,0,0,0,0-1.846h-4.166a.923.923,0,0,0,0,1.846Z" transform="translate(-290.895 -184.835)"/><path class="b" d="M200.017,218.474h15.39a.923.923,0,1,0,0-1.846h-15.39a.923.923,0,1,0,0,1.846Z" transform="translate(-186.035 -184.835)"/><path class="b" d="M356.677,270.647h-6.5a.923.923,0,1,0,0,1.846h6.5a.923.923,0,1,0,0-1.846Z" transform="translate(-313.093 -230.543)"/><path class="b" d="M273.743,271.57a.923.923,0,0,0,.923.923h8.309a.923.923,0,1,0,0-1.846h-8.309A.923.923,0,0,0,273.743,271.57Z" transform="translate(-249.198 -230.543)"/><path class="b" d="M273.284,322.421h18.328a.923.923,0,1,0,0-1.846H273.284a.923.923,0,0,0,0,1.846Z" transform="translate(-248.029 -272.789)"/></g><path class="b" d="M60.5,234.592V221.911a.923.923,0,0,0-.559-.848l-.115-.049a84.048,84.048,0,0,1-17.2-9.959.923.923,0,0,0-1.108,0,84.043,84.043,0,0,1-17.2,9.96l-.115.049a.923.923,0,0,0-.559.848v12.681c0,6.488,3.1,12.19,8.978,16.489a31.726,31.726,0,0,0,8.886,4.546.924.924,0,0,0,.51,0,33.3,33.3,0,0,0,9.186-4.539c6.08-4.3,9.294-10,9.294-16.5ZM41.769,253.774a30.764,30.764,0,0,1-8.059-4.183c-5.456-3.993-8.222-9.04-8.222-15V222.517a85.9,85.9,0,0,0,16.581-9.574,85.9,85.9,0,0,0,16.581,9.574v12.074c0,5.937-2.85,10.97-8.471,14.96A32.466,32.466,0,0,1,41.769,253.774Z" transform="translate(0 -169.965)"/><path class="b" d="M103.6,321.151l-9.241,8.465-4.615-5a.923.923,0,1,0-1.357,1.252l5.238,5.68a.923.923,0,0,0,1.3.055l9.92-9.086a.923.923,0,1,0-1.246-1.362Z" transform="translate(-54.58 -263.073)"/></g></svg>