<svg xmlns="http://www.w3.org/2000/svg" width="18" height="14.625" viewBox="0 0 18 14.625"><defs><style>.a{fill:#1ae5be;opacity:0.95;}</style></defs><path class="a" d="M7.137-10.406A8.114,8.114,0,0,0,9-12.34a7.93,7.93,0,0,1-2.109.6,3.663,3.663,0,0,0,1.617-2.039,7.51,7.51,0,0,1-2.355.879,4.175,4.175,0,0,0-1.213-.844,3.522,3.522,0,0,0-1.494-.316,3.565,3.565,0,0,0-1.828.492A3.613,3.613,0,0,0,.281-12.217a3.66,3.66,0,0,0-.492,1.846,5.124,5.124,0,0,0,.07.844,10.219,10.219,0,0,1-4.236-1.125,10.179,10.179,0,0,1-3.357-2.742,3.534,3.534,0,0,0-.527,1.846A3.546,3.546,0,0,0-7.8-9.773a4.1,4.1,0,0,0,1.2,1.336A3.475,3.475,0,0,1-8.262-8.93v.07a3.539,3.539,0,0,0,.844,2.32,3.719,3.719,0,0,0,2.109,1.3,4.686,4.686,0,0,1-.984.105q-.316,0-.668-.035A3.671,3.671,0,0,0-5.678-3.357a3.434,3.434,0,0,0,2.162.721A7.319,7.319,0,0,1-8.121-1.055q-.492,0-.879-.035A10.242,10.242,0,0,0-3.34.563,10.143,10.143,0,0,0,2.391-1.09,10.04,10.04,0,0,0,5.941-5.062a10.424,10.424,0,0,0,1.23-4.887A2.094,2.094,0,0,0,7.137-10.406Z" transform="translate(9 14.063)"/></svg>